<?xml version="1.0" encoding="utf-8"?>
<!-- Generator: Adobe Illustrator 23.0.2, SVG Export Plug-In . SVG Version: 6.00 Build 0)  -->
<svg version="1.1" id="图层_1" xmlns="http://www.w3.org/2000/svg" xmlns:xlink="http://www.w3.org/1999/xlink" x="0px" y="0px"
	 viewBox="0 0 82.6 89.6" style="enable-background:new 0 0 82.6 89.6;" xml:space="preserve">
<style type="text/css">
	.st0{fill:#272C6A;}
	.st1{fill:#D2E7FF;stroke:#000000;stroke-miterlimit:10;}
	.st2{font-family:'STXingkai';}
	.st3{font-size:18px;}
</style>
<g>
	<g id="图层_1-2">
		<path class="st0" d="M6.8,72.7l-2.2,6.7c0,0,1.8,1.9,1.4,2.8s2.1-0.8,3.1,1.8c0,0,1.2-0.8,2-0.4c2.8,1.3,5.8,2.4,8.7,3.4
			c1.2,0.2,4.2,1.7,4.7,1.5s0.9-0.6,1.4-0.4l6.5,2.8c0,0,1.9-3.9,2.3-3.8c0.8,0.5,1.7,0.9,2.6,1.2c0.5,0,1-0.6,1.1-0.7
			s0.7,1.3,1.3,1.4s1.9-0.2,1.8-0.7c0.3-1.4,0.7-2.7,1.1-4c0,0,5.8,2.9,6.2,3.3s2.4,3,3.4,3.3s2,0.7,2.2,0.5s2.5-2.1,2.5-2.9
			s3.3,0.3,4.5-1c1-1,2.4-1.5,3.8-1.3c0.4,0.2,0.6,1.6,1.1,1.7s0.1,1.4-0.4,1.4s-0.6,1.5-0.2,1.7s1.8,1.6,2.4,1.5s3.6-0.3,3.8-0.3
			s1.5-0.9,1.4-1.3s0.7-1.8,0.8-2.2c-0.4-1.4-1-2.8-1.8-4.1c-0.4-0.6-0.8-1.4-1.3-1.7c-0.6-0.4-0.9-1.1-0.8-1.8
			c0.8-1.4,0.8-3.1,0-4.4c-1.3-2-2.2-4.2-3.4-4.7c-0.9-0.3-1.5-1.2-1.6-2.1c-0.1-0.7,0-1.8,0.4-1.8c1.7,0.7,3.3,1.5,4.8,2.6
			c0.2,0.3,1.7,0.1,1.7-0.4s-0.3-2-0.9-2.1s-1.6-1.3-1.6-1.3s-1.4,0.8-1.8,0.5s-2.2,0.2-2-1.4c0.2-1.6,3.9-8,3.7-8.5s-1.3-1-1.3-1.6
			S80.2,24.4,82,23.2c-0.3-0.9-0.7-1.8-1.1-2.6c-0.3-0.2-6.1,11.1-6.3,11.1s-0.8,0.9-2,0.2c-1.2-0.8-2.8-2.2-4.1-2.2s-16-4.8-16-4.8
			c-0.8-0.3-1.2-1.1-1-1.9c0,0,0,0,0-0.1c0.5-1.5,4.6-11.8,4.4-12.4S55,7.1,55.7,5.4C55.7,5.4,35.3,4,35,4s-0.8,1.7-1.3,2
			s-1.2,0.6-4.1,0.4s-2.3-0.1-2.2,0.2C28,8,28.6,9.4,29,10.9c0.2,1.5,0.4,3,0.4,4.6c-0.1,0.6-0.6,3.2-2.5,2.9
			c-2.1-0.4-4.3-1-6.3-1.6c-0.3-0.1,0.6-3.5,0.1-3.9S16,11,13.3,11.6c-1,1.3-1.9,2.6-2.7,4c-0.4,1-0.7,2.2-0.8,2.3
			c-0.2,0.8-0.2,1.7,0,2.5c0.2,0.4-0.4,2.9-0.4,3.3s1.1,1.7,1.3,2.3s2.1,3.7,1.9,4.2c-0.3,1.6-0.7,3.2-1.2,4.8
			c-0.8,2.1-1.5,4.2-1.9,6.4c0.1,1.6-0.5,3.1-1.4,4.3c-0.9,1.3-1.5,2.8-1.8,4.4C6,50.7,0.1,70.1,0.5,70.6S6.8,72.7,6.8,72.7z"/>
		<path class="st1" d="M6.8,69.2l-2.2,6.7c0,0,1.8,1.9,1.4,2.8s2.1-0.8,3.1,1.8c0,0,1.2-0.8,2-0.4c2.8,1.3,5.8,2.4,8.7,3.4
			c1.2,0.2,4.2,1.7,4.7,1.5s0.9-0.6,1.4-0.4l6.5,2.8c0,0,1.9-3.9,2.3-3.8c0.8,0.5,1.7,0.9,2.6,1.2c0.5,0,1-0.6,1.1-0.7
			s0.7,1.3,1.3,1.4s1.9-0.2,1.8-0.7c0.3-1.4,0.7-2.7,1.1-4c0,0,5.8,2.9,6.2,3.3s2.4,3,3.4,3.3s2,0.7,2.2,0.5s2.5-2.1,2.5-2.9
			s3.3,0.3,4.5-1c1-1,2.4-1.5,3.8-1.3c0.4,0.2,0.6,1.6,1.1,1.7s0.1,1.4-0.4,1.4s-0.6,1.5-0.2,1.7s1.8,1.6,2.4,1.5s3.6-0.3,3.8-0.3
			s1.5-0.9,1.4-1.3s0.7-1.8,0.8-2.2c-0.4-1.4-1-2.8-1.8-4.1c-0.4-0.6-0.8-1.4-1.3-1.7c-0.6-0.4-0.9-1.1-0.8-1.8
			c0.8-1.4,0.8-3.1,0-4.4c-1.3-2-2.2-4.2-3.4-4.7c-0.9-0.3-1.5-1.2-1.6-2.1c-0.1-0.7,0-1.8,0.4-1.8c1.7,0.7,3.3,1.5,4.8,2.6
			c0.2,0.3,1.7,0.1,1.7-0.4s-0.3-2-0.9-2.1s-1.6-1.3-1.6-1.3s-1.4,0.8-1.8,0.5s-2.2,0.2-2-1.4s3.9-8,3.7-8.5s-1.3-1-1.3-1.6
			S80.2,20.8,82,19.7c-0.3-0.9-0.7-1.8-1.1-2.6c-0.3-0.2-6.1,11.1-6.3,11.1s-0.8,0.9-2,0.2s-2.8-2.2-4.1-2.2s-16-4.8-16-4.8
			c-0.8-0.3-1.2-1.1-1-1.9c0,0,0,0,0-0.1c0.5-1.5,4.6-11.8,4.4-12.4S55,3.6,55.7,1.9c0,0-20.4-1.4-20.7-1.4s-0.8,1.7-1.3,2
			s-1.2,0.6-4.1,0.4s-2.3-0.1-2.2,0.2C28,4.5,28.6,5.9,29,7.3c0.2,1.5,0.4,3,0.4,4.6c-0.1,0.6-0.6,3.2-2.5,2.9
			c-2.1-0.4-4.3-1-6.3-1.6c-0.3-0.1,0.6-3.5,0.1-3.9S16,7.4,13.3,8.1c-1,1.3-1.9,2.6-2.7,4c-0.4,1-0.7,2.2-0.8,2.3
			c-0.2,0.8-0.2,1.7,0,2.5c0.2,0.4-0.4,2.9-0.4,3.3s1.1,1.7,1.3,2.3s2.1,3.7,1.9,4.2c-0.3,1.6-0.7,3.2-1.2,4.8
			c-0.8,2.1-1.5,4.2-1.9,6.4c0.1,1.6-0.5,3.1-1.4,4.3c-0.9,1.3-1.5,2.8-1.8,4.4c-0.2,0.5-6.1,20-5.7,20.4S6.8,69.2,6.8,69.2z"/>
		<text transform="matrix(1 0 0 1 21.52 44.52)" class="st2 st3">八角</text>
		<text transform="matrix(1 0 0 1 21.52 66.12)" class="st2 st3">社区</text>
	</g>
</g>
</svg>
