<?xml version="1.0" encoding="utf-8"?>
<!-- Generator: Adobe Illustrator 23.0.2, SVG Export Plug-In . SVG Version: 6.00 Build 0)  -->
<svg version="1.1" id="图层_1" xmlns="http://www.w3.org/2000/svg" xmlns:xlink="http://www.w3.org/1999/xlink" x="0px" y="0px"
	 viewBox="0 0 165.1 212.1" style="enable-background:new 0 0 165.1 212.1;" xml:space="preserve">
<style type="text/css">
	.st0{fill:#272C6A;}
	.st1{fill:#FCFFD2;stroke:#000000;stroke-miterlimit:10;}
	.st2{font-family:'STXingkai';}
	.st3{font-size:30px;}
</style>
<g id="图层_1-2">
	<path class="st0" d="M42.3,91.7c0,0,1-2.6,0.5-3s-4.1-2.2-4.4-2.5s-4.3-4.7-4.5-5.4s-2.7-2.8-3.3-3.1s-0.8-1.9-1.2-2.5
		c-0.7-1.3-1.4-2.6-1.9-4c-0.3-1.1-0.9-2.2-1.7-3c-0.7-0.7-1.4-1.5-1.9-2.4c-0.4-0.9-1.1-1.6-1.9-2c-1.4-0.9-4.1-2.2-4.3-2.5
		s-2.9-2.3-3.3-2.9s-2.9-2.7-3.7-2.7c-1.8-0.6-3.3-1.7-4.4-3.3c-0.7-1.3-3-4.6-2.9-5.6s0.9-0.3,1.4-1.5c0.5-1,0.8-2.2,0.7-3.3
		c-0.2-0.6,0.2-1.2,0.8-1.4c0,0,0,0,0.1,0c0.4-0.1,1-0.3,1-0.6s0.7-1.3,0.2-1.7s-2.2-1-2.2-1.5s0.7-0.5,0.2-1.1
		c-0.8-1-1.6-2-2.2-3.1c0-0.5-0.1-1-0.4-1.4c-0.9-1-1.6-2.1-2.2-3.3c0-0.4-0.9-1.8-0.9-2.1c0-0.7,0-1.4,0-2.1c0.2-0.6,0.3-1.3,0.3-2
		C0.2,20.8,0,17.7,0,17.7c1.4,0.1,2.7,0.1,4.1,0c0.7-0.3,1.1-1.1,1.3-1.3c0.2-0.2-1.3-1.3-1-1.9s1-0.7,0.4-1.5
		c-0.6-0.8-0.9-1.5-0.7-1.5c0.2,0,2.1-0.6,2.1-0.9c0-0.3,0.2-0.8,0-0.9C6.1,9.7,7,8.9,7,8.9s1.6,1,1.6,1.4s0.5,0.7,1,0.2
		c0.5-0.5,2.6,0.5,2.8,0.6s2.8,1.9,3.7,1.8c0.9-0.1,1.7,0.1,1.7-0.6s0.2-1.4,0.6-1.1c0.4,0.3,5.1,2.1,5.3,2.4s0.4,1.3,1,1
		s4.6-2.2,4.9-2.4s4.1-6.1,4.8-5.9S73,19.7,73,19.7s10.4,4,10.7,3.9s1-0.2,0.7-1c-0.1-0.9-0.1-1.9,0.1-2.9c0,0,1.2-0.2,1.7,0.2
		c0.5,0.5,1.1-0.1,1.2,0.1s-0.1,1,0.4,1.2c0.5,0.2,1.2,0.7,1.3,0.4c0.1-0.2,0.6-1,1-1s1.9,0.5,2.4,0.3s1.5-2.7,1.5-3.9
		c0-0.8,0.1-1.6,0.3-2.5c-1.1-0.1-2.2-0.2-3.3-0.1c-0.6,0.1-0.6,0.4-1.1,0.4s-7.5-0.1-7.8-0.4s0.2-2.4,0.2-2.4l9.7,1.7l4.6-0.2
		c0,0,0.6-1.5,1.1-1.7c0.4-0.1,1,0.4,1.3,0.3s0.8-0.4,1.1-0.1s5.3,3.8,8.5,2.8s4.7-1.7,5.9-1.7s1.8,0.6,2.3,0.4c1-0.4,2-0.7,3-0.9
		c0.7,0,2.9-4.2,4.2-4.1c1.3,0.1,0.2,1.9,0.3,2.1s1.3,2.4,1.3,2.4c-0.2,0.3-0.4,0.6-0.6,0.9c-0.3,0.6-0.3,2.3,0.1,2.4
		s1.2,0.4,1.2,0.9c0.1,0.7,0.3,1.4,0.6,2c0.2,0.4,0.2,1,0,1.4c-0.4,0.3-0.7,0.7-0.7,1.2c0.1,0.5,1,0.5,1.6,0.8s0.7,0.3,0.5,1
		s-0.4,1.3,0.1,1.7s1.3,0.5,0.7,1.8s-0.8,1.2-0.8,1.6s-1.9,0.5-2,0.9s3.6,7.9,3.6,8.5c-0.1,0.7,0,1.5,0.4,2.2c0.4,0.4,1.3,1,1,1.4
		s-1,0.5-1,0.8s1.4,1,1.4,1.6s-0.8,0.7-1.1,1s-2.1,1.8-2.2,2.2s-1,2.5-0.4,3s3.9,1.8,3.4,2.7s-4.1,9.5-4,9.7s1.9,1.6,1.8,1.9
		c-0.2,0.3-1.7,2.4-1.4,2.6c0.7,0.5,1.3,1,1.8,1.7c0.4,0.7,0.4,1.6,0.9,1.7s0.1,1.6,0.1,1.6c0.4,0.2,0.7,0.6,0.9,1
		c0.3,0.8,1.9-0.2,2.4-0.2c0.3,0,0.6,0,0.9,0.2l0.5,1c0,0,0.6-1,1-0.5c0.9,1.1,2.1,2.1,3.3,2.8c0.7,0.2,0.7,2.7,1,2.9s1,1.3,2.2,1.8
		s1.4,1.3,1.9,1.8s1.5,2.3,2.8,2.9c1.3,0.5,2.5,1.1,3.6,1.9c0.2,0.4-0.2,1,0,1.1s2.8,1.3,2.9,1.7c0.2,0.8,0.2,1.7,0,2.6
		c-0.4,0.8,2.7-0.1,3.8,0.4s5.9,3,5.9,3s-3.3,6.9-2.8,7.3s1.2,0.2,0.9,1.1s-4.9,10.8-5.4,10.8c-0.7-0.2-1.3-0.4-1.9-0.8
		c0,0,0,1.6-0.3,1.6s-1.1,0.4-1.2,0.7s-0.6,2.2-1.3,2.4c-0.8,0.3-1.4,0.9-1.9,1.7c-0.6,1.3-1.2,2.5-1.9,3.7c-0.5,0.6-0.6,1.8-1,1.9
		s-1.6,0.8-1.6,1.3c-0.1,0.5,0.4,4.1,0.1,4.7c-0.5,1.2-1,2.3-1.4,3.6c0,0.5-0.1,0.7,0.7,1s10.4,4.9,10.7,5.5
		c0.4,1.2,0.7,2.4,0.7,3.6c0.1,0.8,0.1,1.6,0.1,2.4c-0.1,0.6-0.4,2.5,0,3.3s1.1,1.6,0.9,2.3s-3.6,7.2-4.2,7.9s-3.2,4.7-3.6,4.8
		c-0.5,0.3-1,0.8-1.3,1.3c-0.5,0.8-1,1.5-1.6,2.2c-1.3,1.8-2.5,3.7-3.5,5.7c-0.1,0.7,0.5,2.3,0,2.8c-0.9,0.8-1.6,1.6-2.4,2.5
		c1.5,1.3,3.1,2.5,4.8,3.5c0.4,0,4.1,0.3,4.9,1.9c0,0,4.1-0.1,4.3,0.4s2.4,0.6,2.8,0.7c0.5,0.3,1.1,0.6,1.8,0.7
		c0.7,0,2.4-0.7,2.7-0.4s0.4,1.3,0.9,1.6s0.5,1.9,1.1,2.3s-1.5,0.4-2.1,1.1s-1.3,1.3-2,1.3c-0.8,0.1-1.7,0.1-2.5,0
		c-0.4-0.1-1.5-1.3-1.9-1.3s-2.2,0.5-2.5,2l-1.1-0.5c0,0,0.7-0.4,0.6-0.7c-0.9-1.2-1.9-2.3-2.9-3.4c-0.7-0.6-3.7-0.3-3.9-0.4
		c-0.7,0.1-1.5,0.1-2.2,0.1c-0.4-0.2-1.7,1.4-1.7,1.4s-1.9,1.1-2.3,0.8s-1.6,0.4-2.2-0.3s-3.8-3.1-3.8-3.1l-2.5,3l-2.9-2.2l-2,2.6
		c0,0-3.3-1.3-1.9-3.4s2.8-3.6,2.8-3.8s0.9-2.2-0.6-2.8s-3.8-1.7-3.8-1.7l-3.1,7.3c-0.5-0.1-1-0.1-1.4,0.1c-0.3,0.2-0.5,0.5-0.7,0.8
		l-3.8-1.9l-7.1,15.7L93.4,199l-1.5,0.9L86,217.5l-24-1.3c-0.1-0.9-0.1-1.9,0.1-2.8c0.3-0.7,4.3-12.7,4.3-13.2s-1.2-1.3-1.4-1.4
		s1.1-0.8,1.2-1.6s0.5-1.9,0-2.2s-2.8-1.4-2.8-1.7s1.4-2.4,2.3-2.4s2,0.3,2.1-0.8s0-2.3,0.2-2.7s-0.4-0.8-1.1-1.2s-0.2-1.7-0.8-1.9
		s-1.4-1.1-0.8-1.4c0.6-0.4,1.3-0.7,2-1c0.3-0.1,2.1,1.4,2.1,1.4l1.6-0.5c0,0,1.1,1,1.4,0.6s3.4-10.6,3.2-11.3s-0.3-2-0.8-1.6
		s-0.1,1.6-2,1c-0.1-0.8-0.2-1.6-0.5-2.3c-0.3-0.4-1-1.7-0.1-1.9s1.9-0.8,1.6-1.4s-2.7-2.3-2.3-2.7s0.6-0.8,0.8-0.8s1.2,1.4,1.7,1.3
		s1.7-0.7,1.7-1.3s-4.5-3.8-4.9-4.9s-0.9-0.9-0.9-0.9c0.2-1.1,0.3-2.1,0.2-3.2c-0.2-0.3,0.4-0.6,1.6-0.3s1.9,1,2.5,0.7
		c0.7-0.3,1.2-1,1.3-1.7c0-0.8,0.3-1.6,0.9-2.2c0.6-0.5,0.9-1.3,0.8-2.1c-0.2-0.6-0.8-1.9-0.6-2.5c0.2-0.7,0.5-1.3,0.9-1.9
		c0.4-0.6,1.3-1.3,1.1-1.7c-0.3-0.7-0.7-1.5-1.2-2.2c-0.3-0.2-0.9,0.4-1.2,0.2s-1.1-0.7-0.8-1.1s0.3-1.6,0.6-1.6s2-0.2,2.6,0.2
		s1.4-0.4,1.6-0.7s1.6-4-2.6-8.1c0,0,1.3-0.1,1.9,0.6l1.8-1.2c0,0-0.3-1.9,0.4-2s0.7,0.9,1.9,0s0.8-1.7,1.5-1.6s1.1-3.8,0.7-4.9
		s0.3-0.1,0.7-0.1s0.7-0.7,1.8-0.6s2.2,0.2,2.2-0.1s-4.7-1.4-4.7-1.4s-0.6-0.8-0.9-0.8s-0.5,0.1-0.1-1s0.6-3.3,1-3.3
		c0.6-0.1,1.1-0.5,1.3-1c0.3-0.7,0.8,0.4,1.2,0.3s0.9-4.8,0.9-4.8l2.1,0.3c0,0-2.1-5.5-4.1-6.4c0,0-0.9,1.4-1.1,1.2
		s-1.2-0.5-1.5-0.8s-2.8,0.1-2.4-1.7s1.1-2.1,1.1-2.1s-0.6-1.2-1.4-1.5s-1-2.3-0.8-2.9s-0.6-0.8-0.7-0.8s-3.7-0.2-4.7,0.2
		s-1.4,0.7-1.8,1.6s-0.3,2.1-0.5,2.3s-1,1.2-1.6,1.8s-0.8,1.8-1,1.9s-0.9,2.1-1.1,2.1s-1.1-1.3-1.4-1.3s-0.8,1.5-2-0.3
		c-0.8-1.3-2.2-2.1-3.7-2.1c-0.7,0.1-1.1,0.7-1.5,0.7s-1.8,1.1-2.1,1.1c-0.8-0.2-1.7-0.5-2.5-0.8c0,0-2-3.5-4.2-3.2
		s-1.6-0.4-1.9-0.4s-0.8,1.2-2.2-0.1s-2.3-3.6-3.3-3.4S42.8,91.7,42.3,91.7z"/>
	<path class="st1" d="M42.3,85.3c0,0,1-2.6,0.5-3s-4.1-2.2-4.4-2.5s-4.3-4.7-4.5-5.4s-2.7-2.8-3.3-3.1s-0.8-1.9-1.2-2.5
		c-0.7-1.3-1.4-2.6-1.9-4c-0.3-1.1-0.9-2.2-1.7-3c-0.7-0.7-1.4-1.5-1.9-2.4c-0.4-0.9-1.1-1.6-1.9-2c-1.4-0.9-4.1-2.2-4.3-2.5
		s-2.9-2.3-3.3-2.9s-2.9-2.7-3.7-2.7c-1.8-0.6-3.3-1.7-4.4-3.3c-0.7-1.3-3-4.6-2.9-5.6S4.4,40,5,38.7c0.5-1,0.8-2.2,0.7-3.3
		c-0.2-0.6,0.2-1.2,0.8-1.4c0,0,0,0,0.1,0c0.4-0.1,1-0.3,1-0.6s0.7-1.3,0.2-1.7c-0.4-0.4-2.2-1-2.2-1.5s0.7-0.5,0.2-1.1
		c-0.8-1-1.6-2-2.2-3.1c0-0.5-0.1-1-0.4-1.4c-0.9-1-1.6-2.1-2.2-3.3C0.9,21,0,19.6,0,19.3c0-0.7,0-1.4,0-2.1c0.2-0.6,0.3-1.3,0.3-2
		C0.2,14.4,0,11.3,0,11.3c1.4,0.1,2.7,0.1,4.1,0c0.7-0.3,1.1-1.1,1.3-1.3c0.2-0.2-1.3-1.3-1-1.9s1-0.7,0.4-1.5
		C4.3,5.8,4,5.1,4.2,5.1c0.2,0,2.1-0.6,2.1-0.9s0.2-0.8,0-0.9C6.1,3.3,7,2.5,7,2.5s1.6,1,1.6,1.4s0.5,0.7,1,0.2s2.6,0.5,2.8,0.6
		s2.8,1.9,3.7,1.8s1.7,0.1,1.7-0.6s0.2-1.4,0.6-1.1s5.1,2.1,5.3,2.5s0.4,1.3,1,1s4.6-2.2,4.9-2.4s4.1-6.1,4.8-5.9S73,13.3,73,13.3
		s10.4,4,10.7,3.8s1-0.2,0.7-1c-0.1-0.9-0.1-1.9,0.1-2.8c0,0,1.2-0.2,1.7,0.2s1.1-0.1,1.2,0.1s-0.1,1,0.4,1.2s1.2,0.7,1.3,0.4
		s0.6-1,1-1s1.9,0.5,2.4,0.3s1.5-2.7,1.5-3.9c0-0.8,0.1-1.6,0.3-2.4C93.1,8.1,92,8,90.9,8c-0.6,0.1-0.6,0.4-1.1,0.4S82.3,8.3,82,8.1
		s0.2-2.4,0.2-2.4L92,7.4l4.6-0.2c0,0,0.6-1.5,1.1-1.7s1,0.4,1.3,0.3s0.8-0.4,1.1-0.1s5.3,3.8,8.5,2.8s4.7-1.7,5.9-1.7
		s1.8,0.6,2.3,0.4c1-0.4,2-0.7,3-0.9c0.7,0,2.9-4.2,4.2-4.1s0.2,1.9,0.3,2.2s1.3,2.4,1.3,2.4c-0.2,0.3-0.4,0.6-0.6,0.9
		c-0.3,0.6-0.3,2.3,0.1,2.4s1.2,0.4,1.2,0.9c0.1,0.7,0.3,1.4,0.6,2c0.2,0.4,0.2,1,0,1.4c-0.4,0.3-0.7,0.7-0.7,1.2
		c0.1,0.5,1,0.4,1.6,0.8s0.7,0.3,0.5,1s-0.4,1.3,0.1,1.7s1.3,0.5,0.7,1.8s-0.8,1.2-0.8,1.6s-1.9,0.5-2,0.9s3.6,7.9,3.6,8.5
		c-0.1,0.7,0,1.5,0.4,2.2c0.4,0.4,1.3,1,1,1.4s-1,0.5-1,0.8s1.4,1,1.4,1.6s-0.8,0.7-1.1,1s-2.1,1.8-2.2,2.2s-1,2.5-0.4,3
		s3.9,1.8,3.4,2.7s-4.1,9.5-4,9.7s1.9,1.6,1.8,1.9s-1.7,2.4-1.4,2.6c0.7,0.5,1.3,1,1.8,1.7c0.4,0.7,0.4,1.6,0.9,1.7s0.1,1.6,0.1,1.6
		c0.4,0.2,0.7,0.6,0.9,1c0.3,0.8,1.9-0.2,2.4-0.2c0.3,0,0.6,0,0.9,0.2l0.5,1c0,0,0.6-1,1-0.5c0.9,1.1,2.1,2.1,3.3,2.8
		c0.7,0.2,0.7,2.7,1,2.9s1,1.3,2.2,1.8s1.4,1.3,1.9,1.8s1.5,2.3,2.8,2.9c1.3,0.5,2.5,1.1,3.6,1.9c0.2,0.4-0.2,1,0,1.1
		s2.8,1.3,2.9,1.7c0.2,0.8,0.2,1.7,0,2.6c-0.4,0.8,2.7-0.1,3.8,0.4s5.9,3,5.9,3s-3.3,6.9-2.8,7.3s1.2,0.2,0.9,1.1
		s-4.9,10.8-5.4,10.8c-0.7-0.2-1.3-0.4-1.9-0.8c0,0,0,1.6-0.3,1.6s-1.1,0.4-1.2,0.7s-0.6,2.2-1.3,2.4c-0.8,0.3-1.4,0.9-1.9,1.7
		c-0.6,1.3-1.2,2.5-1.9,3.7c-0.5,0.6-0.6,1.8-1,1.9s-1.6,0.8-1.6,1.3s0.4,4.1,0.1,4.7c-0.5,1.2-1,2.3-1.4,3.6c0,0.5-0.1,0.7,0.7,1
		s10.4,4.9,10.7,5.5c0.4,1.2,0.7,2.4,0.7,3.6c0.1,0.8,0.1,1.6,0.1,2.4c-0.1,0.6-0.4,2.5,0,3.3s1.1,1.6,0.9,2.3s-3.6,7.2-4.2,7.9
		s-3.2,4.7-3.6,4.8c-0.5,0.3-1,0.8-1.3,1.3c-0.5,0.8-1,1.5-1.6,2.2c-1.3,1.8-2.5,3.7-3.5,5.7c-0.1,0.7,0.5,2.3,0,2.8
		c-0.9,0.8-1.6,1.6-2.4,2.5c1.5,1.3,3.1,2.5,4.8,3.5c0.4,0,4.1,0.3,4.9,1.9c0,0,4.1-0.1,4.3,0.4s2.4,0.6,2.8,0.7
		c0.5,0.3,1.1,0.6,1.8,0.7c0.7,0,2.4-0.7,2.7-0.4s0.4,1.3,0.9,1.6s0.5,1.9,1.1,2.3s-1.5,0.4-2.1,1.1s-1.3,1.3-2,1.3
		c-0.8,0.1-1.7,0.1-2.5,0c-0.4-0.1-1.5-1.3-1.9-1.3s-2.2,0.5-2.5,2l-1.1-0.5c0,0,0.7-0.4,0.6-0.7c-0.9-1.2-1.9-2.3-2.9-3.4
		c-0.7-0.6-3.7-0.3-3.9-0.4c-0.7,0.1-1.5,0.1-2.2,0.1c-0.4-0.2-1.7,1.4-1.7,1.4s-1.9,1.1-2.3,0.8s-1.6,0.4-2.2-0.3s-3.8-3.1-3.8-3.1
		l-2.5,3l-2.9-2.2l-2,2.6c0,0-3.3-1.3-1.9-3.4s2.8-3.6,2.8-3.8s0.9-2.2-0.6-2.8s-3.8-1.7-3.8-1.7l-3.1,7.3c-0.5-0.1-1-0.1-1.4,0.1
		c-0.3,0.2-0.5,0.5-0.7,0.8l-3.8-1.9l-7.1,15.7l-12.7-4.6l-1.5,0.9L86,211.1l-24-1.3c-0.1-0.9-0.1-1.9,0.1-2.8
		c0.3-0.7,4.3-12.7,4.3-13.2s-1.2-1.3-1.4-1.4s1.1-0.8,1.2-1.6s0.5-1.9,0-2.2s-2.8-1.4-2.8-1.7s1.4-2.4,2.3-2.4s2,0.3,2.1-0.8
		s0-2.3,0.2-2.7s-0.4-0.8-1.1-1.2s-0.2-1.7-0.8-1.9s-1.4-1.1-0.8-1.4c0.6-0.4,1.3-0.7,2-1c0.3-0.1,2.1,1.4,2.1,1.4l1.6-0.5
		c0,0,1.1,1,1.4,0.6s3.4-10.6,3.2-11.3s-0.3-2-0.8-1.6s-0.1,1.6-2,1c-0.1-0.8-0.2-1.6-0.5-2.3c-0.3-0.4-1-1.7-0.1-1.9
		s1.9-0.8,1.6-1.4s-2.7-2.3-2.3-2.7s0.6-0.8,0.8-0.8s1.2,1.4,1.7,1.3s1.7-0.7,1.7-1.3s-4.5-3.8-4.9-4.9s-0.9-0.9-0.9-0.9
		c0.2-1.1,0.3-2.1,0.2-3.2c-0.2-0.3,0.4-0.6,1.6-0.3s1.9,1,2.5,0.7c0.7-0.3,1.2-1,1.3-1.7c0-0.8,0.3-1.6,0.9-2.2
		c0.6-0.5,0.9-1.3,0.8-2.1c-0.2-0.6-0.8-1.9-0.6-2.5c0.2-0.7,0.5-1.3,0.9-1.9c0.4-0.6,1.3-1.3,1.1-1.7c-0.3-0.7-0.7-1.5-1.2-2.2
		c-0.3-0.2-0.9,0.4-1.2,0.2s-1.1-0.7-0.8-1.1s0.3-1.6,0.6-1.6s2-0.2,2.6,0.2s1.4-0.4,1.6-0.7s1.6-4-2.6-8.1c0,0,1.3-0.1,1.9,0.6
		l1.8-1.2c0,0-0.3-1.9,0.4-2s0.7,0.9,1.9,0s0.8-1.7,1.5-1.6s1.1-3.8,0.7-4.9s0.3-0.1,0.7-0.1s0.7-0.7,1.8-0.6s2.2,0.2,2.2-0.1
		s-4.7-1.4-4.7-1.4s-0.6-0.8-0.9-0.8s-0.5,0.1-0.1-1s0.6-3.3,1-3.3c0.6-0.1,1.1-0.5,1.3-1c0.3-0.7,0.8,0.4,1.2,0.3s0.9-4.8,0.9-4.8
		l2.1,0.3c0,0-2.1-5.5-4.1-6.4c0,0-0.9,1.4-1.1,1.2s-1.2-0.5-1.5-0.8s-2.8,0.1-2.4-1.7s1.1-2.1,1.1-2.1s-0.6-1.2-1.4-1.5
		s-1-2.3-0.8-2.9s-0.6-0.8-0.7-0.8s-3.7-0.2-4.7,0.2S74,86,73.7,86.9s-0.3,2.1-0.5,2.3s-1,1.2-1.6,1.8s-0.8,1.8-1,1.9
		s-0.9,2.1-1.1,2.1s-1.1-1.3-1.4-1.3s-0.8,1.5-2-0.3c-0.8-1.3-2.2-2.1-3.7-2.1c-0.7,0.1-1.1,0.7-1.5,0.7s-1.8,1.1-2.1,1.1
		c-0.8-0.2-1.7-0.5-2.5-0.8c0,0-2-3.5-4.2-3.2s-1.6-0.4-1.9-0.4s-0.8,1.2-2.2-0.1s-2.3-3.6-3.3-3.4S42.8,85.4,42.3,85.3z"/>
	<text transform="matrix(1 0 0 1 45.06 43.4965)" class="st2 st3">双</text>
	<text transform="matrix(1 0 0 1 45.06 79.4965)" class="st2 st3">     华</text>
	<text transform="matrix(1 0 0 1 45.06 115.4965)" class="st2 st3">         社</text>
	<text transform="matrix(1 0 0 1 45.06 151.4965)" class="st2 st3">      区</text>
</g>
</svg>
