<?xml version="1.0" encoding="utf-8"?>
<!-- Generator: Adobe Illustrator 23.0.2, SVG Export Plug-In . SVG Version: 6.00 Build 0)  -->
<svg version="1.1" id="图层_1" xmlns="http://www.w3.org/2000/svg" xmlns:xlink="http://www.w3.org/1999/xlink" x="0px" y="0px"
	 viewBox="0 0 139.1 84.8" style="enable-background:new 0 0 139.1 84.8;" xml:space="preserve">
<style type="text/css">
	.st0{fill:#272C6A;}
	.st1{fill:#86CEF6;}
	.st2{font-family:'STXingkai';}
	.st3{font-size:22px;}
</style>
<g>
	<g id="图层_1-2">
		<path class="st0" d="M5.3,41.3c0.3-1.1,0.8-0.7,0.8-0.7L8,41.1c0,0,3.1-5.3,3.2-6s2-6.2,2.8-6.7s1.6-4.5,2.3-4.4
			c0.8,0.1,16.8,7.6,16.8,7.6s0.8,3.3,0.2,4.3s-1.4,0-1.9,1.2s-1.9,4.3-1.6,5c0.2,0.9,0.8,1.7,1.6,2.2c1.5,1.2,2.4,2.4,2.4,3.3
			s0.5,3.2,1.1,3.3s0.7-0.8,1.3-0.5s1.1,1.5,1.5,1.7s1,0.5,1.4,0.7c0.4,0.8,0.7,1.6,0.9,2.5c0-0.6,0.7-1.7,1.5-1.6s2.4,0.2,2.5,1.5
			s0.2,2.5,0.5,2.1s0.6-0.7,0.6-1.1s-0.3-2.5-0.7-2.9S44,52,43.5,51.7s-1.3-1.8-0.8-2.1s1.7-0.2,1.9-0.6s-0.1-2.4,0.3-2.4
			s0.6-0.5,0.5-1.8s0-4.6,0.9-4.2s1.8-0.2,1.8-0.5s0.4-6.2-0.3-6.4c-0.7-0.2-4.8-0.4-5-0.5c-0.2-0.1-0.7-1.6-1.4-1.4
			s-0.8-1.4-0.8-1.7c-0.2-0.7-0.4-1.3-0.6-2c0.1-0.1,1.7-0.5,1.8-0.3s-0.6-4.4,0.3-4.9s1.7-0.7,1.5-1s-1-1.5-0.7-1.9
			s0.5-1.5,1.6-1.4s1.8,0.5,1.7-0.4s0.7-2.1,0-2.7c-0.5-0.4-0.9-0.9-1.1-1.4c-0.1-0.3-0.5-0.3-0.9-0.2s-0.6-0.1-0.1-0.7
			s1.3-1.2,0.8-1.8c-0.5-0.6-1.2-0.9-1.9-0.9c-0.4,0.1-0.2,1.7-1,1.9s-1.3,0.2-1.6,1.7c0,0-1.1,1.4-1.5,0.4s-0.5-1.8-1.2-1.7
			s-3,2.1-3.4,2S32.9,15,33.3,14c0.4-1,0.5-1.1,0.4-1.5c-0.1-0.4,1.4-2,2-2.4c0.4-0.2,0.5-0.8,0.3-1.1c-0.1-0.1-0.1-0.2-0.2-0.2
			C35.4,8.5,34.8,7,34.4,7s-1.3,1.4-1.6,1.5s-1-0.2-1.2,1s0.2,1.7-0.8,0.7s-1.5-1.1-1.7-1c-0.3,0.1-1.3,1.9-2,1.3
			c-1.3-1.3-2.5-2.8-3.5-4.3V5.7c0,0,34.4,1.2,38.7,1c4.3-0.2,24.8,0,27.9,0.6s29.4,5.1,31,5.1s18.9,2,18.9,2s-19,45.4-20.4,47.2
			c-0.6,0.8-9.1,13.3-18.5,27.3l-0.3,0.4L2.3,44.1C2.1,44,2.8,44,3.1,43.8C4,43.2,4.8,42.3,5.3,41.3z"/>
		<g>
			<path class="st1" d="M99.1,84.7c-0.1,0-0.1,0-0.2,0L0.3,39.4C0.1,39.3,0,39,0,38.8c0-0.4,0.4-0.5,0.7-0.6c0.1,0,0.3-0.1,0.3-0.1
				c0.8-0.5,1.6-1.3,2-2.3c0.2-0.9,0.7-1.1,1.1-1.1c0.2,0,0.3,0,0.4,0.1L6,35.3c1.4-2.4,2.8-5,2.9-5.5c0.1-0.6,2-6.5,3-7
				c0.2-0.2,0.6-1.3,0.9-1.9c0.5-1.5,0.9-2.5,1.7-2.5c0,0,0.1,0,0.1,0c0.8,0.1,13.2,5.9,17,7.7c0.1,0.1,0.2,0.2,0.3,0.3
				c0.1,0.6,0.9,3.5,0.2,4.7c-0.4,0.7-1,0.7-1.3,0.8c-0.3,0-0.4,0-0.5,0.3l0,0.1c-1.5,3.4-1.6,4.3-1.5,4.5c0.2,0.9,0.7,1.6,1.4,2
				c1.2,1,2.7,2.4,2.7,3.7c0,0.8,0.4,2.4,0.7,2.8c0,0,0.1-0.1,0.1-0.1c0.2-0.2,0.4-0.4,0.8-0.4c0.1,0,0.2,0,0.4,0.1
				c0.4,0.2,0.8,0.6,1.1,1.1c0.1,0.2,0.4,0.5,0.5,0.6c0.3,0.1,0.6,0.3,0.9,0.4c0.2,0.1,0.4,0.2,0.5,0.3c0.1,0,0.2,0.1,0.3,0.2
				c0.2,0.4,0.4,0.8,0.5,1.3c0.3-0.4,0.7-0.6,1.2-0.6c0.1,0,0.2,0,0.3,0c0.1,0,0.3,0.1,0.4,0.1c0.7,0.1,1.7,0.3,2.2,1.1
				c-0.1-0.3-0.2-0.6-0.3-0.7c-0.3-0.3-0.5-0.7-0.6-1.1c-0.1-0.2-0.1-0.5-0.2-0.5c-0.4-0.3-1.2-1.5-1.2-2.3c0-0.3,0.1-0.5,0.4-0.7
				c0.3-0.2,0.7-0.2,1.1-0.3c0.2,0,0.6-0.1,0.7-0.2c0,0,0-0.5,0-0.8c0-1,0-1.8,0.7-1.8c0,0,0.1-0.3,0.1-1.3c0,0-0.2-3.6,0.6-4.5
				c0.2-0.2,0.4-0.3,0.6-0.3c0.1,0,0.2,0,0.3,0.1c0.1,0.1,0.3,0.1,0.4,0.1c0.3,0,0.6-0.1,0.7-0.2c0-0.1,0-0.2,0-0.3
				c0.2-4,0-5.1-0.1-5.5c-0.5-0.1-1.5-0.2-2.4-0.3c-2.1-0.2-2.4-0.2-2.5-0.3c-0.2-0.1-0.3-0.3-0.5-0.6c-0.3-0.5-0.5-0.8-0.6-0.8
				c-0.1,0-0.2,0-0.2,0c-1,0-1.1-1.4-1.2-2.1l0-0.1c-0.2-0.7-0.4-1.3-0.6-2c0-0.2,0-0.3,0.1-0.5c0.2-0.2,1.1-0.4,1.6-0.5
				c-0.3-3.2-0.1-4.4,0.5-4.8c0.2-0.1,0.5-0.2,0.7-0.3c0.1-0.1,0.3-0.1,0.4-0.2c-0.4-0.5-1-1.6-0.5-2.2c0.1-0.1,0.1-0.2,0.1-0.3
				c0.2-0.5,0.6-1.3,1.7-1.3c0,0,0.1,0,0.1,0c0.3,0,0.6,0.1,0.8,0.1c0.1,0,0.3,0,0.4,0.1c-0.1-0.4,0-0.9,0.1-1.3
				c0.1-0.5,0.2-0.9,0-1c-0.5-0.4-1-0.9-1.2-1.6c0,0,0,0,0,0c-0.1,0-0.2,0-0.3,0c-0.1,0-0.2,0-0.2,0c-0.3,0-0.6-0.1-0.7-0.4
				c-0.1-0.3,0-0.7,0.3-1.1l0.2-0.2c0.2-0.2,0.7-0.8,0.6-0.9c-0.3-0.4-0.8-0.6-1.3-0.7c0,0.1,0,0.2-0.1,0.3c-0.1,0.5-0.3,1.4-1,1.6
				L40,7.6c-0.6,0.2-0.8,0.2-1,1.2C39,8.9,39,9,38.9,9.1c-0.2,0.2-0.8,0.9-1.5,0.9c-0.4,0-0.7-0.2-0.9-0.6c-0.1-0.2-0.2-0.4-0.3-0.6
				C36.2,8.5,36.1,8.1,36,8c-0.3,0-1.1,0.6-1.6,1c-1.1,0.8-1.6,1-1.9,1c0,0-0.1,0-0.1,0c0,0-0.1,0-0.1,0l-0.3,0
				c-0.2,0-0.6,0-0.9-0.4c-0.3-0.4-0.1-0.9,0-1.1c0.1-0.3,0.2-0.5,0.3-0.6c0.2-0.4,0.2-0.5,0.2-0.6c-0.3-0.9,2.2-2.9,2.2-3
				c0.2-0.1,0.2-0.3,0.1-0.5c0,0-0.1-0.1-0.1-0.1c-0.3-0.1-0.5-0.5-0.7-1c-0.1-0.2-0.2-0.4-0.4-0.6C32.4,2.5,32.2,2.8,32,3
				c-0.4,0.5-0.6,0.7-0.9,0.8c-0.1,0-0.2,0-0.3,0c-0.3,0-0.4,0-0.5,0.6c-0.1,0.3-0.1,0.6-0.1,0.8c0,0.3,0,0.9-0.6,0.9
				c-0.3,0-0.5-0.2-1-0.7c-0.7-0.7-1.1-0.8-1.2-0.9c-0.1,0.1-0.1,0.1-0.2,0.2c-0.4,0.5-1,1.2-1.7,1.2c-0.2,0-0.4-0.1-0.6-0.2
				c-1.3-1.4-2.5-2.8-3.6-4.4c-0.1-0.1-0.1-0.2-0.1-0.3V0.5c0-0.1,0.1-0.3,0.2-0.4C21.6,0.1,21.7,0,21.8,0c0,0,0,0,0,0
				c0.3,0,29,1,37,1c0.7,0,1.3,0,1.6,0c1.1-0.1,3.2-0.1,5.9-0.1c7.8,0,19.8,0.2,22.1,0.7c3.3,0.6,29.4,5.1,30.9,5.1
				c1.6,0,18.2,1.9,18.9,2c0.2,0,0.3,0.1,0.4,0.2c0.1,0.1,0.1,0.3,0,0.4c-1.9,4.7-19.1,45.6-20.5,47.3c-0.5,0.6-7.3,10.6-18.5,27.3
				l-0.3,0.4C99.4,84.6,99.2,84.7,99.1,84.7z"/>
			<path d="M21.8,0.5c0,0,29,1,37.1,1c0.7,0,1.3,0,1.6,0c1.1-0.1,3.2-0.1,5.9-0.1c7.7,0,19.7,0.2,22,0.7c3.1,0.6,29.4,5.1,31,5.1
				c1.6,0,18.9,2,18.9,2s-19,45.4-20.4,47.2c-0.6,0.8-9.1,13.3-18.5,27.3l-0.3,0.4L0.5,38.9c-0.3-0.1,0.5-0.2,0.7-0.3
				c1-0.6,1.8-1.5,2.3-2.5c0.2-0.7,0.4-0.8,0.6-0.8c0.1,0,0.2,0.1,0.2,0.1l1.9,0.5c0,0,3.1-5.3,3.2-6c0.1-0.7,2-6.2,2.8-6.7
				c0.8-0.4,1.5-4.4,2.3-4.4c0,0,0,0,0,0c0.8,0.1,16.8,7.6,16.8,7.6s0.8,3.3,0.2,4.3c-0.6,1-1.4,0-1.9,1.2s-1.9,4.3-1.6,5
				c0.2,0.9,0.8,1.7,1.6,2.2c1.5,1.2,2.4,2.4,2.4,3.3s0.5,3.2,1.1,3.3c0,0,0.1,0,0.1,0c0.4,0,0.6-0.6,1-0.6c0.1,0,0.1,0,0.2,0
				c0.6,0.2,1.1,1.5,1.6,1.7c0.4,0.2,1,0.5,1.4,0.7c0.4,0.8,0.7,1.6,0.8,2.5c0-0.5,0.6-1.6,1.3-1.6c0.1,0,0.1,0,0.2,0
				c0.8,0.2,2.4,0.2,2.5,1.5c0.1,1.1,0.2,2.2,0.4,2.2c0,0,0.1,0,0.1-0.1c0.3-0.4,0.6-0.7,0.6-1.1S43,48.4,42.6,48
				c-0.4-0.3-0.4-1.3-0.8-1.6c-0.4-0.3-1.3-1.8-0.8-2.1s1.7-0.2,1.9-0.6c0.2-0.4-0.1-2.4,0.3-2.4s0.6-0.5,0.5-1.8
				c-0.1-1.2,0-4.2,0.8-4.2c0,0,0.1,0,0.1,0c0.2,0.1,0.4,0.1,0.6,0.1c0.7,0,1.2-0.4,1.2-0.6c0-0.3,0.4-6.2-0.3-6.4
				c-0.7-0.1-4.8-0.4-5-0.5c-0.2-0.1-0.6-1.4-1.3-1.4c0,0-0.1,0-0.1,0c0,0-0.1,0-0.1,0c-0.7,0-0.6-1.4-0.7-1.8
				c-0.2-0.7-0.4-1.3-0.6-2c0.1-0.1,1.1-0.3,1.6-0.3c0.1,0,0.2,0,0.3,0.1c0,0,0,0,0,0c0.1,0-0.5-4.5,0.3-4.9c0.8-0.4,1.7-0.7,1.5-1
				c-0.3-0.3-1-1.5-0.7-1.9c0.3-0.4,0.5-1.4,1.5-1.4c0,0,0.1,0,0.1,0c0.5,0,1,0.2,1.3,0.2c0.3,0,0.5-0.1,0.4-0.6
				c-0.2-0.9,0.7-2.1,0-2.7c-0.5-0.4-0.9-0.9-1.1-1.4c-0.1-0.2-0.3-0.3-0.5-0.3c-0.1,0-0.3,0-0.4,0.1c-0.1,0-0.1,0-0.1,0
				c-0.3,0-0.4-0.2,0-0.7c0.5-0.5,1.3-1.2,0.8-1.8c-0.5-0.6-1.2-0.9-1.9-0.9c-0.4,0.1-0.2,1.7-1,1.9c-0.8,0.3-1.3,0.2-1.6,1.7
				c0,0-0.6,0.8-1.1,0.8c-0.2,0-0.3-0.1-0.4-0.3c-0.4-0.8-0.5-1.7-1.1-1.7c0,0-0.1,0-0.1,0c-0.7,0.1-2.9,2-3.4,2c0,0,0,0,0,0
				c-0.1,0-0.1,0-0.2,0c-0.1,0-0.2,0-0.3,0c-0.4,0-0.7-0.1-0.4-0.7c0.4-1,0.5-1.2,0.4-1.5c-0.1-0.4,1.5-2,2-2.4
				c0.4-0.2,0.5-0.8,0.3-1.1c-0.1-0.1-0.1-0.2-0.2-0.2c-0.4-0.2-0.9-1.7-1.3-1.7c0,0,0,0,0,0c-0.4,0-1.3,1.4-1.6,1.5
				c-0.3,0.1-1-0.2-1.2,1c-0.1,0.8,0,1.3-0.2,1.3c-0.1,0-0.3-0.2-0.6-0.5c-0.8-0.8-1.3-1-1.6-1c-0.1,0-0.1,0-0.1,0
				c-0.2,0.1-1,1.4-1.7,1.4c-0.1,0-0.2,0-0.3-0.1C24,4,22.8,2.5,21.8,1V0.5 M21.8-0.5c-0.3,0-0.5,0.1-0.7,0.3
				c-0.2,0.2-0.3,0.4-0.3,0.7V1c0,0.2,0.1,0.4,0.2,0.6C22,3.1,23.3,4.6,24.6,6c0,0,0,0,0.1,0.1c0.3,0.2,0.6,0.4,1,0.4
				c0.9,0,1.5-0.7,2-1.3c0.2,0.1,0.4,0.3,0.7,0.6c0.5,0.5,0.8,0.8,1.3,0.8c0.4,0,1.1-0.2,1.1-1.4c0-0.2,0-0.4,0.1-0.7
				c0-0.1,0-0.1,0-0.2c0.1,0,0.3,0,0.5-0.1c0.4-0.1,0.7-0.4,1.1-0.9c0,0,0.1-0.1,0.1-0.1c0,0,0,0,0,0c0.2,0.4,0.4,0.7,0.7,1
				c-0.5,0.4-2.5,2.2-2.3,3.3c0,0.1-0.1,0.2-0.1,0.3c-0.1,0.2-0.2,0.4-0.3,0.7c-0.2,0.6-0.2,1.1,0.1,1.5c0.4,0.6,1.1,0.6,1.3,0.6
				l0.1,0l0.1,0c0,0,0,0,0,0c0,0,0,0,0,0c0.1,0,0.1,0,0.2,0c0.5,0,1.1-0.3,2.2-1.1c0.3-0.2,0.8-0.5,1.1-0.7c0,0.1,0.1,0.2,0.1,0.3
				c0.1,0.2,0.2,0.4,0.3,0.7c0.3,0.6,0.7,0.9,1.3,0.9c0.9,0,1.6-0.8,1.9-1.1c0.1-0.1,0.2-0.3,0.2-0.4c0.1-0.7,0.2-0.7,0.6-0.8
				c0.1,0,0.2-0.1,0.3-0.1c0.9-0.3,1.1-1.1,1.3-1.7c0.1,0.1,0.2,0.1,0.3,0.2c-0.1,0.1-0.3,0.3-0.4,0.4c-0.1,0.1-0.2,0.2-0.2,0.3
				c-0.6,0.7-0.6,1.3-0.4,1.7c0.2,0.4,0.6,0.7,1.1,0.7c0.1,0,0.2,0,0.3,0c0.3,0.5,0.7,1,1.1,1.4c0,0.1-0.1,0.4-0.1,0.6
				c-0.1,0.3-0.1,0.6-0.2,0.9c-0.2,0-0.4-0.1-0.6-0.1c-0.1,0-0.1,0-0.2,0c-1.4,0-1.9,1.1-2.2,1.6c0,0.1-0.1,0.2-0.1,0.2
				c-0.5,0.7-0.2,1.6,0.2,2.3c-0.2,0.1-0.4,0.2-0.6,0.3c-1,0.5-1.1,2-0.8,4.8c-0.5,0.1-1.2,0.3-1.5,0.5c-0.2,0.2-0.3,0.6-0.3,0.9
				c0.1,0.7,0.3,1.3,0.5,2l0,0c0,0.6,0.1,2.5,1.7,2.5c0,0,0.1,0,0.1,0c0.1,0.1,0.2,0.4,0.3,0.5c0.2,0.3,0.3,0.6,0.7,0.8
				c0.2,0.1,0.4,0.2,2.7,0.4c0.7,0.1,1.5,0.1,2.1,0.2c0.1,0.5,0.1,1.9,0,5c0,0,0,0,0,0.1c-0.1,0-0.1,0-0.2,0c-0.1,0-0.2,0-0.2,0
				c-0.2-0.1-0.3-0.1-0.5-0.1c-0.4,0-0.7,0.2-1,0.4c-1,1-0.8,4.5-0.8,4.8c0,0.4,0,0.7,0,0.8c-0.8,0.3-0.8,1.4-0.8,2.3
				c0,0.1,0,0.3,0,0.4c-0.1,0-0.2,0-0.2,0c-0.4,0.1-0.9,0.1-1.3,0.4c-0.4,0.2-0.6,0.6-0.6,1.1c-0.1,1,0.8,2.2,1.3,2.6
				c0,0.1,0.1,0.2,0.1,0.3c0,0.1,0,0.1,0.1,0.2c-0.3-0.1-0.6-0.1-0.9-0.2c-0.1,0-0.3,0-0.4-0.1c-0.1,0-0.3,0-0.4,0
				c-0.4,0-0.7,0.1-1,0.3c-0.1-0.2-0.2-0.4-0.3-0.6c-0.1-0.2-0.3-0.4-0.5-0.5c-0.1-0.1-0.3-0.1-0.5-0.2c-0.3-0.1-0.6-0.3-0.9-0.4
				c-0.1-0.1-0.2-0.3-0.3-0.4c-0.3-0.5-0.7-1-1.3-1.3c-0.2-0.1-0.4-0.1-0.5-0.1c-0.3,0-0.6,0.1-0.8,0.2c-0.2-0.6-0.4-1.5-0.4-2
				c0-1.5-1.5-3.1-2.8-4.1c0,0-0.1,0-0.1-0.1c-0.6-0.4-1-1-1.1-1.6c0,0,0-0.1,0-0.1c0-0.3,0.2-1.3,1.5-4.2l0-0.1c0,0,0,0,0,0
				c0,0,0,0,0.1,0c0.4,0,1.2-0.1,1.7-1c0.7-1.2,0.2-3.9-0.1-5c-0.1-0.3-0.3-0.5-0.5-0.7c-7.4-3.5-16.3-7.6-17.1-7.7c0,0-0.1,0-0.2,0
				c-1.1,0-1.5,1.2-2.2,2.9c-0.2,0.5-0.5,1.5-0.7,1.7c-1.3,0.9-3,6.4-3.2,7.3c-0.1,0.5-1.4,2.8-2.7,5l-1.1-0.3
				c-0.1-0.1-0.3-0.1-0.6-0.1c-0.4,0-1.2,0.2-1.5,1.4c-0.4,0.8-1,1.5-1.8,2c-0.1,0-0.1,0-0.2,0c-0.3,0.1-1,0.2-1.1,1
				c-0.1,0.4,0.2,0.9,0.6,1.1l98.5,45.2c0.1,0.1,0.3,0.1,0.4,0.1c0.3,0,0.6-0.2,0.8-0.4l0.3-0.4c11.2-16.7,18-26.6,18.5-27.2
				c1.5-1.8,17.4-39.9,20.6-47.5c0.1-0.3,0.1-0.6-0.1-0.9c-0.2-0.3-0.4-0.5-0.7-0.5c-1.8-0.2-17.4-2-19-2c-1.5,0-26.7-4.3-30.8-5.1
				c-2.5-0.5-14.7-0.7-22.2-0.7c-2.8,0-4.9,0-5.9,0.1c-0.3,0-0.9,0-1.6,0C50.9,0.5,22.1-0.5,21.8-0.5C21.8-0.5,21.8-0.5,21.8-0.5
				L21.8-0.5z"/>
		</g>
		<text transform="matrix(1 0 0 1 50.84 25.92)" class="st2 st3">双兴国</text>
		<text transform="matrix(1 0 0 1 50.84 52.32)" class="st2 st3">际社区</text>
	</g>
</g>
</svg>
