<?xml version="1.0" encoding="utf-8"?>
<!-- Generator: Adobe Illustrator 23.0.2, SVG Export Plug-In . SVG Version: 6.00 Build 0)  -->
<svg version="1.1" id="图层_1" xmlns="http://www.w3.org/2000/svg" xmlns:xlink="http://www.w3.org/1999/xlink" x="0px" y="0px"
	 viewBox="0 0 125.3 149.2" style="enable-background:new 0 0 125.3 149.2;" xml:space="preserve">
<style type="text/css">
	.st0{fill:#272C6A;}
	.st1{fill:#FFEDD2;stroke:#000000;stroke-miterlimit:10;}
	.st2{font-family:'STXingkai';}
	.st3{font-size:24px;}
</style>
<g>
	<g id="图层_1-2">
		<path class="st0" d="M74.8,6.2c0,0,2.5-0.7,2.8-0.4c0.3,0.3,3.9,4.2,4.4,3.9s0.6-0.7,0.8-0.6s0.7,1.1,1.2,1s0.9-1,1.4-0.8
			c1.2,0.8,2.3,1.8,3.3,2.8c0.6,0.7,2.6,1.8,2.9,1.5c0.6-0.4,1.2-0.7,1.9-0.9c0.3,0,1.3-1,1.7-0.8c0.7,0.1,1.4,0.3,2,0.7
			c0.9,0.6,1.7,1.9,2.4,2s1.6-0.2,1.7,0s0.3,1.7,0.6,1.2c0.2-0.4,1.2-1.6,1.3-1.9c0.3-0.8,0.7-1.6,1.3-2.3c0.4-0.2,1.6-1.4,1.6-1.8
			c-0.1-0.8,0-1.6,0.3-2.4c0.6-0.6,1.3-1,2.1-1.2c0.7-0.1,3.6-0.8,4.4-0.1s1,0.8,0.7,1.5c-0.2,0.8,0.1,1.6,0.7,2.1
			c0.3,0,1.9,0.8,1.4,1.4c-0.5,0.6-1.6,1.9-1.2,2.1c0.3,0.2,0.7,1.4,1.3,1.4s1-0.2,1.5,0.2s1.4,0.9,1.7,0.2s1.6,0.1,1.8,0.3
			s3.3,5.5,3.3,5.5s-2.1-0.9-2.4-0.6s-0.3,4.9-0.7,5s-1.6-0.8-2.3,0.9s-1.9,3.2-1.2,4s4.9,2.2,5.6,2.2s-4.6,0-4.6,1s0.6,3.7-0.1,4.2
			s-0.3,0.5-0.7,0.6s-1.1,1.2-1.4,1.4s-1.7,0.3-1.9,0s-0.9,1.2-0.5,2s-1.5,1.5-1.9,1.3s-1.7-1.2-1.7-0.7s3.3,3.4,2.7,8.2
			c-0.6,0.4-1.3,0.5-2,0.4c-1.1-0.2-2.3,0.1-2.3,0.4s-0.8,1.4-0.6,1.8s0.6,1,1.7,0.4l1.6,2.4c0,0-0.9-0.1-1,0.3s0.2,1-0.1,1.3
			s-0.6,1.5-1,2.2s0.5,1.6,0.5,2.2c-0.1,0.8-0.4,1.5-0.8,2.1c-0.4,0.7-0.8,1.4-1,2.1c-0.1,0.5-0.5,2-1,1.9s-3.2-1.2-3.6-1
			s-1,0.5-0.8,0.7s-0.4,2.5-0.2,2.8c0.7,1,1.6,1.9,2.5,2.7c1.1,0.9,3.6,3.2,3.6,3.2l-1.8,1.6c0,0-1.6-1.7-2.1-1.4s-1.2,0.7,0.1,1.8
			s1.9,1.5,1.6,1.9s-1.1,0.7-1.6,1.1s-0.1,1,0.1,1.9c0.3,0.7,0.5,1.4,0.6,2.2c-0.1,0.4,1.1,0.6,1.3,0.3s0.5-1.3,0.8-0.9
			s0.4,0.5,0.5,1s-2.9,11.6-2.9,11.6c-0.6-0.4-1.3-0.8-2-1c-0.4,0-0.9,1-0.9,1l-2.7-1.7l-1.9,1.7c0.4,0.3,0.7,0.6,0.9,1
			c0.2,0.4,0.6,1.8,1.1,1.8s1.5,0.8,1.3,1.3c-0.2,0.9-0.3,1.8-0.3,2.7c0.1,0.5-1.4,0.9-1.9,0.9h-1l-1.3,2.3c0.9,0.5,1.7,1,2.4,1.7
			c0.2,0.4,0.4,1.9,0.2,2.2s-1.7,1.3-1.3,1.3c0.6,0.4,1.2,0.8,1.7,1.3l-4.6,13.8l-0.6,4.7c-2.1,0.6-4.4,0.7-6.6,0.4
			c0.7,1.4,1.2,2.9,1.7,4.4c0,0.6,0.7,3.6,0.3,4.6s-0.2,1.9-0.7,2.4c-0.6,0.5-1.4,0.7-2.2,0.4c-0.7-0.4-5.8-1.5-5.8-1.5
			s0.4-3.1-0.2-3.8s-4.7-1.8-5.3-1.7s-2.1,0-2.8,0.7s-1.8,5.5-2.4,5.9s0.1,4.7-0.7,5.9c0,0-1.9-0.7-2.6-0.4c-1,0.2-2.1,0.3-3.2,0.2
			c-0.3-0.1-1.5-1.4-2.2-1.9s-3.9,0.1-4.5,0.1s-2.5-0.5-2.4-0.7s2.1-0.1,2.3-0.6s-0.4-0.7-0.7-1c-0.3-0.5-0.6-0.9-1-1.4
			c-0.3-0.3-1.2,0.5-1.5,0.3s-1.6,0.9-1.7,1.2s-0.5,1.9,0.3,1.9s1.9,0.3,2,0.7s1.1,1.4,0.9,1.9s0.4,0.5,0.8,0.5s-1.3,1.4-1.4,1.9
			s-2,0.6-2.1,0.3s-0.4-0.5,0.2-0.8s1.4-0.6,1.4-1s-0.2-1.6-0.5-1.9s-0.5,1.7-1,1.6s-1.8,0.6-2.1,0.1s-1.2-0.7-0.7-1.3s1.3-1,1-1.7
			s-1.1-1.9-1.1-1.9s-1.2,1.5-1.5,1.3s-2.3,0.7-2.2,0.8s0.5,2,0.3,2s-1.9,1-2.3,0.8s-0.5,1.6-0.5,2s-2,0.6-2.2,0.2s-0.5,0.4-1,0.2
			s-1.2-1-1.8-1c-1.3-0.2-2.6-0.3-3.9-0.3c-0.6,0.1-3.3-0.7-3.4-1.1s4.8-1.9,5.2-2.5s0.9-0.6,0.2-1.4s-2-1-1.8-1.6s1.3-0.1,1.3-0.6
			s-0.4-0.7-0.2-1c0.3-0.5,0.7-0.9,1.1-1.3c0.2-0.3,0.7-0.6,0.8-0.4s0.9,0.8,0.9,1.2s0,0.9,0.6,0.7s1.4-0.3,1.5-0.7s0.5-1,0.4-1.2
			s-0.5-0.4-0.4-0.6s1.1-0.6,1.3-0.9s0.7-1.1,1-1.2c0.3-0.1,0.4-0.4,0.4-0.6c0,0,0-0.1,0-0.1c-0.2-0.3-1.3-0.1-1.9-0.6
			s-0.6-2.2-1-2.3s-1.3,0.9-1.4,0.9s0.6,1-0.8,1.6s-2.3,0.6-2.6,0.3s0.4-0.5,1-0.7s1.9-1.2,1.6-1.3s-2.2-0.6-2.5-0.9
			s-1.9-1.4-2.9-1.3s-2.6,0.5-3,0.6s-0.6,0.7-1.9,0.4s-2.1,0.7-2.4,0.1s-2.2,0.3-1.9-0.7c0.4-0.8,0.9-1.6,1.5-2.3
			c0.3-0.4,0.9-0.9,0.7-1.8s-0.2-0.6,0.3-0.6s-0.1,2.2,0.6,2.2c0.7,0.1,1.3-1.5,1.2-1.8c-0.1-0.3,0.1-1,0.6-1s0.4,0.9,1.8-0.8
			c0.9-0.1,1.7-0.1,2.6,0.1c0.6,0.3,1.5,0.3,1.6-0.3s-0.2-1.2,0.1-1.6s0.3-0.6-0.2-0.6s-1-0.5-1.2-0.4s-0.4,1.1-0.7,1
			c-0.8,0-1.5,0-2.3-0.2c-0.4-0.2-1.8,0.7-2.1,0.5c-0.3-0.3-0.8-1-0.5-1.5s1.3-2.2,1.6-2.4c0.9-1.1,1.4-2.4,1.4-3.7
			c0.1-1.9,0.2-1.8,0.8-1.9s2-0.3,2.3,0s1.2,1.4,1.7,1.2s1-1,0.9-1.3s-0.5-1.3,0-1.9s7.2-0.3,7.2-0.4c-0.3-1.2-0.3-2.4-0.1-3.6
			c0,0-9.8-11-10.2-11.1c-0.6,0-1.2-0.1-1.9-0.3c-0.5-0.3-4.3-3-5.1-3.6s-4.1-1.1-4.8-1.6c-1.5-0.9-3.2-1.7-4.9-2.2
			c-1.7-0.1-3.4-0.4-5-0.7c-0.7-0.3-1.8,0.2-2.4-0.4s-2.3-1.6-2.6-2.1s0.3-2-0.4-2.9c-0.6-0.7-1.1-1.5-1.5-2.3
			c-0.1-0.5-0.7-0.8-0.7-0.8s-1.6,0.4-1.5,0s-1-1.9-1.1-2.2c-0.3-0.4-0.6-0.8-0.8-1.3c-0.1-0.3-0.6-2.2,0-2.7s0.8-3.3,0.9-3.8
			C2.1,72.8,2,71.4,1.6,70c-0.8-1.8-0.5-3.8,0.5-4.4c1-0.6,5.8-1.6,6.5-1.8c0.7-0.3,6.2-2.5,6.3-3.1s-0.7-2.6,0.1-3.2s1.8-1.8,1-2.2
			s-0.7-1.5-0.9-2.1c-0.1-0.8-0.1-1.7,0.1-2.5c0.2-0.4-0.4,0-1.4-1.1s-0.3,1.2-0.7,1s0-1.8-0.1-2.2c-0.1-0.6-0.2-1.1-0.4-1.7
			c-0.2-0.2,0.1-0.8,0.1-0.9s1.7,0.5,2.1,0.3c0.4-0.3,0.9-0.5,1.4-0.5c1.4-0.3,2.7-0.7,4-1.3c0.4-0.4,0.8,0.5,0.9,0
			s-0.6-2.1-0.1-2.8c0.7-1.4,1.4-2.8,1.9-4.3c0.2-0.8,0.7-1.4,1.5-1.7c0.9-0.3,1.7-0.7,2.4-1.4c0.4-0.4,1.3-4.7,2.5-4.8
			s1.3,1.5,1.8,1.7s1,1.4,0.5,1.4c-0.5,0-1.4,0.9-1.8,2c-0.4,1.2-0.5,2.1-0.8,2.2s1.1,1.6,1.1,1.8s-0.5,1-1,1s-1.5,1.2-1.4,1.8
			s1.1,0.5,1.5,0.8c0.6,0.8,1.4,1.4,2.2,1.9c1.1,0.4,1.1,1.2,1.4,1.2c0.8-0.3,1.6-0.5,2.5-0.6c0.9,0.1,1.9,0.1,2.8,0
			c0.7-0.2,2.2-0.8,2.7-1s1.9-1.2,2.1-1c0,1.8-0.7,3.6-1.8,5c0,0-0.3,0.6,1.6,1s0.7,1.6,0.4,1.8s-1.7,1.3-1.5,1.6s0.4,0.4,0.9,0.4
			s2.6-0.5,3.2-0.5c1,0,2-0.1,3-0.3c0.6-0.2,2.1-0.2,2.2-1.8c0.1-1,0.6-2,1.3-2.7c0.2-0.2,3.1-4.4,3-4.6c0.2-0.6,0-1.2-0.4-1.6
			c-0.6-0.8-0.8-1.8-0.7-2.7c0.4-0.5,0.8-1,1.3-1.4c0.2-0.2,0.3,0.6,0.6,0.6c0.3,0,0.6,0.1,0.8,0.3c0.1,0.2,0.1,0.7,0.4,0.4
			s0.9,0,0.9,0.3s0.8,0.7,1.3,0.6s0.8,0.6,1.9-0.1c1-0.7,2.1-1.2,3.3-1.3c0.8,0,1.7-0.5,2.5-0.5s0.4-0.8,0.4-1.1
			c0-0.3,0.2-2.8,0.3-3.4c0.2-1.1,0.5-2.1,0.9-3.1c0.6-1.3,1-2.7,1.1-4.1c0.1-1.1,0.1-2.3,0-3.5c-0.4-0.9-0.7-1.9-0.9-2.9
			c0-0.7,1-4.2,1.7-4.8S74.5,7.8,74.8,6.2z"/>
		<path class="st1" d="M74.8,1c0,0,2.5-0.7,2.8-0.4s3.9,4.2,4.4,3.9s0.6-0.7,0.8-0.6c0.3,0.1,0.7,1.1,1.2,1s0.9-1,1.4-0.8
			C86.6,5,87.7,6,88.7,7c0.6,0.7,2.6,1.8,2.9,1.5c0.6-0.4,1.2-0.7,1.9-0.9c0.3,0,1.3-1,1.7-0.8c0.7,0.1,1.4,0.3,2,0.7
			c0.9,0.6,1.7,2,2.4,2s1.6-0.2,1.7,0s0.3,1.7,0.6,1.2s1.2-1.6,1.3-1.9c0.3-0.8,0.7-1.6,1.3-2.3c0.4-0.2,1.6-1.4,1.6-1.8
			c-0.1-0.8,0-1.6,0.3-2.4c0.6-0.6,1.3-1,2.1-1.2c0.7-0.1,3.6-0.8,4.4-0.1s1,0.8,0.7,1.5c-0.2,0.8,0.1,1.6,0.7,2.1
			c0.3,0,1.9,0.8,1.4,1.4s-1.6,1.9-1.2,2.1c0.3,0.2,0.7,1.4,1.3,1.4s1-0.2,1.5,0.2s1.4,0.9,1.7,0.2s1.6,0.1,1.8,0.3s3.3,5.5,3.3,5.5
			s-2.1-0.9-2.4-0.6s-0.3,4.9-0.7,5s-1.6-0.8-2.3,0.9s-1.9,3.2-1.2,4s4.9,2.2,5.6,2.2s-4.6,0-4.6,1s0.6,3.7-0.1,4.2
			s-0.3,0.5-0.7,0.6s-1.1,1.2-1.4,1.4s-1.7,0.3-1.9,0s-0.9,1.2-0.5,2s-1.5,1.5-1.9,1.3s-1.7-1.2-1.7-0.7s3.3,3.4,2.7,8.2
			c-0.6,0.4-1.3,0.5-2,0.4c-1.1-0.2-2.3,0.1-2.3,0.4s-0.8,1.4-0.6,1.8s0.6,1,1.7,0.4l1.6,2.4c0,0-0.9-0.1-1,0.3s0.2,1-0.1,1.3
			s-0.6,1.5-1,2.2s0.5,1.6,0.5,2.2c-0.1,0.8-0.4,1.5-0.8,2.1c-0.4,0.7-0.8,1.4-1,2.1c-0.1,0.5-0.5,2-1,1.9s-3.2-1.2-3.6-1
			s-1,0.5-0.8,0.7s-0.4,2.5-0.2,2.8c0.7,1,1.6,1.9,2.5,2.7c1.1,0.9,3.6,3.2,3.6,3.2l-1.8,1.6c0,0-1.6-1.7-2.1-1.4s-1.2,0.7,0.1,1.8
			s1.9,1.5,1.6,1.9s-1.1,0.7-1.6,1.1s-0.1,1,0.1,1.9c0.3,0.7,0.5,1.4,0.6,2.2c-0.1,0.4,1.1,0.6,1.3,0.3s0.5-1.3,0.8-0.9
			s0.4,0.5,0.5,1s-2.9,11.6-2.9,11.6c-0.6-0.4-1.3-0.8-2-1c-0.4,0-0.9,1-0.9,1l-2.7-1.7l-1.9,1.7c0.4,0.3,0.7,0.6,0.9,1
			c0.2,0.4,0.6,1.8,1.1,1.8s1.5,0.8,1.3,1.3c-0.2,0.9-0.3,1.8-0.3,2.7c0.1,0.5-1.4,0.9-1.9,0.9h-1l-1.3,2.3c0.9,0.5,1.7,1,2.4,1.7
			c0.2,0.4,0.4,1.9,0.2,2.2s-1.7,1.3-1.3,1.3c0.6,0.4,1.2,0.8,1.7,1.3l-4.6,13.8l-0.6,4.7c-2.1,0.6-4.4,0.7-6.6,0.4
			c0.7,1.4,1.2,2.9,1.7,4.4c0,0.6,0.7,3.6,0.3,4.6s-0.2,1.9-0.7,2.4c-0.6,0.5-1.4,0.7-2.2,0.4c-0.7-0.4-5.8-1.5-5.8-1.5
			s0.4-3.1-0.2-3.8s-4.7-1.8-5.3-1.7s-2.1,0-2.8,0.7s-1.8,5.5-2.4,5.9s0.1,4.7-0.7,5.9c0,0-1.9-0.7-2.6-0.4c-1,0.2-2.1,0.3-3.2,0.2
			c-0.3-0.1-1.5-1.4-2.2-1.9s-3.9,0.1-4.5,0.1s-2.5-0.5-2.4-0.7s2.1-0.1,2.3-0.6s-0.4-0.7-0.7-1c-0.3-0.5-0.6-0.9-1-1.4
			c-0.3-0.3-1.2,0.5-1.5,0.3s-1.6,0.9-1.7,1.2s-0.5,1.9,0.3,1.9s1.9,0.3,2,0.7s1.1,1.4,0.9,1.9s0.4,0.5,0.8,0.5s-1.3,1.4-1.4,1.9
			s-2,0.6-2.1,0.3s-0.4-0.5,0.2-0.8s1.4-0.6,1.4-1s-0.2-1.6-0.5-1.9s-0.5,1.7-1,1.6s-1.8,0.6-2.1,0.1s-1.2-0.7-0.7-1.3s1.3-1,1-1.7
			s-1.1-1.9-1.1-1.9s-1.2,1.5-1.5,1.3s-2.3,0.7-2.2,0.8s0.5,2,0.3,2s-1.9,1-2.3,0.8s-0.5,1.6-0.5,2s-2,0.6-2.2,0.2s-0.5,0.4-1,0.2
			s-1.2-1-1.8-1c-1.3-0.2-2.6-0.3-3.9-0.3c-0.6,0.1-3.3-0.7-3.4-1.1s4.8-1.9,5.2-2.5s0.9-0.6,0.2-1.4s-2-1-1.8-1.6s1.3-0.1,1.3-0.6
			s-0.4-0.7-0.2-1c0.3-0.5,0.7-0.9,1.1-1.3c0.2-0.3,0.7-0.6,0.8-0.4s0.9,0.8,0.9,1.2s0,0.9,0.6,0.7s1.4-0.3,1.5-0.7s0.5-1,0.4-1.2
			s-0.5-0.4-0.4-0.6s1.1-0.6,1.3-0.9s0.7-1.1,1-1.2c0.3-0.1,0.4-0.4,0.4-0.6c0,0,0-0.1,0-0.1c-0.2-0.3-1.3-0.1-1.9-0.6
			s-0.6-2.2-1-2.3s-1.3,0.9-1.4,0.9s0.6,1-0.8,1.6s-2.3,0.6-2.6,0.3s0.4-0.5,1-0.7s1.9-1.2,1.6-1.3s-2.2-0.6-2.5-0.9
			s-1.9-1.4-2.9-1.3s-2.6,0.5-3,0.6s-0.6,0.7-1.9,0.4s-2.1,0.7-2.4,0.1s-2.2,0.3-1.9-0.7c0.4-0.8,0.9-1.6,1.5-2.3
			c0.3-0.4,0.9-0.9,0.7-1.8s-0.2-0.6,0.3-0.6s-0.1,2.2,0.6,2.2s1.3-1.5,1.2-1.8s0.1-1,0.6-1s0.4,0.9,1.8-0.8
			c0.9-0.1,1.7-0.1,2.6,0.1c0.6,0.3,1.5,0.3,1.6-0.3s-0.2-1.2,0.1-1.6s0.3-0.6-0.2-0.6s-1-0.5-1.2-0.4s-0.4,1.1-0.7,1
			c-0.8,0-1.5,0-2.3-0.2c-0.4-0.2-1.8,0.8-2.1,0.5s-0.8-1-0.5-1.5s1.3-2.2,1.6-2.4c0.9-1.1,1.4-2.4,1.4-3.7c0.1-1.9,0.2-1.8,0.8-1.9
			s2-0.3,2.3,0s1.2,1.4,1.7,1.2s1-1,0.9-1.3s-0.5-1.3,0-1.9s7.2-0.3,7.2-0.4c-0.3-1.2-0.3-2.4-0.1-3.6c0,0-9.8-11-10.2-11.1
			c-0.6,0-1.2-0.1-1.9-0.3c-0.5-0.3-4.3-3-5.1-3.6s-4.1-1.1-4.8-1.6c-1.5-0.9-3.2-1.7-4.9-2.2c-1.7-0.1-3.4-0.4-5-0.7
			c-0.7-0.3-1.8,0.2-2.4-0.4s-2.3-1.6-2.6-2.1s0.3-2-0.4-2.9c-0.6-0.7-1.1-1.5-1.5-2.3c-0.1-0.5-0.7-0.8-0.7-0.8s-1.6,0.4-1.5,0
			s-1-1.9-1.1-2.2c-0.3-0.4-0.6-0.8-0.8-1.3c-0.1-0.3-0.6-2.2,0-2.7s0.8-3.3,0.9-3.8c0.4-1.4,0.4-2.8-0.1-4.2
			c-0.8-1.8-0.5-3.8,0.5-4.4s5.8-1.6,6.5-1.8s6.2-2.5,6.3-3.1s-0.7-2.6,0.1-3.2s1.8-1.8,1-2.2s-0.7-1.5-0.9-2.1
			c-0.1-0.8-0.1-1.7,0.1-2.5c0.2-0.4-0.4,0-1.4-1.1s-0.3,1.2-0.7,1s0-1.8-0.1-2.2c-0.1-0.6-0.2-1.1-0.4-1.7
			c-0.2-0.2,0.1-0.8,0.1-0.9s1.7,0.5,2.1,0.3c0.4-0.3,0.9-0.5,1.4-0.5c1.4-0.3,2.7-0.7,4-1.3c0.4-0.4,0.8,0.5,0.9,0
			s-0.6-2.1-0.1-2.8c0.7-1.4,1.4-2.8,1.9-4.3c0.2-0.8,0.7-1.4,1.5-1.7c0.9-0.3,1.7-0.7,2.4-1.4c0.4-0.4,1.3-4.7,2.5-4.8
			s1.3,1.5,1.8,1.7s1,1.4,0.5,1.4s-1.4,0.9-1.8,2s-0.5,2.1-0.8,2.1s1.1,1.6,1.1,1.8s-0.5,1-1,1s-1.5,1.2-1.4,1.8s1.1,0.5,1.5,0.8
			c0.6,0.8,1.4,1.4,2.2,1.9c1.1,0.4,1.1,1.2,1.4,1.2c0.8-0.3,1.6-0.5,2.5-0.6c0.9,0.1,1.9,0.1,2.8,0c0.7-0.2,2.2-0.8,2.7-1
			s1.9-1.2,2.1-1c0,1.8-0.7,3.6-1.8,5c0,0-0.3,0.6,1.6,1s0.7,1.6,0.4,1.8s-1.7,1.3-1.5,1.6s0.4,0.4,0.9,0.4s2.6-0.5,3.2-0.5
			c1,0,2-0.1,3-0.3c0.6-0.2,2.1-0.2,2.2-1.8c0.1-1,0.6-2,1.3-2.7c0.2-0.2,3.1-4.4,3-4.6c0.2-0.6,0-1.2-0.4-1.6
			c-0.6-0.8-0.8-1.8-0.7-2.7c0.4-0.5,0.8-1,1.3-1.4c0.2-0.1,0.3,0.6,0.6,0.6c0.3,0,0.6,0.1,0.8,0.3c0.1,0.2,0.1,0.7,0.4,0.4
			s0.9,0,0.9,0.3s0.8,0.7,1.3,0.6s0.8,0.6,1.9-0.1c1-0.7,2.1-1.2,3.3-1.3c0.8,0,1.7-0.5,2.5-0.5s0.4-0.8,0.4-1.1s0.2-2.8,0.3-3.4
			c0.2-1.1,0.5-2.1,0.9-3.1c0.6-1.3,1-2.7,1.1-4.1c0.1-1.1,0.1-2.3,0-3.5c-0.4-0.9-0.7-1.9-0.9-2.9c0-0.7,1-4.2,1.7-4.8
			S74.5,2.6,74.8,1z"/>
		<text transform="matrix(1 0 0 1 8.54 78.53)" class="st2 st3">文庙社区</text>
	</g>
</g>
</svg>
