<?xml version="1.0" encoding="utf-8"?>
<!-- Generator: Adobe Illustrator 23.0.2, SVG Export Plug-In . SVG Version: 6.00 Build 0)  -->
<svg version="1.1" id="图层_1" xmlns="http://www.w3.org/2000/svg" xmlns:xlink="http://www.w3.org/1999/xlink" x="0px" y="0px"
	 viewBox="0 0 149.3 142.4" style="enable-background:new 0 0 149.3 142.4;" xml:space="preserve">
<style type="text/css">
	.st0{fill:#272C6A;}
	.st1{fill:#D2FFDD;stroke:#000000;stroke-linejoin:round;stroke-miterlimit:10;}
	.st2{font-family:'STXingkai';}
	.st3{font-size:21px;}
</style>
<g>
	<g id="图层_1-2">
		<path class="st0" d="M42.2,7.6c0,0-2.1,2.7-1.9,3.4s0.2,0.7,0.9,0.7s1.6-0.4,2.2-0.3s2.2,0.5,2.2-0.1s0.3-0.9,0.8-0.9
			s0.9,0,1.1,0.3c0.1,0.3,0.4,1.4,0,1.9c-0.5,0.6-1.3,0.9-2,0.6c-0.9-0.3-1.3,0.2-1.5,0.1c-0.2-0.1-0.4-0.3-0.6-0.2
			c-0.5,0.4-1.1,0.7-1.7,1h-0.3c-0.3,0-0.6,1.1-0.8,1.7s0,1-0.2,1s-0.6,0.3-0.8,0s0.4-2.4,0-2.5s-1,0-1,0.2s0.3,0.7,0,1.4
			c-0.3,0.8,0.2,0.9,0,1.1c-0.3,0.2-0.7,0.4-1.1,0.6c-0.4,0.2-1.7,1.1-0.3,1.4s1.7,0.3,1.9,0.5c0.2,0.2,1.5,0,2.1,0s1.3,0.6,1.4,0.1
			s0-0.8,0.5-0.8s1-0.3,1.6-0.3s1.1-0.6,1.4-0.4c0.4,0.3,0.9,0.6,1.4,0.8c0.3,0.1,1.5,0.8,1.7,0.9c0.2,0.1,2.2,0.6,2.1,0.7
			s-1.2,1.5-1.8,1.4s-1.1,0-1.1,0.2s0,0.6,0.6,0.6s2.2,0.1,2.5-0.5s0.8-1,0.8-1.5c0.1-0.4,0.4-0.8,0.8-1c0.2,0,0.4,1.9,1.2,2.2
			s1.5,0.7,1.8,0.6s-0.3,1.5-1.3,2.1s-1,1.1-0.8,1.2s-0.2,1.6-0.7,1.7c-0.4,0-0.8,0.1-1.1,0.3c-0.3,0.2-0.6-0.3-0.8-0.9
			s-0.7-1-0.9-1c-0.4,0.2-0.7,0.5-1,0.8c-0.5,0.4-1,1.1-0.7,1.4s0.5,0.6,0.3,0.6s-1.5,0.1-1.6,0.5s1.5,1.1,1.8,1.5s0.9,0.4,0.5,0.9
			c-0.4,0.5-1,0.9-1.6,1.1c-0.5,0.3-1,0.5-1.6,0.7c-0.3,0-1.7,1-2.1,0.8c-0.4-0.2-0.3,1.1,0.8,1.3c0.8,0.3,1.7,0.5,2.5,0.5
			c1.5-0.1,3,0.1,4.4,0.7c1.2,0.7,1.3,0.5,1.8,0.4c0.6-0.1,1.2,0,1.8,0.1c0.5,0.1,0.8,0.1,0.6-0.5s-0.2-1.7,0.3-1.8
			c0.5-0.1,2.4-0.1,2.3-0.8c-0.2-0.7-0.3-1.3-0.4-2c0.1-0.3,2.3-0.3,2.3-0.7s1.8-1.7,1.9-1.3s0.7,1.4,0.7,1.7
			c-0.1,0.3,0.3,0.4-1,1.7c0,0-0.8,2,0.6,1.4c0.7-0.4,1.6-0.4,2.3,0c0,0,1.4-0.1,1.3,0.3c-0.1,0.4-1.9,1.2-1.6,1.3
			c0.3,0.1,1.8,0.5,2.2,0s0.8-1.4,1.6-1.5c0.8-0.1-0.4-0.3-1-0.6c-0.6-0.3,0.2-1.4-0.4-1.8c-0.4-0.2-0.8-0.5-1.1-0.9
			c-0.3-0.4-0.6,0.2-1.2,0s-0.5-1.5-0.6-1.9s1.7-1.1,1.8-1.3s0.2,0,0.9-0.1s0.8-0.3,0.9,0s1.1,0.9,0.8,1.4s2.2,0.9,0.4,1.2
			s-2.4-0.4-2.3,0.1s1.8,1.1,2.3,0.9c0.8-0.3,1.6-0.4,2.4-0.4c0.4,0.1,1.9-0.1,2.2,0.1C74.6,32,75,34,76.2,34
			c0.9,0.1,1.8,0.1,2.7-0.1c1.2-0.1,2.4,0,3.5,0.4c0.4,0.4,3.2,5.3,3.1,6.2c-0.3,2.2-0.8,4.4-1.6,6.5c-0.6,1.7-1.1,3.4-1.3,5.2
			c-0.3,1.6-0.9,3.1-1.9,4.5c-1,1.2-1,3-1.3,4s-5.8,20.5-5.8,20.5l6.3,2l-2.3,7c0.4,0.2,0.8,0.5,1,0.9c0.4,0.7,0.2,1.7,0.8,1.7
			s1.6-0.1,1.9,0.4s0.6,1.5,1.1,1.2c0.5-0.3,1.2-0.4,1.8-0.3c0.4,0.2,8.6,3.8,10.8,3.9s1.8,0.9,2.4,0.9c0.6-0.1,1.3-0.1,1.9,0
			c1,0.2,6.2,2.5,6.2,2.5l2.3-3.9c0.7,0.4,1.3,0.8,2,1.2c0.3,0.1,1.1-0.7,1.7-0.4s0.4,1.3,0.9,1.3s2.1,0,2.1-0.5s0.7-4.4,1.1-4.2
			s6.4,3.3,6.7,3.6s1.9,3.1,3,3c1.1-0.1,1.6,0.5,2.2,0.4s2.2-2.7,2.2-2.7c0.8-0.3,1.7-0.5,2.6-0.4c1.9-0.1,2.9-2,3.8-1.9
			s1.8-0.8,2.1-0.1s1,1.2,1.2,1.9s-1.7,2.5-0.6,3.3c0.9,0.8,2.2,1.1,3.4,0.9c0.9-0.1,1.7-0.1,2.6,0.1c0,0-1,0.8-0.7,1.7
			s-0.1,2.3,0.7,2.4s1.6-1,1.9,0c0.7,1.4,0.4,3.1-0.7,4.2c-1.6,1.8-1.3,2.2-2.8,1.9s-4.7-0.7-5.3,0.7s1.1,3.3,1.8,4.6
			s1.3,1.3,1.6,2.1s0.1,2.4,1.8,2.8c1.2,0.1,2.2,1.1,2.3,2.3c0,0.8,2,2,1.7,2.8c-0.3,0.8-2,4-1.7,4.8s-1.6,4.1-1.3,5.2
			s-1.9,5.7-2.4,5.8c-0.7,0.2-1.4,0.2-2.1,0c-0.9-0.2-2.5,3.3-2.5,3.3l-14-8.1c0,0,1.2-2.5,0.2-2.9s-1.2-0.7-1.9-0.1s-1.4-0.9-1.8-1
			s-0.3,0.9-1.6-0.1s-1.5-1.1-1.3-1.6s0.8-1,0-1.5c-1.2-0.7-2.5-1.3-3.9-1.7c-0.5,0-1.5,1.2-1.9,0.9c-0.4-0.3,0.1-1.6-0.1-1.9
			c-1.1-0.6-2.1-1.1-3.3-1.6c-0.2-0.1,2.7-3.4,1.5-4s-7.7-2.8-7.7-2.8s-2.4,4.6-3.5,5s-1.6-0.1-1.8-0.8c-0.1-0.6-0.8-1-1.4-0.9
			c-0.1,0-0.3,0.1-0.4,0.2c-0.7,0.5-1.3,1.3-1.6,2.1c-0.1,0.3,0.2,1.3-0.7,1.6c-0.9,0.3-2.1,0.7-2,1s-0.6,2.3-1,2.3
			s-2.4-1.2-4.1-0.8c-1.7,0.4-1.3-0.9-0.7-3.3c0.6-2.4-0.9,1.4-1.2,1.4s-1.6-0.8-1.8-0.8s0.8-2.1,0.8-2.1s1.7-0.4,0.8-1
			s-2.3-0.7-2.9-1.2s-2.8-1.5-2.8-2s-0.9-1.3-0.6-2.3s-0.8-1.4-1.3-1.5s-1.6-0.8-1.9-0.5c-0.3,0.7-0.3,1.6-0.2,2.3
			c0.2,0.5,1.3,3.9,1.3,4.3s0.5,1.5-0.3,2.1s-1.3,1.4-2,1.1c-0.6-0.3-1.2-0.6-1.8-0.9c-0.7-0.1-1.4-0.1-2.1,0.1
			c-0.4,0.1-1.3,0.2-1.4,0.8s0.6,1.8,0.4,2.3s-1.1-0.4-2,1.3c0,0-1.5,0.1-1.7,1.3s0.2,1.1-0.7,1.7s-0.8,1.3-1.9,0.8
			s-0.8-1.6-1.1-1.6s-1,0.7-1.3,0.6s-0.4-0.3-1,0c-0.6,0.5-1.3,0.9-2,1.3c-0.3,0-1,0.3-0.4-0.8c0.3-0.4,0.3-1-0.1-1.3
			c-0.1-0.1-0.3-0.2-0.5-0.2c-0.3,0-0.8-0.4-0.7-0.7c-0.2-0.7-0.5-1.4-1-1.9c-0.4-0.3-2.5-2.6-2.3-2.9s0.9-0.3,1.3-0.4
			s0.8-0.4,0.6-0.6s-2-1.8-1.9-2.2c0.1-0.5,0.5-0.9,1-1.1c0.6-0.2,1.2-0.3,1.4-0.6s-0.4-1.2-0.8-1.3c-0.5-0.2-1-0.5-1.3-0.9
			c0-0.2-0.2-0.4-0.4-0.3c0,0,0,0,0,0c-0.3,0-1.2,1.1-1.8-0.2s0.3-1.9,0.6-2s0.7-0.3,0.7-0.4s0.2,0.6,0.6,0.5s1.5,0.1,2.2-0.7
			s1.8-0.6,1.5-1.6s-1.3-1.8-0.9-2.2c0.4-0.7,0.7-1.4,0.9-2.2c0-0.3,0.6-0.2,0.9-0.2s0.5-0.6,0.5-1s0.6-0.2,0.7-0.2s1.2-0.3,0.8-0.6
			S55,108.2,55,108c-0.6-1.1-1.1-2.2-1.5-3.4c-0.5-1.7-1.2-3.3-2-4.8c-0.3-0.3,0.1-1.8,0.2-2c0.3-0.7,0.5-1.4,0.6-2.2
			c0.3-0.8,0.6-1.7,1-2.5c-0.2-0.9,0.1-1.8,0.8-2.4c0.1-0.6,0.3-1.2,0.5-1.7c0.3-0.2-1.4-1.2-1.4-1.2s-1.3,0.8-2.2,0.4
			s-0.2-0.8-0.8-1.2s-1.6-1-1.8-1.6c-0.1-0.9-0.3-1.8-0.6-2.7c-0.3-0.4-1-0.3-1.7-0.1s-0.2-0.4-0.7-1.4s-1.4-2.4-2.5-2.7
			c-0.1-0.5-0.5-0.8-0.9-0.9c-0.8-0.2-0.7-1.1-2.2-0.9s-1-0.4-1.4-0.5s-2-0.3-2.1-0.6s-0.9-0.7-0.8-1.1s-0.9-1.1-0.8-1.4
			s-1.5-0.8-1.7-0.8s-2.2-1.2-2.4-1.2s-2,0.9-3.1,0.2s-3.4-2.4-3.6-2.6c-0.8-0.6-1.5-1.4-2-2.3c-0.2-0.6-2.5-3.6-2.8-3.6
			s-1,0.5-1,0.4s-0.5-3-1-3.2s0.3-0.7,1-0.9c0.8-0.5,1.2-1.4,1-2.4c-0.1-1-0.1-1.6-1.2-2s-1.4,0.1-1.9-0.1c-0.6-0.2-0.5,0-0.7-0.1
			s-5.6-3.2-6-3.3S7.4,50,7,49.9c-0.6,0-1-0.5-1.1-1.1c-0.1-0.7-0.4-1.3-0.8-1.9c-0.1-0.1-1.4-2.3-1.6-2.5s-0.1-0.9-0.2-1.3
			c-0.1-0.6-0.1-1.1,0-1.7c0-0.9-0.6-1.7-1.5-1.9c0,0,0.4,1,0,1.3s-1.1-0.3-1.7-1.2c-0.3-0.4-0.7-0.7-1.1-1c-0.1-0.5,0.1-1,0.5-1.2
			c0.5-0.5,0.8-1.1,1-1.7c0-0.2,1-0.8,1.4-0.9c0.4-0.1,0.7-0.3,1-0.6c0.6-0.3,1.3-0.3,1.9-0.1c0.9,0.5,1.8,0.7,2.8,0.6
			c1.3,0,2.7-0.1,4-0.5c0.9-0.4,2.6-0.1,3.2-0.3c1.2-0.2,2.3-0.5,3.5-0.8c0.7-0.3,2,0,2-0.9c0-0.9-0.2-1.5-0.2-2.1s0.3-0.8,0.7-1.5
			c0.4-0.9,0.5-2,0.2-2.9c-0.6-1.3-0.6-2.8-0.1-4.2c0.7-1.7,0.7-1.7,0.7-2.1c0-0.5,0.9-0.6,1.2-0.9c0.3-0.2,0.3-0.6,0.1-0.9
			c0-0.1-0.1-0.1-0.1-0.1c-0.4-0.3-1.1-0.9-0.4-1.6s1.2-0.6,1.3-1.9s1.1-1.6,1.3-1.9s0.7-1.4,1.5-1.5c0.8-0.1,2.8-0.4,3.2-0.5
			c0.4-0.1,1.9-0.2,2.6-0.3c0.6-0.1,2.6-0.5,2.6-0.7s-0.5-1.7,0.5-2.1c1-0.4,2-0.6,3.1-0.7c0.7,0,1.9-0.2,2,0s0.2,0.9,0.7,1
			C41.4,7.4,42.2,7.6,42.2,7.6z"/>
		<path class="st1" d="M43.8,1.9c0,0-2.1,2.7-1.9,3.4s0.2,0.7,0.9,0.7s1.6-0.4,2.2-0.3s2.2,0.5,2.2-0.1s0.3-0.9,0.8-0.9
			s0.9,0,1.1,0.3s0.4,1.4,0,1.9c-0.5,0.6-1.3,0.9-2,0.6c-0.9-0.3-1.3,0.2-1.5,0.1S45.2,7.4,45,7.4c-0.5,0.4-1.1,0.7-1.7,1H43
			c-0.3,0-0.6,1.1-0.8,1.7s0,1-0.2,1s-0.6,0.3-0.8,0s0.4-2.4,0-2.5s-1,0-1,0.2s0.3,0.7,0,1.4s0.2,0.9,0,1.1
			c-0.3,0.2-0.7,0.4-1.1,0.6c-0.4,0.2-1.7,1.1-0.3,1.4s1.7,0.3,1.9,0.5s1.5,0,2.1,0s1.3,0.6,1.4,0.1s0-0.8,0.5-0.8s1-0.3,1.6-0.3
			s1.1-0.6,1.4-0.4c0.4,0.3,0.9,0.6,1.4,0.8c0.3,0.1,1.5,0.8,1.7,0.9s2.2,0.6,2.1,0.7s-1.2,1.5-1.8,1.4s-1.1,0-1.1,0.2
			s0,0.6,0.6,0.6s2.2,0.1,2.5-0.5s0.8-1,0.8-1.5c0.1-0.4,0.4-0.8,0.8-1c0.2,0,0.4,1.9,1.2,2.2s1.5,0.7,1.8,0.6s-0.3,1.5-1.3,2.1
			s-1,1.1-0.8,1.2s-0.2,1.6-0.7,1.7c-0.4,0-0.8,0.1-1.1,0.3c-0.3,0.2-0.6-0.3-0.8-0.9s-0.7-1-0.9-1c-0.4,0.2-0.7,0.5-1,0.8
			c-0.5,0.4-1,1.1-0.7,1.4s0.5,0.6,0.3,0.6s-1.5,0.1-1.6,0.5s1.5,1.1,1.8,1.5s0.9,0.4,0.5,0.9c-0.4,0.5-1,0.9-1.6,1.1
			c-0.5,0.3-1,0.5-1.6,0.7c-0.3,0-1.7,1-2.1,0.8s-0.3,1.1,0.8,1.3c0.8,0.3,1.7,0.5,2.5,0.5c1.5-0.1,3,0.1,4.4,0.7
			c1.2,0.7,1.3,0.5,1.8,0.4c0.6-0.1,1.2,0,1.8,0.1c0.5,0.1,0.8,0.1,0.6-0.5s-0.2-1.7,0.3-1.8s2.4-0.1,2.3-0.9
			c-0.2-0.7-0.3-1.3-0.4-2c0.1-0.3,2.3-0.3,2.3-0.7s1.8-1.7,1.9-1.3s0.7,1.4,0.7,1.7s0.3,0.4-1,1.7c0,0-0.8,2,0.6,1.4
			c0.7-0.4,1.6-0.4,2.3,0c0,0,1.4-0.1,1.3,0.3s-1.9,1.2-1.6,1.3s1.8,0.5,2.2,0s0.8-1.4,1.6-1.5s-0.4-0.3-1-0.6s0.2-1.4-0.4-1.8
			c-0.4-0.2-0.8-0.5-1.1-0.9c-0.3-0.4-0.6,0.2-1.2,0s-0.5-1.5-0.6-1.9s1.7-1.1,1.8-1.3s0.2,0,0.9-0.1s0.8-0.3,0.9,0s1.1,0.9,0.8,1.4
			s2.2,0.9,0.4,1.2s-2.4-0.4-2.3,0.1s1.8,1.1,2.3,0.9c0.8-0.3,1.6-0.4,2.4-0.4c0.4,0.1,1.9-0.1,2.2,0.1s0.7,2.2,1.9,2.2
			c0.9,0.1,1.8,0.1,2.7-0.1c1.2-0.1,2.4,0,3.5,0.4c0.4,0.4,3.2,5.3,3.1,6.2c-0.3,2.2-0.8,4.4-1.6,6.5c-0.6,1.7-1.1,3.4-1.3,5.2
			c-0.3,1.6-0.9,3.1-1.9,4.5c-1,1.2-1,3-1.3,4s-5.8,20.5-5.8,20.5l6.3,2l-2.3,7c0.4,0.2,0.8,0.5,1,0.9c0.4,0.7,0.2,1.7,0.8,1.7
			s1.6-0.1,1.9,0.4s0.6,1.5,1.1,1.2c0.5-0.3,1.2-0.4,1.8-0.3c0.4,0.2,8.6,3.8,10.8,3.9s1.8,0.9,2.4,0.9c0.6-0.1,1.3-0.1,1.9,0
			c1,0.2,6.2,2.5,6.2,2.5l2.3-3.9c0.7,0.4,1.3,0.8,2,1.2c0.3,0.1,1.1-0.7,1.7-0.4s0.4,1.3,0.9,1.3s2.1,0,2.1-0.5s0.7-4.4,1.1-4.2
			s6.4,3.3,6.7,3.6s1.9,3.1,3,3c1.1-0.1,1.6,0.5,2.2,0.4s2.2-2.7,2.2-2.7c0.8-0.3,1.7-0.5,2.6-0.4c1.9-0.1,2.9-2,3.8-1.9
			s1.8-0.8,2.1-0.1s1,1.2,1.2,1.9s-1.7,2.5-0.6,3.3c0.9,0.8,2.2,1.1,3.4,0.9c0.9-0.1,1.7-0.1,2.6,0.1c0,0-1,0.8-0.7,1.7
			s-0.1,2.3,0.7,2.4s1.6-1,1.9,0c0.7,1.4,0.4,3.1-0.7,4.2c-1.6,1.8-1.3,2.2-2.8,1.9s-4.7-0.7-5.3,0.7s1.1,3.3,1.8,4.6
			s1.3,1.3,1.6,2.1s0.1,2.4,1.8,2.8c1.2,0.1,2.2,1.1,2.3,2.3c0,0.8,2,2,1.7,2.8s-2,4-1.7,4.8s-1.6,4.1-1.3,5.2s-1.9,5.7-2.4,5.8
			c-0.7,0.2-1.4,0.2-2.1,0c-0.9-0.2-2.5,3.3-2.5,3.3l-14-8.1c0,0,1.2-2.5,0.2-2.9s-1.2-0.7-1.9-0.1s-1.4-0.9-1.8-1s-0.3,0.9-1.6-0.1
			s-1.5-1.1-1.3-1.6s0.8-1,0-1.5c-1.2-0.7-2.5-1.3-3.9-1.7c-0.5,0-1.5,1.2-1.9,0.9s0.1-1.6-0.1-1.9c-1.1-0.6-2.1-1.1-3.3-1.6
			c-0.2-0.1,2.7-3.4,1.5-4s-7.7-2.8-7.7-2.8s-2.4,4.6-3.5,5s-1.6-0.1-1.8-0.8c-0.1-0.6-0.8-1-1.4-0.9c-0.1,0-0.3,0.1-0.4,0.2
			c-0.7,0.5-1.3,1.3-1.6,2.1c-0.1,0.3,0.2,1.3-0.7,1.6s-2.1,0.7-2,1s-0.6,2.3-1,2.3s-2.4-1.2-4.1-0.8s-1.3-0.9-0.7-3.3
			s-0.9,1.4-1.2,1.4s-1.6-0.8-1.8-0.8s0.8-2.1,0.8-2.1s1.7-0.4,0.8-1s-2.3-0.7-2.9-1.2s-2.8-1.5-2.8-2s-0.9-1.3-0.6-2.3
			s-0.8-1.4-1.3-1.5s-1.6-0.8-1.9-0.5c-0.3,0.7-0.3,1.6-0.2,2.3c0.2,0.5,1.3,3.9,1.3,4.3s0.5,1.5-0.3,2.1s-1.3,1.4-2,1.1
			c-0.6-0.3-1.2-0.6-1.8-0.9c-0.7-0.1-1.4-0.1-2.1,0.1c-0.4,0.1-1.3,0.2-1.4,0.8s0.6,1.8,0.4,2.3s-1.1-0.4-2,1.3
			c0,0-1.5,0.1-1.7,1.3s0.2,1.1-0.7,1.7c-0.9,0.5-0.8,1.3-1.9,0.8s-0.8-1.6-1.1-1.6s-1,0.7-1.3,0.6s-0.4-0.3-1,0
			c-0.6,0.5-1.3,0.9-2,1.3c-0.3,0-1,0.3-0.4-0.8c0.3-0.4,0.3-1-0.1-1.3c-0.1-0.1-0.3-0.2-0.5-0.2c-0.3,0-0.8-0.4-0.7-0.7
			c-0.2-0.7-0.5-1.4-1-1.9c-0.4-0.3-2.5-2.6-2.3-2.9s0.9-0.3,1.3-0.4s0.8-0.4,0.6-0.6s-2-1.8-1.9-2.2c0.1-0.5,0.5-0.9,1-1.1
			c0.6-0.2,1.2-0.3,1.4-0.6s-0.4-1.2-0.8-1.3c-0.5-0.2-1-0.5-1.3-0.9c0-0.2-0.2-0.4-0.4-0.3c0,0,0,0,0,0c-0.3,0-1.2,1.1-1.8-0.2
			s0.3-1.9,0.6-2s0.7-0.3,0.7-0.4s0.2,0.6,0.6,0.5s1.5,0.1,2.2-0.7s1.8-0.6,1.5-1.6s-1.3-1.8-0.9-2.2c0.4-0.7,0.7-1.4,0.9-2.2
			c0-0.3,0.6-0.2,0.9-0.2s0.5-0.6,0.5-1s0.6-0.2,0.7-0.2s1.2-0.3,0.8-0.6s-2.1-0.4-2.2-0.6c-0.6-1.1-1.1-2.2-1.5-3.4
			c-0.5-1.7-1.2-3.3-2-4.8c-0.3-0.3,0.1-1.8,0.2-2c0.3-0.7,0.5-1.4,0.6-2.2c0.3-0.8,0.6-1.7,1-2.5c-0.2-0.9,0.1-1.8,0.8-2.4
			c0.1-0.6,0.3-1.2,0.5-1.7c0.3-0.2-1.4-1.2-1.4-1.2s-1.3,0.8-2.2,0.4s-0.2-0.8-0.8-1.2s-1.6-1-1.8-1.6c-0.1-0.9-0.3-1.8-0.6-2.7
			c-0.3-0.4-1-0.3-1.7-0.1s-0.2-0.4-0.7-1.4s-1.4-2.4-2.5-2.7c-0.1-0.5-0.5-0.8-0.9-0.9c-0.8-0.2-0.7-1.1-2.2-0.9s-1-0.4-1.4-0.5
			s-2-0.3-2.1-0.6s-0.9-0.7-0.8-1.1s-0.9-1.1-0.8-1.4s-1.5-0.8-1.7-0.8s-2.2-1.2-2.4-1.2s-2,0.9-3.1,0.2s-3.4-2.4-3.6-2.6
			c-0.8-0.6-1.5-1.4-2-2.3C23,60,20.7,57,20.4,57s-1,0.5-1,0.4s-0.5-3-1-3.2s0.3-0.7,1-0.9c0.8-0.5,1.2-1.4,1-2.4
			c-0.1-1-0.1-1.6-1.2-2s-1.4,0.1-1.9-0.1s-0.5,0-0.7-0.1s-5.6-3.2-6-3.3S9,44.3,8.6,44.2c-0.6,0-1-0.5-1.1-1.1
			c-0.1-0.7-0.4-1.3-0.8-1.9c-0.1-0.1-1.4-2.3-1.6-2.5S5,37.9,4.9,37.5c-0.1-0.6-0.1-1.1,0-1.7c0-0.9-0.6-1.7-1.5-1.9
			c0,0,0.4,1,0,1.3S2.3,34.8,1.7,34c-0.3-0.4-0.7-0.7-1.1-1c-0.1-0.5,0.1-1,0.4-1.2c0.5-0.5,0.8-1.1,1-1.7c0-0.2,1-0.8,1.4-0.9
			c0.4-0.1,0.7-0.3,1-0.6c0.6-0.3,1.3-0.3,1.9-0.1c0.9,0.5,1.8,0.7,2.8,0.6c1.3,0,2.7-0.1,3.9-0.5c0.9-0.4,2.6-0.1,3.2-0.3
			c1.2-0.2,2.3-0.5,3.5-0.8c0.7-0.3,2,0,2-0.9s-0.2-1.5-0.2-2.1s0.3-0.8,0.7-1.5c0.4-0.9,0.5-2,0.2-2.9c-0.6-1.3-0.6-2.8-0.1-4.2
			c0.7-1.7,0.7-1.7,0.7-2.1s0.9-0.6,1.2-0.9c0.3-0.2,0.3-0.6,0.1-0.9c0-0.1-0.1-0.1-0.1-0.1c-0.4-0.3-1.1-0.9-0.4-1.6
			s1.2-0.6,1.3-1.9s1.1-1.6,1.3-1.9S27,5,27.8,4.9s2.8-0.4,3.2-0.5s1.9-0.2,2.6-0.3s2.6-0.5,2.6-0.7s-0.5-1.8,0.5-2.1
			c1-0.4,2-0.6,3.1-0.7c0.7,0,1.9-0.2,2,0s0.2,0.9,0.7,1S43.8,1.9,43.8,1.9z"/>
		<text transform="matrix(1 0 0 1 38.02 53.32)" class="st2 st3">王</text>
		<text transform="matrix(1 0 0 1 38.02 78.52)" class="st2 st3">   家</text>
		<text transform="matrix(1 0 0 1 38.02 103.72)" class="st2 st3">     场</text>
	</g>
</g>
</svg>
