<?xml version="1.0" encoding="utf-8"?>
<!-- Generator: Adobe Illustrator 23.0.2, SVG Export Plug-In . SVG Version: 6.00 Build 0)  -->
<svg version="1.1" id="图层_1" xmlns="http://www.w3.org/2000/svg" xmlns:xlink="http://www.w3.org/1999/xlink" x="0px" y="0px"
	 viewBox="0 0 135.4 211.3" style="enable-background:new 0 0 135.4 211.3;" xml:space="preserve">
<style type="text/css">
	.st0{fill:#272C6A;}
	.st1{fill:#FFD2D4;stroke:#000000;stroke-miterlimit:10;}
	.st2{font-family:'STXingkai';}
	.st3{font-size:30px;}
</style>
<g>
	<g id="图层_1-2">
		<path class="st0" d="M23.6,128.2c-0.6,0.5-1,1.2-1.1,2c0,0.7-0.4,1.3-1.1,1.4c-0.6,0-1.1-0.2-1.3,0.1s0.4,1.2,0.4,1.6
			s-0.3,1.9,0.6,2.3c0.6,0.4,1.3,0.7,2,1c0.6,0.1,0.9,1.4,0.4,1.8s-0.9,1.7-1.1,1.9s-1.1,0.6-1.3,1.4s-1.9,0.6-2.1,0.3
			s-3.9-0.2-4.6,0.6s3.1,6.1,3.1,6.4s0.1,1.8,0.5,2.3c0.4,0.6,1.1,1,1.8,1.1c0.8,0,1.7,0.4,1.7,1s1,3.4,1.7,3.8s-3.2,7.6-3.1,9.2
			s0.1,1.9-0.1,2.3c-0.8,1.3-1.5,2.6-2.1,4c-0.1,0.7,0,0.6-0.2,1.1c-0.3,0.6-0.7,1.3-1.1,1.9c-0.1,0-1.1,1.1,0.2,1.1s2.1,0.8,2,1.1
			s-2.4,1.2-2.1,1.6c0.9,0.7,1.8,1.3,2.7,1.7c0.4,0.1,2.3,1.2,3.9,1s7-1.7,9.4-0.6c1.2,0.1,2.4-0.5,3.1-1.5c0.9-0.1,1.8,0.5,2.1,1.4
			c0.6,1.5,3.2,5.5,3.8,5.9c1.2,0.9,2.2,2,3.1,3.3c0.3,0.7,3.7,5.2,4.1,5.2s1.5-1.3,1.9-1.1s1.8-1,2.2-0.9s1,1.3,1.8,1.5
			s0.3,1.2,1.7,0.4c0,0,0.5,0.1,1.6,1.6s4,2.1,4.2,2.4s2.9,1.8,3.7,2.9c0.4-0.1,4.7,0,4.7,0s6,2.6,7.5,5.4s3.2,6.5,6.2,6.3
			c0,0,0.6-1.2,1.7-0.6c0.2-0.3,0.6-0.4,0.9-0.3c0.4,0.1,0.7,0.5,0.6,0.9c0,0,0,0,0,0c0,0.4,0,0.5,0.4,0.5s2.8-5,2.8-5
			s0.1-0.4-0.8-0.3s-2.7-1.6-2.1-3c0.5-1,1.3-1.7,2.3-2c0.4-0.2,1.4-3,1.6-3s2.5,0.8,2.5,0.8s7.6-16.5,7.8-16.6s0.3-1,1.1-0.5
			l0.8,0.5l0,0l15.2,7c0,0,0.7,3.7,0.3,4.2s-1.9,0.3-2.3,1.2s-0.3,1.7-0.6,2.3c-0.3,0.8-0.5,1.6-0.6,2.4c0,0.6,0.2,1.8,2.6,3.6
			c0.9,1.3,1.5,2.8,1.7,4.4c0,0,0.5,1.8,1.4,0.8s1.4,0.1,1.5,0.4s0.9,1.3,1.5,1.3s1.1,1.9,1.5,2s0.4,0.3,0.9,0s1.6-0.6,1.9-0.4
			c0.6,0.4,1.1,0.9,1.6,1.4c0,0.1,0.3,2.3,0.4,2.1s0.9-2.3,0.1-3.2c-0.8-1.3-1.4-2.7-1.9-4.2c0-0.3,1.6-0.4,1.7-0.7
			c0.1-0.8,0.2-1.6,0.4-2.4c0.6-0.6,0.8-1.4,0.6-2.2c-0.1-1.4,0-4.3,0.8-4.1s1.8,0.3,1.8-0.4s0.3-6.2,0-6.3s-5-0.5-5.1-0.6
			s-0.6-1.4-1.7-1.3s-0.7-1.8-0.7-1.9c0-0.6-0.1-1.2-0.3-1.8c-0.3-0.4,1.2-0.8,1.5-0.6s0-4.1,0.2-4.3s1.6-1.6,1.7-1.5
			s-1.2-1-0.9-1.9s1-1.5,1.5-1.4s1.8,0.3,1.8-0.5c0.1-0.8,0.1-1.6,0.1-2.4c-0.1-0.1-0.9-1.4-1.1-1.5s-1.1,0.1-1.3-0.1
			s0.2-0.4,0.4-0.9s0.9-1.4,0.6-1.7s-0.6-1.3-2.1-0.8c0,0-0.2,1.7-1,1.9s-1,0.4-1.3,1.5s-1.7,1-1.9,0.5s-0.2-1.9-0.9-1.6
			s-3.4,2.2-3.7,2.1s-1.2-0.6-1-1s1.1-1.1,0.8-1.4s1.4-1.6,1.6-1.9s1-1,0.5-1.7s-1.1-2.1-1.4-2.1s-1.2,1.5-1.4,1.5
			c-0.7-0.1-1.4,0.4-1.5,1.1c0,0.1,0,0.2,0,0.3c0,0,0.6,0.6,0.2,0.8c-0.4,0.2-0.9,0.1-1.1-0.3c-0.2-0.4-1.5-1.4-1.6-1.1
			s-1.1,1.5-1.8,1.2s-3.6-4.6-3.8-4.6s-15.8-1.1-20-2.3s-21.9-5.3-28.7-10.5l13.9-21.6l9.1,2.1l12.4-0.7c0,0-0.6-2.8-0.3-3.2
			s1.3-0.8,1.3-1.2c0-0.4-0.4-4.5,0-5.1c0.3-0.6,0.8-1,1.4-1.1c0.6,0,1.6-0.8,1.3-1.1s-0.8-1.6-0.6-2.1c0.3-0.6,0.2-1.3-0.2-1.8
			c-0.4-0.6,0.3-1.7,0.3-2.2s-1.2-0.6-1.2-1.5s-0.4-0.7-1-1.7c-0.6-1.5-1.8-2.7-3.3-3.3c-2.2-0.8-1.5-1.3-2.2-0.8s-0.6,0.8-1.1,0.8
			s-2.9-0.1-3,0.3l-0.6,0.2c0.2-0.6-1.8-2.8-2.4-3.3s-0.4-2.1-0.8-2.3c-0.6-0.5-1.3-0.9-2-1.2c-0.3,0-5.9-6.2-6.7-6.7
			s-0.6-2.3-1.1-2.6s-0.9,0.9-3.6-0.8s-1-3.2-0.6-3.8s1.4-0.9,1.9-1.5s0.1-1.2-0.2-1.9s0.4-1.2,0.6-2s-0.9-1.3-0.6-1.4
			s0.7-1.6,0.7-2.1s1.2-1.6,1.3-1.8c0.8-1.5,0.9-3.3,0.2-4.8c-0.8-2.1-0.9-4.4-0.3-6.6c0.3-1.8,2.6-3.4,2.9-3.6
			c0.4-0.2,1.7-0.8,1.7-1.3s1.5-0.4,1.8-0.2s1.9-1.3,1.9-1.1s1.6,0.9,1.5,1.4s0.9,1.6,1.3,1.6c0.8,0.3,1.5,0.8,2.2,1.3
			c0.7,0.3,1.5,0.3,2.2,0c0.4-0.2,0.4-1.2-0.1-2.1s0.7-1.1,1-1.1s1.9,0.5,2.5,0.5s0-0.6,2.4-0.3s4.7-1,3.8-0.9s-1.4-0.8-1.8-1.1
			s0.6-1.4,0.6-1.8s0.8-0.8,1.5-1.1s0.9-1.5,0.8-2.1s-1.9-1.3-3.3-2.8s-0.4-1.6-0.2-2.3c0.2-0.4,0.2-0.9,0.1-1.3
			c0-1.3,0.2-2.5,0.7-3.7c0.5-1.7-0.8-3.6-1-4.2s-1-1.3-1.7-0.8s-0.8-0.2-1.2-0.6s-1.6-0.7-2-1.3s-1.7-3.4-2.1-3.9s-0.6,0.1-1-0.2
			s-0.5-3.9-0.4-4.5s-0.7-2.6-0.9-4.3s0.4-1.3,0.7-2.4c0.3-1.1-2.3-3.6-2.3-3.6s-1.4,0.6-2.2,0.9c-0.8,0.3-0.1,0.7-1.1,1.1
			c-0.9,0.5-1.7,0.2-2.7,0.3c-0.9,0-1.8-0.4-2.4-1.1c-0.4-0.3-1.4,0.1-2.3,0.9s-1.3,0.5-1.2,0.1s-0.5-1-0.5-1.3s-2.1-1.6-1.8-2.1
			s-1.3-0.6-1.6-0.8c-0.3-0.3-1.9,0.2-2.4,0.1c-0.5-0.1-1.6,0.4-2.3,0.3c-0.7-0.1,0,0-1.9,1.2c-1.4,0.7-3,0.8-4.5,0.3L55,16.6
			l-2.8,2.8l-2.5-2l-2.4,2.3c-0.8-0.5-1.5-1-2.2-1.6c-0.8-0.7,0.5-1.1,0.5-1.4s2.9-3.9,3-4.2s0.3-2.2,0.3-2.2l-4.7-1.9
			c0,0-2.8,6.8-3.6,6.9c-0.8,0.1-1.4,0.7-2,0.8c-0.6,0.1-3.5-1.5-3.5-1.5S28,30.1,27.8,30.1S16,25.8,15.5,25.6s-0.6,0-1.9,1.1
			S8.2,43.4,7.9,43.9s-2.1,0.1-3.2,1s0.2,3.2,0.3,4.2s-2.4,7.5-4,11.1s0.5,3.5,0.5,3.5s14,4,16.1,4.7s2.8,1.7,4,2.4s1.5-0.1,1.9-0.3
			s6.4-11.2,6.5-11.1c0.4,0.8,0.7,1.6,1,2.5c-1.8,1-13,32.2-13.4,32.8s0.8,1.1,0.9,1.7s-2.8,7.7-3.3,8.8s1.8,0.8,1.9,1.2
			s1.3-0.6,2.2-0.4s2.5,2.4,2.1,3.1c-0.3,0.6-1,0.9-1.7,0.6c0,0-0.1,0-0.1-0.1c-1.6-1-3.2-1.8-4.9-2.6c-0.8-0.2-0.1,1.1-0.3,1.8
			s0.6,1.4,1,2s1.8,0,1.9,1.2c0.3,1.3,1,2.5,2,3.3c0.7,0.4,0.7,3.4,0.3,4.1s-0.6,1.7,0.3,2.1s3.8,5.8,3.8,5.8S23.8,128.1,23.6,128.2
			z"/>
		<path class="st1" d="M23.6,120.4c-0.6,0.5-1,1.2-1.1,2c0,0.7-0.4,1.3-1.1,1.4c-0.6,0-1.1-0.2-1.3,0.1s0.4,1.2,0.4,1.6
			s-0.3,1.9,0.6,2.3c0.6,0.4,1.3,0.7,2,1c0.6,0.1,0.9,1.4,0.4,1.8s-0.9,1.7-1.1,1.9s-1.1,0.6-1.3,1.4s-1.9,0.6-2.1,0.3
			s-3.9-0.2-4.6,0.6s3.1,6.1,3.1,6.4s0.1,1.8,0.5,2.3c0.4,0.6,1.1,1,1.8,1.1c0.8,0,1.7,0.4,1.7,1s1,3.4,1.7,3.8s-3.2,7.6-3.1,9.2
			s0.1,1.9-0.1,2.3c-0.8,1.3-1.5,2.6-2.1,4c-0.1,0.7,0,0.6-0.2,1.1c-0.3,0.6-0.7,1.3-1.1,1.9c-0.1,0-1.1,1.1,0.2,1.1s2.1,0.8,2,1.1
			s-2.4,1.2-2.1,1.6c0.9,0.7,1.8,1.3,2.7,1.7c0.4,0.1,2.3,1.2,3.9,1s7-1.7,9.4-0.6c1.2,0.1,2.4-0.5,3.1-1.5c0.9-0.1,1.8,0.5,2.1,1.4
			c0.6,1.5,3.2,5.5,3.8,5.9c1.2,0.9,2.2,2,3.1,3.3c0.3,0.7,3.7,5.2,4.1,5.2s1.5-1.3,1.9-1.1s1.8-1,2.2-0.9s1,1.3,1.8,1.5
			s0.3,1.2,1.7,0.4c0,0,0.5,0.1,1.6,1.6s4,2.1,4.2,2.4s2.9,1.8,3.7,2.9c0.4-0.1,4.7,0,4.7,0s6,2.6,7.5,5.4s3.2,6.5,6.2,6.3
			c0,0,0.6-1.2,1.7-0.6c0.2-0.3,0.6-0.4,0.9-0.3c0.4,0.1,0.7,0.5,0.6,0.9c0,0,0,0,0,0c0,0.4,0,0.5,0.4,0.5s2.8-5,2.8-5
			s0.1-0.4-0.8-0.3s-2.7-1.6-2.1-3c0.5-1,1.3-1.7,2.3-2c0.4-0.2,1.4-3,1.6-3s2.5,0.8,2.5,0.8s7.6-16.5,7.8-16.6s0.3-1,1.1-0.5
			l0.8,0.5l0,0l15.2,7c0,0,0.7,3.7,0.3,4.2s-1.9,0.3-2.3,1.2s-0.3,1.7-0.6,2.3c-0.3,0.8-0.5,1.6-0.6,2.4c0,0.6,0.2,1.8,2.6,3.6
			c0.9,1.3,1.5,2.8,1.7,4.4c0,0,0.5,1.8,1.4,0.8s1.4,0.1,1.5,0.4s0.9,1.3,1.5,1.3s1.1,1.9,1.5,2s0.4,0.3,0.9,0s1.6-0.6,1.9-0.4
			c0.6,0.4,1.1,0.9,1.6,1.4c0,0.1,0.3,2.3,0.4,2.1s0.9-2.3,0.1-3.2c-0.8-1.3-1.4-2.7-1.9-4.2c0-0.3,1.6-0.4,1.7-0.7
			c0.1-0.8,0.2-1.6,0.4-2.4c0.6-0.6,0.8-1.4,0.6-2.2c-0.1-1.4,0-4.3,0.8-4.1s1.8,0.3,1.8-0.4s0.3-6.2,0-6.3s-5-0.5-5.1-0.6
			s-0.6-1.4-1.7-1.3s-0.7-1.8-0.7-1.9c0-0.6-0.1-1.2-0.3-1.8c-0.3-0.4,1.2-0.8,1.5-0.6s0-4.1,0.2-4.3s1.6-1.6,1.7-1.5
			s-1.2-1-0.9-1.9s1-1.5,1.5-1.4s1.8,0.3,1.8-0.5c0.1-0.8,0.1-1.6,0.1-2.4c-0.1-0.1-0.9-1.4-1.1-1.5s-1.1,0.1-1.3-0.1
			s0.2-0.4,0.4-0.9s0.9-1.4,0.6-1.7s-0.6-1.3-2.1-0.8c0,0-0.2,1.7-1,1.9s-1,0.4-1.3,1.5s-1.7,1-1.9,0.5s-0.2-1.9-0.9-1.6
			s-3.4,2.2-3.7,2.1s-1.2-0.6-1-1s1.1-1.1,0.8-1.4s1.4-1.6,1.6-1.9s1-1,0.5-1.7s-1.1-2.1-1.4-2.1s-1.2,1.5-1.4,1.5
			c-0.7-0.1-1.4,0.4-1.5,1.1c0,0.1,0,0.2,0,0.3c0,0,0.6,0.6,0.2,0.8c-0.4,0.2-0.9,0.1-1.1-0.3c-0.2-0.4-1.5-1.4-1.6-1.1
			s-1.1,1.5-1.8,1.2s-3.6-4.6-3.8-4.6s-15.8-1.1-20-2.3s-21.9-5.3-28.7-10.5l13.9-21.6l9.1,2.1l12.4-0.7c0,0-0.6-2.8-0.3-3.2
			s1.3-0.8,1.3-1.2s-0.4-4.5,0-5.1c0.3-0.6,0.8-1,1.4-1.1c0.6,0,1.6-0.8,1.3-1.1s-0.8-1.6-0.6-2.1c0.3-0.6,0.2-1.3-0.2-1.8
			c-0.4-0.6,0.3-1.7,0.3-2.2s-1.2-0.6-1.2-1.5s-0.4-0.7-1-1.7c-0.6-1.5-1.8-2.7-3.3-3.3c-2.2-0.8-1.5-1.3-2.2-0.8s-0.6,0.8-1.1,0.8
			s-2.9-0.1-3,0.3l-0.6,0.2c0.2-0.6-1.8-2.8-2.4-3.3s-0.4-2.1-0.8-2.3c-0.6-0.5-1.3-0.9-2-1.2c-0.3,0-5.9-6.2-6.7-6.7
			s-0.6-2.3-1.1-2.6s-0.9,0.9-3.6-0.8s-1-3.2-0.6-3.8s1.4-0.9,1.9-1.5s0.1-1.2-0.2-1.9s0.4-1.2,0.6-2S71.7,75,72,74.9
			s0.7-1.6,0.7-2.1s1.2-1.6,1.3-1.8c0.8-1.5,0.9-3.3,0.2-4.8c-0.8-2.1-0.9-4.4-0.3-6.5c0.3-1.8,2.6-3.4,2.9-3.6s1.7-0.8,1.7-1.3
			s1.5-0.4,1.8-0.2s1.9-1.3,1.9-1.1s1.6,0.9,1.5,1.4s0.9,1.6,1.3,1.6c0.8,0.3,1.5,0.8,2.2,1.3c0.7,0.3,1.5,0.3,2.2,0
			c0.4-0.2,0.4-1.2-0.1-2.1s0.7-1.1,1-1.1s1.9,0.5,2.5,0.5s0-0.6,2.4-0.3s4.7-1,3.8-0.9s-1.4-0.8-1.8-1.1S98,51.4,98,51
			s0.8-0.8,1.5-1.1s0.9-1.5,0.8-2.1S98.4,46.4,97,45s-0.4-1.6-0.2-2.3c0.2-0.4,0.2-0.9,0.1-1.3c0-1.3,0.2-2.5,0.7-3.7
			c0.5-1.7-0.8-3.6-1-4.2s-1-1.3-1.7-0.8s-0.8-0.2-1.2-0.6s-1.6-0.7-2-1.3s-1.7-3.4-2.1-3.9s-0.6,0.1-1-0.2s-0.5-3.9-0.4-4.5
			s-0.7-2.6-0.9-4.3s0.4-1.3,0.7-2.4s-2.3-3.6-2.3-3.6s-1.4,0.6-2.2,0.9s-0.1,0.7-1.1,1.1s-1.7,0.2-2.7,0.3c-0.9,0-1.8-0.4-2.4-1.1
			c-0.4-0.3-1.4,0.1-2.3,0.9s-1.3,0.4-1.2,0.1s-0.5-1-0.5-1.3s-2.1-1.6-1.8-2.1s-1.3-0.6-1.6-0.8s-1.9,0.2-2.4,0.1s-1.6,0.4-2.3,0.3
			s0,0-1.9,1.2c-1.4,0.7-3,0.8-4.5,0.3L55,8.8l-2.8,2.8l-2.5-2l-2.4,2.3c-0.8-0.5-1.5-1-2.2-1.6c-0.8-0.7,0.5-1.1,0.5-1.4
			s2.9-3.9,3-4.2s0.3-2.2,0.3-2.2l-4.7-1.9c0,0-2.8,6.8-3.6,6.9s-1.4,0.7-2,0.8s-3.5-1.5-3.5-1.5S28,22.3,27.8,22.3
			S16,17.9,15.5,17.8s-0.6,0-1.9,1.1S8.2,35.5,7.9,36.1s-2.1,0.1-3.2,1s0.2,3.2,0.3,4.2s-2.4,7.5-4,11.1s0.5,3.5,0.5,3.5
			s14,4,16.1,4.7s2.8,1.7,4,2.4s1.5-0.1,1.9-0.3s6.4-11.2,6.5-11.1c0.4,0.8,0.7,1.6,1,2.5c-1.8,1-13,32.2-13.4,32.8s0.8,1.1,0.9,1.7
			s-2.8,7.7-3.3,8.8s1.8,0.8,1.9,1.2s1.3-0.6,2.2-0.4s2.5,2.4,2.1,3.1c-0.3,0.6-1,0.9-1.7,0.6c0,0-0.1,0-0.1-0.1
			c-1.6-1-3.2-1.8-4.9-2.6c-0.8-0.2-0.1,1.1-0.3,1.8s0.6,1.4,1,2s1.8,0,1.9,1.2c0.3,1.3,1,2.5,2,3.3c0.7,0.4,0.7,3.4,0.3,4.1
			s-0.6,1.7,0.3,2.1s3.8,5.8,3.8,5.8S23.8,120.3,23.6,120.4z"/>
		<text transform="matrix(1 0 0 1 35.14 91.81)" class="st2 st3">长</text>
		<text transform="matrix(1 0 0 1 35.14 127.81)" class="st2 st3">埂</text>
	</g>
</g>
</svg>
