<?xml version="1.0" encoding="utf-8"?>
<!-- Generator: Adobe Illustrator 23.0.2, SVG Export Plug-In . SVG Version: 6.00 Build 0)  -->
<svg version="1.1" id="图层_1" xmlns="http://www.w3.org/2000/svg" xmlns:xlink="http://www.w3.org/1999/xlink" x="0px" y="0px"
	 viewBox="0 0 201.1 169.8" style="enable-background:new 0 0 201.1 169.8;" xml:space="preserve">
<style type="text/css">
	.st0{fill:#272C6A;}
	.st1{fill:#FFEDD2;}
	.st2{font-family:'STXingkai';}
	.st3{font-size:30px;}
</style>
<g>
	<g id="图层_1-2_2_">
		<path class="st0" d="M199.7,77.2l-98.5-45.3c-0.1-0.1-0.3,0-0.3,0.1c0,0,0,0.1,0,0.1c0,0.8-0.1,2.7,0.4,3.2
			c1.3,1.5,2.3,0.7,2.4,1.2s-2.9,5-2.9,5l-0.4-0.7c-0.4-0.7,0.1,0.3-1.3-0.3S97.3,41,97.3,41c-3,0.2-5-3.8-5.2-4.4
			c-0.5-1.2-1.1-2.4-1.9-3.5c-2-1.5-4.2-2.8-6.4-3.9c-1.6-0.1-3.2-0.1-4.8,0c-1.2,0-1.1-1.3-1.6-1.6c-1.7-1-3.4-1.8-5.2-2.6
			c-1.2-0.5-1.8-2.2-2.2-2.6s-0.4,0.2-1.5,0.3s-2.3-2.3-2.5-2.5c-0.2-0.2-1.7,1.2-1.8,1.2c-0.6,0.4-1.3,0.7-2,0.9
			c-0.8,0.2-0.3-0.8-1.4-1.3c-1.2-0.5-0.2-1.2-4.4-5.5s-5-6.7-5.4-7.7c-0.4-0.8-1.1-1.3-1.9-1.4c-0.5-0.1-1.8,1.9-2.4,2
			c-0.6,0.1-1.6-1.6-5.6-0.5s-4.6,0.4-6.4,0.5C32.9,8.5,30.4,6,30,5.9c-0.4-0.2-1.3,0.9-2,1.3c-0.7,0.4-0.3,0.8,0.3,1.4
			s-0.3,1.5,0.6,2.2s2.9,1.1,3.1,1.6c0.3,0.7,0.7,1.3,1.1,1.9c0.3,0.3,1.3,0.7,1.7,1.5c0.3,0.8-0.2,1.8-0.5,1.8s-1.2-1.1-1.2-1.5
			c0-0.4-0.3-1.2-1.1-1.1c-0.8,0.1-2.1,1.3-2.4,1s-1.3-0.5-1.8-0.6s-0.9,0.6-1.4,1.3c-0.5,0.6-0.2,1.6-0.7,1.7
			c-0.5,0.2-1,0.5-1.5,0.8c-0.7,0.5-1.5,0.7-2.4,0.8c-0.9,0-1.9,0.1-2.8,0.4c-0.8,0.1-0.1,1.4,0.1,1.7s1.7-0.5,2-0.4
			c0.6,0.1,1.2,0.3,1.8,0.5c0.3,0.2,2.2-1.1,2.4-1.1c0.5,0.6,0.9,1.2,1.2,1.9c-0.1,0.4-0.1,0.9,0.1,1.3c0.3,0.7-0.5,1.3-0.5,1.8
			s1.3,1,1.7,1.4s-0.7,1-0.6,1.8s1,1.9,1,2.7c0,0.8,0.7,0.5-1.1,1.2s-6.9,8.1-7.6,8.6s-1.5,3.1-2.1,2.8s-2.4,0.8-3.2,1
			s-1.2,1.5-1,2.2s0.8,1.5,0.7,2.2s1.4,3,1.4,3l-2.1,3.1l6.1,3.5c-0.8,1.1-4,7.6-4.3,8.2s-2.5,0.7-2.1,0.9c0.4,0.3,0.5,3,0.5,3.8
			s1.7,0.3,1.7,0.3s0.3,1.1-1.3,1.5s-4.7,4.7-5,4.8S0,95,0,95l21.8,11.2c0,0,14.1-24.6,14.4-24.3c0.6,0.3,1.2,0.4,1.8,0.4
			c0.7,0,1.9,0.3,2.3,0.3s6-2.8,6.3-2.7s1.4-2.5,1.8-2.4s1.2,1.6,0.9,0.4c-0.2-0.7,0.3-1.5,1-1.7c0.2,0,1.3-0.1,1.7-0.1
			s-0.7-1.2-0.7-1.2l1-0.9c0.6,1.3,1.3,0,1.7,0.2s0.3,1.2,0.3,1.7s1.8,0.7,1.8,0.7l0.3-0.8l4.2,1.4c-0.4,0.5,0.1,1.2,0.5,1.4
			c0.5,0.2,1.1,0.3,1.6,0.2c0.4,0,0.6-1.9,0.6-1.9l1.2,0.7c-0.4,1.3-0.1,1.2,0.6,1.4s1.8,1.9,1.9,2s-4.7,9-4.8,9.4s1.6,1.5,2.1,1.9
			c0.4,0.4,3.3-2.8,3.6-2.8s1,1.4,1,1.9c0.1,0.9,0.4,1.8,0.9,2.6c0.4,0.6,1.3,3.2,1.7,3.9s1.7,0.8,1.7,0.8c-0.8,1.5-1.4,3-2,4.5
			c0,0.3,2.8,1.5,4,1.9s0.6,2.1,0.6,2.1c1,1.6-0.8,1.4-0.2,1.9s0.5,1.6,0.6,2.2s-0.7,1.1-1.8,1.4c-0.8,0.1-1.5,0-2.2-0.4
			c-0.5-0.2-1.4,0.4-2.2,0.5s-1.1,2.1-0.9,2.3v0.1c-0.8-0.1-0.6-0.4-1.1-0.4s-0.5,1.9-0.3,2.2c0.7,0.3,1.5,0.5,2.3,0.5h4.5l0.1,1.7
			c-0.4,0-0.7,0-1.1,0c-0.2,0-0.1,6.9-0.1,7.4s-1,0.2-1.6,0.3s-1.6,1.1-1.8,1.6c-0.2,0.4,1.7,0.3,2.4,0.8s-0.2,0.8-0.4,1.4
			s0.3,2.8,0.4,1.7c0.1-1.1,1.1-1,1.6-0.7s1.2-0.7,1.3-0.3s-0.3,1.3,0.2,1.9s-0.1,1.4-0.2,2s0.5,2.1,1,2.1s0.2,1.1,0.4,2.1
			s-1.2,1.2-1.7,1.1s-0.4-2-0.4-2.3s-1.7,0.3-1.9,0.3s-0.3,1.5,0.3,2.3s2.7,0.4,2.5,0.7c-0.1,0.6-0.1,1.2,0,1.7
			c0.1,0.4-0.8,1.6-1.4,2.3s-0.8,0.4-1.5,0.3s-1.3,0.8-1.6,1.6s-0.2,1-1.4,1.4s-1.1,2.2-0.7,2.3s0.6-0.3,0.9,0s-0.2,0.4-0.7,1.2
			s-0.4,0.5-2.1,1.2s-0.4,0.4,0.2,0.9c0.4,0.4,0.5,1,0.1,1.4c-0.1,0.1-0.1,0.1-0.2,0.2c-0.4,0.2,1.1,1.1,1.3,1.3s2,0.1,2.5,0.3
			c0.4,0.3,0.8,0.6,1.1,1c0.3-0.4,0.7-0.7,1.1-1c0.2-0.1,0.6-1.7,1.3-2.1c2.2-0.8,4.4-1.3,6.7-1.6c0.7-0.1,1.4-0.2,2.1-0.4
			c0.6,0,5.5-2.9,6-2.7s0.3,2.5,0.4,3.3s0.1,2.2,1.3,2.7s1.2-0.4,1.5-0.3s-0.1,1.6,0.3,1.8c0.8,0.4,1.5,0.9,2.2,1.4
			c0.6,0.4,0.4,1.6,0.4,1.9s1.1,1.4,2.2,2s1.5,0.3,1.6,0.3s0.6-1.2,0.9-1.2c1.1-0.4,2.3-0.8,3.5-0.9c1.8-0.2,2.3,1.7,2.7,1.9
			s0.7-0.3,0.8-0.3c0.4,0.7,0.7,1.5,0.8,2.3c-0.1,0.3-2.2,0.2-2,0.5c0.3,0.7,0.3,1.4,0.1,2.1c-0.4,0.6-0.5,1.3,0.2,1.7
			s4.7,1.8,4.8,2s-0.6,1.2-1,1.7s0.3,1.3,0.8,1s1.5,0,2.6-0.3s0.4-2.2,0.6-2.2c0.7,0.1,1.4,0.4,2,0.7c0.8,0.5,1.7,0.9,2.7,1.1
			c1.3,0.2,1.3-1.4,1.7-2s2.1-0.5,2.1-0.5s0.2,0.1,2,1.3s1.5-0.1,1.6-0.2s-2.1-1.1-2.3-1.6s1.2-3.1,1.6-2.8c0.5,0.2,1,0.3,1.6,0.3
			c0.4,0,0.5-2.7,0.4-2.9s-1,0.2-2.2-1s-0.6-2.2-0.4-2.3s3-1.6,3-1.6c-0.2,0.5,0,1.1,0.4,1.3c0.8,0.4,3.9-1.2,4.1-1.2
			c0.8-0.2,1.5-0.2,2.3-0.3c0.4,0.1,1.4,1.6,1.6,1.9s-0.7,0.7-1.9,1s-0.7,0.5-0.3,1.9c0.1,0.9,0.7,1.7,1.5,2.1
			c0.6,0.2,0.4-1.3,1-1.9c0.9-0.8,2.1-1.3,3.3-1.3c1.3,0,5.6,0.6,5.6,0.6c-0.9-4.3,3-11.1,3.6-12.7c1.5-3,3.4-5.8,5.6-8.4
			c1.1-1,18.6-26.6,18.6-26.6l0.1-0.2c0,0,14-20.9,26.5-39.4L199.7,77.2z"/>
	</g>
</g>
<g>
	<g id="图层_1-2">
		<g>
			<path class="st1" d="M111,169.8c-0.5,0-0.9-0.3-1.1-0.8c-0.2-0.4-0.1-0.8,0.2-1.1c0.3-0.3,0.6-0.8,0.8-1.1
				c-0.4-0.2-1.3-0.5-1.9-0.8c-1.4-0.5-2.2-0.9-2.6-1.1c-0.8-0.5-0.9-1.4-0.4-2.4c0.2-0.6,0.2-1.2-0.1-1.7l-0.1-0.2l0.1-0.3
				c0.2-0.4,0.5-0.4,1.3-0.5c0.2,0,0.4,0,0.6-0.1c-0.1-0.5-0.3-0.9-0.5-1.3c-0.1,0.1-0.3,0.1-0.4,0.1s-0.3,0-0.5-0.1
				c-0.2-0.1-0.3-0.3-0.5-0.6c-0.3-0.5-0.8-1.2-1.7-1.2c-0.1,0-0.1,0-0.2,0c-1.1,0.2-2.3,0.5-3.3,0.9c-0.1,0.1-0.3,0.4-0.4,0.6
				c-0.2,0.4-0.4,0.6-0.6,0.7c-0.1,0-0.3,0.1-0.5,0.1c-0.4,0-0.9-0.2-1.4-0.5c-0.5-0.3-2.4-1.6-2.4-2.4c0-0.1,0-0.1,0-0.2
				c0-0.3,0.1-1.1-0.2-1.2c-0.7-0.5-1.4-0.9-2.1-1.3c-0.5-0.2-0.5-0.9-0.5-1.4c-0.1,0.1-0.3,0.1-0.5,0.1c-0.2,0-0.5-0.1-0.8-0.2
				c-1.3-0.5-1.5-1.9-1.6-2.8l0-0.3c0-0.3,0-0.7,0-1.2c0-0.5,0-1.2-0.1-1.6c-0.6,0.2-1.9,0.9-2.8,1.4c-1.8,0.9-2.5,1.3-2.8,1.3
				c-0.7,0.2-1.4,0.3-2.1,0.4c-2.2,0.3-4.4,0.8-6.5,1.6c-0.3,0.2-0.6,0.9-0.7,1.3c-0.2,0.4-0.3,0.7-0.5,0.8c-0.3,0.3-0.7,0.6-1,0.9
				l-0.4,0.4l-0.4-0.5c-0.3-0.4-0.6-0.6-1-0.9c-0.1,0-0.6-0.1-1-0.1c-1-0.1-1.3-0.1-1.6-0.3c0,0-0.2-0.1-0.3-0.2
				c-0.8-0.6-1.2-0.9-1.1-1.3c0-0.2,0.2-0.4,0.4-0.5c0,0,0,0,0,0c0,0,0,0,0.1-0.1c0.1-0.1,0.1-0.2,0.1-0.4c0-0.1-0.1-0.3-0.2-0.3
				c-0.1-0.1-0.4-0.2-0.6-0.3c-0.2-0.1-0.6-0.2-0.6-0.6c0-0.5,0.4-0.6,1.1-0.9c0.5-0.2,0.8-0.3,1.1-0.4c0.5-0.2,0.5-0.2,0.8-0.6
				c0.1-0.2,0.2-0.3,0.3-0.4c0,0,0,0,0,0c-0.1,0-0.2,0-0.3,0c-0.5-0.1-0.6-0.7-0.7-1.2c0-0.8,0.3-1.7,1.3-2.1
				c0.9-0.3,0.9-0.4,1.1-0.9l0.1-0.2c0.3-0.9,1-1.9,2-1.9c0.3,0,0.5,0.1,0.6,0.1c0.1,0,0.2,0,0.2,0c0.1,0,0.2-0.2,0.3-0.3l0.2-0.3
				c0.3-0.4,1-1.3,1.1-1.6c-0.1-0.4-0.1-0.9-0.1-1.4c0,0,0,0,0,0c-0.7,0-1.9,0-2.4-0.8c-0.6-0.9-0.6-2.3-0.4-2.8l0.1-0.3l0.4-0.1
				c0,0,0.2-0.1,0.4-0.1c0.6-0.2,1-0.3,1.4-0.3c0.5,0,0.7,0.3,0.7,0.6l0,0.1c0,1.1,0.1,1.5,0.1,1.7c0,0,0.1,0,0.1,0
				c0.4,0,0.8-0.1,0.9-0.3c0,0,0.1-0.1,0-0.2c-0.1-0.4-0.1-0.9-0.1-1.2c0-0.2,0-0.4,0-0.5c-0.9-0.3-1.3-2.1-1.3-2.6
				c0-0.2,0.1-0.5,0.2-0.7c0.1-0.4,0.2-0.8,0.1-1c-0.3-0.4-0.3-1-0.3-1.4c-0.2,0.1-0.4,0.1-0.6,0.1c-0.2,0-0.4-0.1-0.5-0.2
				c-0.1-0.1-0.3-0.1-0.4-0.1c-0.1,0-0.3,0-0.3,0.4c-0.1,0.6-0.4,0.8-0.6,0.8c-0.1,0-0.3,0-0.5-0.3c-0.3-0.4-0.6-1.8-0.3-2.4
				c0.1-0.3,0.3-0.5,0.5-0.6c0,0,0.1-0.1,0.1-0.1c-0.3-0.2-0.9-0.3-1.3-0.3c-0.7-0.1-1.1-0.2-1.3-0.5c-0.1-0.2-0.1-0.4,0-0.6
				c0.2-0.4,1.3-1.8,2.2-1.8c0.1,0,0.1,0,0.2,0c0.2,0,0.3,0,0.5,0c0.1,0,0.3,0,0.4,0c0,0,0,0,0.1,0l0-0.4c-0.1-6.8,0-6.9,0.2-7.1
				l0.1-0.1l0.2,0c0.1,0,0.3,0,0.5,0c0,0,0,0,0,0l0-0.7h-4.1c-0.9,0-1.7-0.2-2.5-0.5l-0.1,0l-0.1-0.1c-0.3-0.4-0.3-1.8-0.1-2.4
				c0.2-0.5,0.5-0.6,0.7-0.6l0.2,0c0.2,0,0.4,0.1,0.5,0.1c0-0.5,0.2-0.9,0.3-1.2c0.3-0.7,0.8-0.9,1.1-0.9c0.3,0,0.7-0.1,1-0.3
				c0.4-0.1,0.7-0.3,1.1-0.3c0.1,0,0.2,0,0.3,0l0.1,0l0.1,0c0.4,0.3,0.9,0.4,1.4,0.4c0.1,0,0.3,0,0.4,0c1-0.3,1.4-0.7,1.4-0.8
				c0-0.1,0-0.3,0-0.4c0-0.5,0-1.1-0.4-1.4c-0.2-0.2-0.3-0.4-0.3-0.6c0-0.3,0.3-0.5,0.4-0.6c0.2-0.2,0.4-0.2,0-0.8l-0.1-0.2l0.1-0.2
				c0,0,0.4-1.2-0.3-1.5c-4.3-1.6-4.3-2.1-4.3-2.4v-0.1l0-0.1c0.5-1.3,1.1-2.7,1.7-3.9c-0.5-0.1-1.1-0.4-1.4-0.9
				c-0.2-0.4-0.5-1.1-0.8-1.9c-0.3-0.8-0.7-1.7-0.9-2c-0.5-0.9-0.9-1.8-1-2.8c0-0.3-0.3-0.9-0.5-1.3c-0.2,0.2-0.5,0.4-0.7,0.6
				c-1.5,1.5-2.2,2.1-2.8,2.1c-0.2,0-0.3-0.1-0.5-0.2c-0.1-0.1-0.4-0.3-0.6-0.5c-1.1-0.8-1.7-1.3-1.6-1.9c0.1-0.2,0.6-1.2,2.3-4.4
				c0.9-1.8,2.2-4.1,2.5-4.8c-0.7-1-1.2-1.5-1.5-1.6c-0.1,0-0.2-0.1-0.2-0.1c-0.3-0.1-0.6-0.2-0.8-0.6c-0.1-0.3-0.1-0.6,0-1.1
				l-0.2-0.1c-0.3,1.6-0.8,1.6-1,1.6c-0.1,0-0.2,0-0.3,0c-0.5,0-1-0.1-1.5-0.3c-0.4-0.2-0.8-0.6-1-1.1c0-0.2-0.1-0.3,0-0.5l-3.2-1.1
				l-0.2,0.7l-0.4-0.1c-1.5-0.2-2.2-0.6-2.2-1.2c0-0.1,0-0.2,0-0.4c0-0.2,0-0.6,0-0.8c0,0-0.1,0-0.1,0c-0.2,0.1-0.5,0.3-0.8,0.3
				c-0.3,0-0.5-0.1-0.7-0.3l-0.2,0.2c0.8,0.9,0.7,1.1,0.6,1.3l-0.1,0.3l-0.4,0c-0.2,0-0.7,0-1.1,0.1c-0.2,0-0.4,0-0.5,0
				c-0.5,0.2-0.7,0.6-0.6,1.1c0.1,0.4,0.1,0.6,0,0.9l-0.2,0.2l-0.3,0c-0.3,0-0.5-0.2-0.7-0.5c-0.1-0.1-0.2-0.2-0.2-0.3
				c-0.2,0.3-0.5,0.8-0.7,1.1c-0.5,0.8-0.7,1.1-1,1.1c-0.3,0.1-1.8,0.8-2.9,1.3c-2.4,1.1-3.1,1.4-3.4,1.4c0,0-0.1,0-0.2,0
				c-0.3,0-0.7-0.1-1.1-0.1c-0.4-0.1-0.9-0.1-1.1-0.1c-0.1,0-0.1,0-0.2,0c-0.5,0-1-0.1-1.5-0.3c-1.4,2-9.1,15.1-14.1,23.9l-0.2,0.4
				L0,89.8l0.3-0.5c7.6-13.6,8.8-15.7,9.2-16.1l0,0c0.1-0.1,0.5-0.5,0.8-0.9c1.6-1.8,3.2-3.6,4.3-3.9c0.4-0.1,0.6-0.2,0.7-0.4
				c-0.1,0-0.2,0-0.3,0c-0.9,0-1.2-0.5-1.2-0.9c0-1.3-0.2-3.1-0.4-3.4l-0.3-0.2l0.1-0.3c0.1-0.4,0.5-0.5,1.1-0.7
				c0.3-0.1,1-0.2,1.1-0.4c0.1-0.2,0.5-0.9,0.9-1.8c1-1.9,2.4-4.7,3.1-5.9l-6.1-3.5l2.2-3.2c-0.6-1-1.5-2.4-1.3-3.1
				c0.1-0.3-0.2-0.8-0.4-1.3c-0.1-0.3-0.2-0.5-0.3-0.7c-0.2-0.5,0-1.3,0.3-1.9c0.3-0.5,0.6-0.7,1-0.8c0.3-0.1,0.7-0.2,1.1-0.4
				c0.7-0.3,1.5-0.6,2-0.6c0.1,0,0.2,0,0.3,0c0.2-0.2,0.5-0.8,0.7-1.1c0.4-0.7,0.7-1.3,1.1-1.6c0.2-0.1,0.9-1.1,1.6-2.1
				c2.6-3.4,4.8-6.2,6.1-6.7c0,0,0.7-0.2,0.8-0.3c0-0.1-0.1-0.2-0.1-0.4c0-0.3-0.3-0.9-0.5-1.4c-0.2-0.5-0.4-0.9-0.5-1.3
				c-0.1-0.6,0.2-1.1,0.5-1.4c0-0.1,0.1-0.1,0.1-0.2c-0.1-0.1-0.3-0.2-0.5-0.3c-0.7-0.4-1.3-0.8-1.3-1.4c0-0.3,0.1-0.6,0.3-0.8
				c0.2-0.3,0.3-0.6,0.2-0.8c-0.2-0.5-0.2-1-0.1-1.5c-0.2-0.5-0.5-0.9-0.8-1.3c-0.1,0.1-0.3,0.1-0.4,0.2c-0.8,0.5-1.4,0.8-1.8,0.8
				h-0.1l-0.2-0.1c-0.5-0.2-1.1-0.4-1.6-0.5c0,0-0.4,0.1-0.6,0.2c-0.5,0.2-0.9,0.3-1.2,0.3c-0.2,0-0.4-0.1-0.5-0.2
				c-0.2-0.2-0.8-1.2-0.6-1.9c0.1-0.3,0.4-0.6,0.8-0.6c0.9-0.2,1.9-0.4,2.8-0.4c0.7-0.1,1.5-0.3,2.1-0.7c0.4-0.3,1-0.6,1.5-0.9
				c0-0.1,0-0.2,0.1-0.3c0-0.4,0.1-0.8,0.4-1.3c0.1-0.1,0.2-0.2,0.3-0.3c0.4-0.6,0.8-1.1,1.4-1.1h0l0.1,0l0.1,0
				c0.8,0.1,1.4,0.3,1.8,0.6c0.1-0.1,0.4-0.2,0.6-0.3c0.5-0.3,1-0.6,1.5-0.7c0.1,0,0.1,0,0.2,0c1,0,1.5,0.9,1.5,1.6
				c0,0.2,0.4,0.7,0.7,0.9c0.1-0.2,0.3-0.7,0.1-1c-0.2-0.4-0.7-0.8-1.1-1c-0.2-0.1-0.4-0.2-0.5-0.4c-0.5-0.7-0.9-1.3-1.2-2.1
				c-0.1-0.1-0.8-0.4-1.2-0.6c-0.6-0.3-1.3-0.5-1.7-0.8c-0.7-0.5-0.7-1.2-0.6-1.7c0-0.3,0-0.5-0.1-0.6c-0.5-0.5-0.8-0.8-0.8-1.4
				c0-0.3,0.2-0.6,0.6-0.8c0.2-0.1,0.4-0.3,0.7-0.5C29.7,0.4,30.2,0,30.6,0h0.1l0.2,0.1c0.2,0.1,0.4,0.2,0.8,0.6
				c0.9,0.7,2.5,2,3.6,2l0.3,0c0.4,0,0.8,0,1.2,0.1c0.4,0,0.7,0.1,1.2,0.1c1,0,2.2-0.2,3.7-0.6c0.9-0.2,1.8-0.4,2.5-0.4
				c1.4,0,2.3,0.4,2.8,0.7c0.1,0.1,0.3,0.1,0.3,0.2c0.1-0.1,0.6-0.5,0.8-0.8c0.7-0.7,1.1-1.1,1.5-1.1h0.1l0.1,0
				c0.9,0.1,1.8,0.8,2.2,1.7l0,0.1c0.4,1,1.2,3.3,5.3,7.4c2.6,2.6,3.3,4,3.6,4.7c0.2,0.5,0.3,0.6,0.6,0.7c0.8,0.3,1,0.9,1.1,1.2
				c0,0,0,0,0,0c0.7-0.3,1.3-0.5,1.9-0.9l0.1-0.1c0.1-0.1,0.2-0.2,0.3-0.3c0.8-0.6,1.2-0.9,1.6-0.9h0.2l0.2,0.2
				c0.1,0.1,0.2,0.2,0.3,0.5c0.8,1.3,1.4,1.9,1.7,1.9c0.4,0,0.6-0.2,0.8-0.3c0.2-0.1,0.3-0.2,0.6-0.2c0.3,0,0.6,0.2,0.6,0.3
				c0.1,0.2,0.3,0.4,0.4,0.7c0.4,0.6,0.9,1.5,1.6,1.8c1.8,0.8,3.6,1.7,5.3,2.6c0.3,0.2,0.4,0.5,0.6,0.8c0.2,0.5,0.3,0.7,0.7,0.7
				c0.6,0,1.3,0,1.9,0c1,0,1.9,0,2.9,0.1l0.1,0l0.1,0c2.2,1.1,4.4,2.5,6.5,3.9l0.1,0.1l0.1,0.1c0.8,1.1,1.4,2.3,1.9,3.5
				c0.3,0.7,2,4,4.4,4.1c0.2-0.3,0.6-0.7,1.3-0.7c0.3,0,0.6,0.1,1,0.2c0.4,0.2,0.5,0.2,0.6,0.2l0.1-0.1l0.2,0c0.3,0,0.5,0.2,0.6,0.5
				c0.9-1.5,1.9-3,2.2-3.7c-0.5,0-1.3-0.2-2.1-1.2c-0.4-0.5-0.5-1.6-0.5-3.3l0-0.2c0-0.1,0-0.2,0.1-0.3c0.1-0.3,0.4-0.4,0.7-0.4
				c0.1,0,0.2,0,0.3,0.1l99,45.5l-0.3,0.7c-12.4,18.4-26.4,39.3-26.6,39.5l-0.1,0.2c-1.8,2.6-17.6,25.7-18.7,26.7
				c-2.1,2.5-3.9,5.3-5.4,8.3c-0.1,0.2-0.3,0.7-0.6,1.2c-1.2,2.5-3.7,7.7-3,11.1l0.1,0.7l-0.7-0.1c0,0-4.3-0.6-5.6-0.6
				c-1.1,0-2.1,0.4-2.9,1.1c-0.2,0.2-0.3,0.6-0.3,0.9c-0.1,0.5-0.3,1.1-0.9,1.1c-0.1,0-0.2,0-0.3-0.1c-1-0.5-1.7-1.4-1.9-2.5
				c-0.1-0.3-0.2-0.5-0.3-0.7c-0.2-0.4-0.3-0.7-0.1-1.1c0.2-0.3,0.5-0.5,1.1-0.6c0.8-0.2,1.2-0.4,1.5-0.5c-0.7-0.9-1-1.3-1.1-1.4
				c-0.7,0-1.4,0.1-2.1,0.3c-0.1,0-0.3,0.1-0.6,0.2c-1.2,0.5-2.5,1-3.3,1c-0.2,0-0.4,0-0.6-0.1c-0.4-0.2-0.6-0.5-0.7-0.9
				c-0.8,0.4-1.9,1-2.2,1.1c-0.1,0.2-0.3,0.7,0.5,1.5c0.7,0.7,1.2,0.7,1.5,0.8c0.2,0,0.5,0,0.7,0.3c0.3,0.5,0.1,2.8-0.2,3.3
				c-0.2,0.3-0.4,0.4-0.6,0.4c0,0-0.1,0-0.2,0c-0.5,0-1-0.1-1.4-0.3c-0.4,0.4-1,1.6-1.1,2c0.2,0.2,1,0.7,1.4,0.9
				c0.7,0.4,0.9,0.5,1,0.8l0,0.2l-0.1,0.1c-0.1,0.9-0.6,1-0.9,1c-0.4,0-0.8-0.2-1.4-0.6c-1.2-0.7-1.7-1.1-1.9-1.2
				c-0.9,0-1.4,0.2-1.5,0.3c-0.1,0.1-0.1,0.3-0.2,0.5c-0.2,0.6-0.6,1.7-1.7,1.7c-0.1,0-0.2,0-0.3,0c-1-0.2-2-0.6-2.9-1.2
				c-0.4-0.2-0.8-0.4-1.2-0.5c0.1,0.7,0.1,1.8-1,2.1c-0.7,0.2-1.2,0.2-1.7,0.2c-0.3,0-0.7,0-0.8,0.1
				C111.3,169.7,111.1,169.8,111,169.8z"/>
			<path d="M30.6,0.5C30.7,0.5,30.7,0.5,30.6,0.5c0.5,0.2,3,2.6,4.7,2.6c0,0,0,0,0.1,0c0.1,0,0.1,0,0.2,0c0.8,0,1.4,0.1,2.4,0.1
				c0.9,0,2-0.1,3.8-0.6c1-0.3,1.8-0.4,2.4-0.4c1.9,0,2.7,0.9,3.1,0.9c0,0,0,0,0.1,0c0.6-0.1,1.8-2,2.3-2c0,0,0,0,0,0
				c0.8,0.1,1.5,0.7,1.9,1.4c0.4,1,1.2,3.4,5.4,7.7s3.2,5,4.4,5.5c1,0.5,0.7,1.3,1.2,1.3c0.1,0,0.1,0,0.2,0c0.7-0.3,1.4-0.6,2-0.9
				c0.1,0,1.4-1.2,1.8-1.2c0,0,0.1,0,0.1,0c0.2,0.2,1.4,2.5,2.4,2.5c0,0,0,0,0.1,0c0.8-0.1,1-0.5,1.3-0.5c0.1,0,0.2,0,0.2,0.1
				c0.4,0.4,1.1,2.2,2.2,2.6c1.8,0.8,3.5,1.6,5.2,2.6c0.4,0.3,0.4,1.6,1.6,1.6c0.6,0,1.3,0,1.9,0c1,0,1.9,0,2.9,0.1
				c2.2,1.1,4.4,2.4,6.4,3.9c0.7,1.1,1.4,2.2,1.9,3.4c0.2,0.6,2.1,4.4,5,4.4c0.1,0,0.2,0,0.2,0c0,0,0.2-0.7,0.9-0.7
				c0.2,0,0.5,0.1,0.8,0.2c0.4,0.2,0.6,0.2,0.8,0.2c0.3,0,0.3-0.2,0.4-0.2c0,0,0.1,0.1,0.2,0.3l0.4,0.7c0,0,3-4.6,2.9-5.1
				c-0.1-0.4-1.1,0.4-2.4-1.2c-0.4-0.5-0.4-2.4-0.4-3.2c0,0,0-0.1,0-0.1c0-0.1,0.1-0.1,0.2-0.1c0,0,0.1,0,0.1,0l98.5,45.3l-0.1,0.3
				c-12.5,18.5-26.5,39.4-26.5,39.4l-0.1,0.2c0,0-17.5,25.6-18.6,26.6c-2.2,2.6-4,5.4-5.5,8.4c-0.6,1.6-4.5,8.4-3.6,12.7
				c0,0-4.3-0.6-5.6-0.6c-1.2,0-2.4,0.5-3.3,1.3c-0.6,0.6-0.4,2-0.9,2c0,0-0.1,0-0.1,0c-0.8-0.4-1.4-1.2-1.5-2.1
				c-0.4-1.3-1-1.5,0.3-1.9c1.3-0.3,2.1-0.7,1.9-1c-0.2-0.3-1.2-1.8-1.6-1.8c-0.8,0-1.5,0.1-2.3,0.3c-0.2,0-2.6,1.3-3.8,1.3
				c-0.2,0-0.3,0-0.4-0.1c-0.5-0.3-0.7-0.8-0.4-1.3c0,0-2.8,1.5-3,1.6c-0.2,0.1-0.8,1.1,0.4,2.3c1.2,1.2,2,0.8,2.2,1
				c0.1,0.2,0,2.9-0.4,2.9c-0.1,0-0.1,0-0.2,0c-0.5,0-1-0.1-1.4-0.3c0,0,0,0-0.1,0c-0.5,0-1.7,2.3-1.5,2.8c0.2,0.5,2.4,1.5,2.3,1.6
				c-0.1,0.1,0.1,0.7-0.5,0.7c-0.2,0-0.6-0.1-1.2-0.5c-1.8-1.1-2-1.3-2-1.3s0,0-0.1,0c-0.3,0-1.7,0-2,0.5c-0.3,0.5-0.4,2-1.5,2
				c-0.1,0-0.1,0-0.2,0c-1-0.2-1.9-0.6-2.7-1.1c-0.6-0.4-1.3-0.6-2-0.7c-0.2,0,0.5,1.9-0.6,2.2c-1.1,0.3-2.1,0-2.6,0.3
				c-0.1,0-0.1,0.1-0.2,0.1c-0.5,0-1-0.6-0.6-1.1c0.4-0.5,1.1-1.5,1-1.7c-0.1-0.2-4.2-1.6-4.8-2c-0.7-0.4-0.6-1.1-0.2-1.7
				c0.2-0.7,0.2-1.5-0.1-2.1c-0.2-0.3,1.9-0.2,2-0.5c-0.1-0.8-0.4-1.6-0.8-2.3c-0.1,0-0.3,0.3-0.6,0.3c-0.1,0-0.1,0-0.2-0.1
				c-0.4-0.2-0.8-1.9-2.4-1.9c-0.1,0-0.2,0-0.2,0c-1.2,0.2-2.4,0.5-3.5,0.9c-0.3,0-0.8,1.2-0.9,1.2c-0.1,0-0.2,0.1-0.5,0.1
				c-0.2,0-0.6-0.1-1.1-0.4c-1.1-0.6-2.2-1.7-2.2-2s0.2-1.5-0.4-1.9c-0.7-0.5-1.4-1-2.2-1.4c-0.4-0.2,0-1.6-0.3-1.8c0,0,0,0-0.1,0
				c-0.2,0-0.3,0.4-0.8,0.4c-0.2,0-0.4,0-0.6-0.1c-1.2-0.5-1.2-1.8-1.3-2.7c-0.1-0.8,0.1-3.2-0.4-3.3c0,0,0,0,0,0
				c-0.7,0-5.4,2.7-6,2.7c-0.7,0.2-1.4,0.3-2.1,0.4c-2.3,0.3-4.5,0.9-6.7,1.6c-0.7,0.4-1.1,2.1-1.3,2.2c-0.4,0.3-0.7,0.6-1.1,1
				c-0.3-0.4-0.7-0.7-1.1-1c-0.5-0.2-2.3-0.1-2.5-0.3c-0.2-0.2-1.7-1.1-1.3-1.3c0.1-0.1,0.2-0.1,0.2-0.2c0.4-0.4,0.3-1-0.1-1.4
				c-0.7-0.6-1.8-0.3-0.2-0.9c1.6-0.7,1.5-0.4,2.1-1.2c0.5-0.8,1-0.9,0.7-1.2c-0.1-0.1-0.2-0.1-0.3-0.1c-0.2,0-0.3,0.1-0.5,0.1
				c0,0-0.1,0-0.1,0c-0.4-0.1-0.6-1.9,0.7-2.3c1.3-0.4,1.2-0.7,1.4-1.4c0.2-0.7,0.8-1.6,1.5-1.6c0,0,0,0,0.1,0
				c0.4,0,0.6,0.1,0.8,0.1c0.2,0,0.4-0.1,0.7-0.5c0.6-0.7,1.5-1.9,1.4-2.3c-0.1-0.6-0.1-1.2,0-1.7c0.2-0.3-2,0.2-2.5-0.7
				c-0.6-0.8-0.5-2.3-0.3-2.3c0.2,0,1.4-0.4,1.8-0.4c0.1,0,0.2,0,0.2,0.1c0,0.3-0.1,2.2,0.4,2.3c0.1,0,0.2,0,0.3,0
				c0.6,0,1.6-0.3,1.5-1.1c-0.2-0.9,0.1-2-0.4-2.1c-0.5,0-1.1-1.6-1-2.1c0.1-0.6,0.6-1.4,0.2-2c-0.4-0.6-0.1-1.6-0.2-1.9
				c0,0,0-0.1-0.1-0.1c-0.2,0-0.6,0.5-1,0.5c-0.1,0-0.2,0-0.2-0.1c-0.2-0.1-0.5-0.2-0.7-0.2c-0.4,0-0.8,0.2-0.8,0.9
				c0,0.2-0.1,0.3-0.1,0.3c-0.2,0-0.5-1.5-0.3-2c0.3-0.6,1.2-0.9,0.4-1.4s-2.7-0.3-2.4-0.8c0.2-0.4,1.2-1.5,1.8-1.6
				c0.1,0,0.1,0,0.2,0c0.3,0,0.6,0,0.9,0c0.3,0,0.6-0.1,0.6-0.3c0-0.5-0.1-7.4,0.1-7.4c0.2,0,0.4,0,0.5,0s0.4,0,0.5,0l-0.1-1.7h-4.5
				c-0.8,0-1.6-0.2-2.3-0.5c-0.2-0.3-0.2-2.1,0.3-2.2c0,0,0.1,0,0.1,0c0.4,0,0.2,0.3,1,0.4v-0.1c-0.2-0.3,0.1-2.3,0.9-2.3
				c0.7,0,1.5-0.5,2-0.5c0.1,0,0.1,0,0.2,0c0.5,0.3,1.1,0.5,1.6,0.5c0.2,0,0.4,0,0.5,0c1.1-0.3,1.9-0.8,1.8-1.4
				c-0.1-0.6,0.1-1.7-0.6-2.2s1.2-0.3,0.2-1.9c0,0,0.6-1.7-0.6-2.1c-1.2-0.4-4-1.6-4-1.9c0.6-1.5,1.2-3,2-4.5c0,0-1.3-0.1-1.7-0.8
				c-0.4-0.7-1.3-3.3-1.7-3.9c-0.5-0.8-0.8-1.7-0.9-2.6c0-0.5-0.7-1.9-1-1.9c-0.3,0-2.8,2.9-3.5,2.9c0,0-0.1,0-0.1,0
				c-0.5-0.4-2.2-1.5-2.1-1.9c0.1-0.4,4.9-9.3,4.8-9.4c-0.1-0.1-1.2-1.7-1.9-2s-1-0.2-0.6-1.5L64,71.4c0,0-0.2,1.9-0.6,1.9
				c-0.1,0-0.2,0-0.3,0c-0.5,0-0.9-0.1-1.3-0.2c-0.4-0.2-0.9-0.9-0.5-1.4L57,70.3l-0.3,0.8c0,0-1.8-0.2-1.8-0.7s0.2-1.4-0.3-1.7
				c0,0-0.1,0-0.1,0c-0.3,0-0.6,0.4-1,0.4c-0.2,0-0.4-0.1-0.6-0.6l-1,0.9c0,0,1.1,1.2,0.7,1.2s-1.5,0.1-1.7,0.1
				c-0.7,0.2-1.2,1-1,1.7c0.1,0.3,0.1,0.5,0,0.5c-0.1,0-0.6-0.8-0.9-0.8c0,0,0,0,0,0c-0.5,0-1.6,2.4-1.8,2.4c0,0,0,0,0,0
				c0,0,0,0,0,0c-0.3,0-5.8,2.7-6.3,2.7c0,0-0.1,0-0.1,0c-0.5,0-1.6-0.3-2.2-0.3c-0.1,0-0.2,0-0.2,0c-0.6,0-1.1-0.1-1.6-0.4
				c0,0,0,0,0,0c-0.5,0-14.4,24.3-14.4,24.3L0.7,89.6c0,0,8.8-15.8,9.1-15.9c0.3,0,3.4-4.3,5-4.8c1.5-0.4,1.3-1.5,1.3-1.5
				s-0.5,0.2-1,0.2c-0.4,0-0.7-0.1-0.7-0.4c0-0.8-0.1-3.5-0.5-3.8c-0.4-0.3,1.8-0.4,2.1-0.9c0.3-0.6,3.6-7.1,4.3-8.2l-6.1-3.5
				l2.1-3.1c0,0-1.6-2.3-1.4-3c0.1-0.7-0.5-1.6-0.7-2.2s0.2-2,1-2.1c0.7-0.2,2.3-1,3-1c0.1,0,0.2,0,0.2,0c0,0,0.1,0,0.1,0
				c0.5,0,1.4-2.4,2-2.8c0.7-0.5,5.8-8,7.6-8.6c1.9-0.7,1.1-0.4,1.1-1.2c0-0.8-0.9-2-1-2.7s1-1.4,0.6-1.8c-0.5-0.4-1.7-1-1.7-1.4
				s0.7-1.1,0.5-1.8c-0.2-0.4-0.2-0.9-0.1-1.3c-0.3-0.7-0.7-1.4-1.2-1.9c-0.2,0-1.9,1.1-2.3,1.1c0,0-0.1,0-0.1,0
				c-0.6-0.3-1.2-0.4-1.8-0.5c0,0,0,0,0,0c-0.3,0-1.4,0.5-1.8,0.5c-0.1,0-0.1,0-0.2,0c-0.2-0.2-0.9-1.5-0.1-1.7
				c0.9-0.2,1.8-0.3,2.8-0.4c0.8-0.1,1.6-0.3,2.4-0.8c0.4-0.4,0.9-0.6,1.5-0.8c0.5-0.1,0.2-1.1,0.7-1.7c0.5-0.6,0.8-1.3,1.3-1.3
				c0,0,0.1,0,0.1,0c0.5,0.1,1.6,0.3,1.8,0.6c0,0,0.1,0.1,0.1,0.1c0.4,0,1.6-1,2.2-1.1c0,0,0.1,0,0.1,0c0.7,0,1,0.7,1,1.1
				c0,0.4,0.9,1.5,1.2,1.5c0,0,0,0,0,0c0.3,0,0.8-1,0.5-1.8c-0.3-0.8-1.4-1.3-1.7-1.5C33.4,8.3,33,7.7,32.7,7
				c-0.1-0.5-2.2-1-3.1-1.6c-0.9-0.6-0.1-1.6-0.6-2.2c-0.6-0.6-1-0.9-0.3-1.4C29.3,1.4,30.2,0.5,30.6,0.5 M30.6-0.5
				C30.6-0.5,30.6-0.5,30.6-0.5c-0.7,0-1.2,0.5-1.9,1c-0.2,0.2-0.4,0.4-0.6,0.5c-0.5,0.3-0.7,0.7-0.8,1.2c-0.1,0.7,0.4,1.2,0.9,1.7
				c0,0.1,0,0.2,0,0.2c0,0.5-0.1,1.4,0.8,2.1c0.5,0.4,1.2,0.6,1.8,0.9c0.3,0.1,0.8,0.3,1,0.4c0.2,0.4,0.4,0.8,0.6,1.2
				c-0.5,0.1-1.1,0.4-1.6,0.7c-0.1,0.1-0.2,0.1-0.3,0.2c-0.5-0.2-1.1-0.4-1.7-0.5l-0.1,0c-0.1,0-0.2,0-0.3,0c-0.9,0-1.4,0.7-1.8,1.3
				c-0.1,0.1-0.2,0.2-0.2,0.3c-0.4,0.5-0.5,1.1-0.5,1.5c0,0,0,0,0,0c-0.5,0.2-1,0.5-1.4,0.8c-0.6,0.3-1.2,0.5-1.8,0.6
				c-1,0-2,0.1-2.9,0.4c-0.5,0.1-0.9,0.5-1.1,1c-0.3,0.9,0.4,2.1,0.7,2.4c0.2,0.1,0.4,0.3,0.8,0.3c0.4,0,0.8-0.1,1.3-0.3
				c0.1,0,0.4-0.1,0.5-0.2c0.5,0.1,1,0.2,1.4,0.4c0.2,0.1,0.3,0.1,0.5,0.1c0.5,0,1-0.3,2.1-0.9c0.2,0.2,0.3,0.5,0.4,0.8
				c-0.1,0.5,0,1.1,0.2,1.6c0,0.1-0.1,0.3-0.2,0.4c-0.2,0.3-0.3,0.6-0.3,1c0,0.8,0.8,1.3,1.5,1.8c0,0,0,0,0,0
				c-0.3,0.4-0.5,0.9-0.4,1.6c0.1,0.5,0.3,1,0.5,1.4c0.2,0.4,0.4,0.9,0.4,1.1c0,0,0,0.1,0,0.1c-0.1,0-0.1,0.1-0.2,0.1l-0.2,0.1
				c-1.4,0.5-3.6,3.3-6.3,6.8c-0.6,0.8-1.4,1.8-1.6,2c-0.4,0.3-0.8,1-1.2,1.7c-0.1,0.2-0.3,0.6-0.5,0.8c0,0,0,0,0,0
				c-0.6,0-1.4,0.3-2.2,0.7c-0.4,0.2-0.8,0.4-1,0.4c-0.6,0.1-1,0.5-1.4,1.1c-0.4,0.7-0.6,1.7-0.4,2.3c0.1,0.3,0.2,0.5,0.3,0.8
				c0.1,0.3,0.4,0.8,0.3,1c-0.1,0.2-0.2,1,1.2,3.2l-1.7,2.5l-0.6,0.9l0.9,0.5l5.2,3c-0.7,1.2-1.7,3.3-2.9,5.5
				c-0.4,0.7-0.7,1.4-0.9,1.7c-0.2,0.1-0.6,0.2-0.9,0.3c-0.7,0.2-1.3,0.3-1.5,1.1c-0.1,0.3,0,0.7,0.3,0.9c0.1,0.5,0.3,2.1,0.3,3.1
				c0,0.4,0.2,0.8,0.5,1.1c-1.2,0.6-2.5,2.2-4,3.8c-0.3,0.3-0.6,0.7-0.7,0.8c0,0,0.1-0.1,0.2-0.1C8.8,73.1,7.7,75-0.2,89.1L-0.7,90
				l0.9,0.5L22,101.7l0.8,0.4l0.5-0.8c4.6-8.1,12.1-20.8,13.9-23.6c0.4,0.1,0.9,0.2,1.3,0.2c0.1,0,0.2,0,0.3,0c0.2,0,0.7,0.1,1,0.1
				c0.4,0.1,0.9,0.1,1.2,0.1c0.1,0,0.2,0,0.2,0c0.3,0,0.8-0.2,3.5-1.5c1-0.5,2.4-1.1,2.8-1.2c0.6-0.1,0.9-0.6,1.4-1.4
				c0.1-0.2,0.2-0.4,0.4-0.6c0.2,0.2,0.5,0.4,0.9,0.4h0.5l0.3-0.4c0.3-0.4,0.2-1,0.1-1.3c0-0.2,0.1-0.4,0.2-0.5c0.1,0,0.2,0,0.4,0
				c0.3,0,0.9-0.1,1-0.1c0.4,0,0.8-0.2,1-0.6c0.1-0.3,0.1-0.6,0-0.9c0.1,0,0.2,0,0.3,0c0,0.1,0,0.3,0,0.4c0,0.9,0.9,1.5,2.6,1.7
				l0.8,0.1l0.2-0.6l2.4,0.8c0,0.1,0,0.2,0,0.2c0.2,0.6,0.7,1.2,1.3,1.4c0.6,0.2,1.1,0.3,1.7,0.3c0.1,0,0.2,0,0.3,0
				c0.4,0,0.6-0.2,0.9-0.4c0.3,0.3,0.6,0.4,0.9,0.5c0.1,0,0.1,0,0.2,0.1c0.1,0,0.4,0.3,1.1,1.2c-0.4,0.9-1.5,3-2.4,4.5
				c-2,3.8-2.2,4.3-2.3,4.5c-0.2,1,0.7,1.6,1.8,2.4c0.2,0.2,0.5,0.4,0.6,0.5c0.2,0.2,0.5,0.3,0.8,0.3c0.8,0,1.5-0.7,3.1-2.2
				c0.1-0.1,0.1-0.1,0.2-0.2c0.1,0.2,0.2,0.4,0.2,0.5v0.1l0,0c0.1,1.1,0.5,2.1,1,3l0,0l0,0c0.2,0.2,0.6,1.3,0.8,1.9
				c0.3,0.9,0.6,1.6,0.9,2c0.3,0.5,0.7,0.7,1.1,0.9c-0.5,1.1-1,2.3-1.5,3.5l-0.1,0.2v0.2c0,0.6,0,1.1,4.6,2.9c0.1,0.1,0.1,0.6,0,0.8
				l-0.2,0.5l0.3,0.4c0,0.1,0.1,0.1,0.1,0.1c-0.2,0.1-0.6,0.4-0.6,1c0,0.3,0.1,0.7,0.5,1c0.1,0.1,0.2,0.8,0.2,1c0,0.1,0,0.2,0,0.3
				c-0.1,0.1-0.5,0.3-1,0.5c-0.1,0-0.2,0-0.3,0c-0.4,0-0.8-0.1-1.1-0.3l-0.1-0.1l-0.1,0c-0.2,0-0.3-0.1-0.5-0.1
				c-0.4,0-0.8,0.1-1.2,0.3c-0.3,0.1-0.6,0.2-0.9,0.2c-0.4,0-1.1,0.2-1.5,1.2c-0.1,0.1-0.2,0.4-0.3,0.8c0,0,0,0-0.1,0
				c-0.1,0-0.1,0-0.2,0c-0.2,0-0.8,0.2-1.1,0.9c-0.3,0.6-0.4,2.2,0.1,2.9l0.2,0.2l0.2,0.1c0.9,0.4,1.8,0.6,2.7,0.6l2.9,0l0,0
				c-0.4,0.4-0.4,0.4-0.4,7.4c-0.1,0-0.3,0-0.4,0c-0.1,0-0.2,0-0.3,0c-1.2,0.1-2.4,1.7-2.6,2.1c-0.2,0.3-0.2,0.7,0,1
				c0.3,0.6,0.9,0.7,1.7,0.8c0.1,0,0.3,0,0.5,0.1c-0.1,0.1-0.1,0.2-0.2,0.3c-0.4,0.8,0,2.4,0.3,2.9c0.3,0.5,0.8,0.5,0.9,0.5
				c0.2,0,1-0.1,1.1-1.1c0,0,0,0,0,0c0.2,0.2,0.5,0.2,0.8,0.2c0,0,0,0,0.1,0c0,0.3,0.1,0.7,0.4,1c0,0.1-0.1,0.4-0.1,0.5
				c-0.1,0.3-0.2,0.5-0.2,0.8c0,0.4,0.1,1.4,0.6,2.1c-0.1-0.1-0.3-0.1-0.5-0.1c-0.4,0-0.9,0.1-1.5,0.3c-0.2,0-0.3,0.1-0.4,0.1
				c-0.4,0-0.7,0.2-0.9,0.6c-0.4,0.7-0.3,2.3,0.4,3.3c0.5,0.8,1.5,0.9,2.2,1c0,0.3,0,0.6,0.1,0.9c-0.2,0.3-0.7,1-0.9,1.3l-0.2,0.3
				c0,0,0,0,0,0c-0.2,0-0.4-0.1-0.6-0.1c0,0-0.1,0-0.1,0c-1.2,0-2.1,1.2-2.5,2.3l-0.1,0.2c0,0.1-0.1,0.3-0.1,0.3c0,0,0,0,0,0
				c0,0-0.1,0.1-0.7,0.3c-1,0.4-1.7,1.4-1.6,2.6c0,0.7,0.3,1.2,0.7,1.5c-0.1,0.1-0.1,0.1-0.1,0.2c0,0-0.2,0.1-0.3,0.1
				c-0.3,0.1-0.6,0.2-1.1,0.4c-0.8,0.3-1.5,0.6-1.4,1.4c0,0.8,0.7,1,1,1.1c0.1,0,0.3,0.1,0.4,0.2c-0.3,0.2-0.5,0.5-0.5,0.8
				c-0.1,0.8,0.6,1.2,1.3,1.8c0.1,0.1,0.2,0.2,0.3,0.2c0.4,0.4,0.9,0.4,1.9,0.5c0.3,0,0.7,0,0.9,0.1c0.3,0.2,0.5,0.4,0.7,0.7l0.7,1
				l0.8-0.9c0.3-0.3,0.6-0.6,0.9-0.9c0.3-0.2,0.5-0.6,0.6-1c0.1-0.2,0.4-0.9,0.5-1.1c2-0.7,4.2-1.2,6.3-1.5c0.7-0.1,1.4-0.3,2.1-0.4
				c0.4-0.1,1.1-0.4,3-1.4c0.7-0.3,1.5-0.8,2.2-1.1c0,0.3,0,0.6,0,0.9c0,0.5,0,0.9,0,1.3c0,0.1,0,0.2,0,0.3c0.1,0.9,0.3,2.5,1.9,3.2
				c0.4,0.1,0.7,0.2,1,0.2c0,0,0,0,0.1,0c0,0.5,0.2,1,0.8,1.2c0.7,0.4,1.4,0.8,2,1.3c0.1,0.1,0.1,0.4,0,0.8c0,0.1,0,0.2,0,0.3
				c0,1.3,2.6,2.8,2.7,2.9c0.6,0.3,1.1,0.5,1.6,0.5c0.3,0,0.5-0.1,0.7-0.1c0.5-0.1,0.7-0.5,1-0.9c0.1-0.1,0.2-0.3,0.3-0.4
				c1-0.4,2.1-0.7,3.1-0.8c0,0,0,0,0,0c0,0,0.1,0,0.1,0c0.6,0,0.9,0.4,1.2,1c0.2,0.3,0.4,0.6,0.7,0.8c0.2,0.1,0.5,0.2,0.7,0.2
				c0.1,0,0.1,0,0.2,0c0,0.1,0.1,0.2,0.1,0.3c0,0,0,0,0,0c-0.8,0.1-1.4,0.1-1.7,0.8l-0.2,0.5l0.3,0.4c0.2,0.4,0.2,0.9,0,1.3
				c-0.8,1.5-0.2,2.5,0.6,3c0.4,0.2,1.3,0.6,2.7,1.1c0.4,0.2,1,0.4,1.4,0.5c-0.1,0.2-0.3,0.4-0.4,0.6c-0.4,0.4-0.5,1.1-0.2,1.6
				c0.3,0.6,0.9,1.1,1.6,1.1c0.2,0,0.5-0.1,0.7-0.2c0,0,0.3,0,0.6,0c0.5,0,1.1,0,1.8-0.2c1-0.3,1.3-1.1,1.4-1.8
				c0.2,0.1,0.3,0.1,0.5,0.2c0.9,0.6,1.9,1,3,1.2c0.2,0,0.3,0,0.4,0c1.5,0,1.9-1.4,2.1-2.1c0-0.1,0.1-0.2,0.1-0.3
				c0.2-0.1,0.5-0.1,1-0.1c0.4,0.2,1,0.6,1.8,1.1c0.7,0.4,1.2,0.6,1.7,0.6c0.2,0,1.2-0.1,1.4-1.3l0.1-0.2l-0.1-0.4
				c-0.1-0.5-0.4-0.7-1.2-1.1c-0.3-0.2-0.7-0.4-1-0.6c0.1-0.4,0.4-0.9,0.7-1.3c0.4,0.1,0.8,0.2,1.3,0.2c0.1,0,0.2,0,0.3,0
				c0.2,0,0.7-0.1,1-0.6c0.3-0.6,0.6-3.1,0.2-3.8c-0.3-0.5-0.8-0.5-1.1-0.5c-0.3,0-0.6,0-1.2-0.6c-0.4-0.4-0.4-0.7-0.4-0.8
				c0.3-0.1,0.7-0.4,1.6-0.8c0.2,0.3,0.4,0.5,0.7,0.7c0.3,0.1,0.6,0.2,0.9,0.2c0.9,0,2.2-0.5,3.5-1.1c0.2-0.1,0.4-0.2,0.5-0.2
				c0.6-0.1,1.2-0.2,1.8-0.2c0.1,0.1,0.3,0.3,0.5,0.6c-0.2,0.1-0.5,0.1-0.8,0.2c-0.5,0.1-1.1,0.3-1.4,0.9c-0.3,0.6-0.1,1.1,0.1,1.5
				c0.1,0.2,0.2,0.4,0.2,0.7c0.2,1.2,1,2.3,2.1,2.8l0,0l0,0c0.2,0.1,0.3,0.1,0.5,0.1c1,0,1.3-1,1.4-1.5c0.1-0.2,0.1-0.6,0.2-0.7
				c0.7-0.6,1.6-1,2.6-1c1,0,4.3,0.4,5.5,0.6l1.4,0.2l-0.3-1.4c-0.7-3.2,1.8-8.4,3-10.8c0.2-0.5,0.4-0.9,0.6-1.2
				c1.5-2.9,3.3-5.7,5.4-8.2c1.7-1.8,15.8-22.5,18.7-26.7l0.1-0.2c0.1-0.2,14.1-21.1,26.5-39.4l0-0.1l0-0.1l0.1-0.3l0.4-0.9
				l-0.9-0.4l-98.5-45.3c-0.1-0.1-0.3-0.1-0.5-0.1c-0.5,0-0.9,0.3-1.1,0.7c-0.1,0.2-0.1,0.3-0.1,0.5l0,0.3c0,1.9,0.1,3,0.6,3.6
				c0.6,0.7,1.2,1.1,1.7,1.2c-0.4,0.7-0.9,1.6-1.5,2.5c-0.1-0.1-0.3-0.2-0.6-0.2c-0.2,0-0.3,0-0.5,0.1c-0.1,0-0.2,0-0.3-0.1
				c-0.4-0.2-0.8-0.3-1.2-0.3c-0.7,0-1.2,0.3-1.5,0.7c-2-0.3-3.5-3.2-3.7-3.7c-0.6-1.3-1.2-2.5-2-3.7l-0.1-0.1L91.4,27
				c-2.1-1.5-4.3-2.8-6.5-4l-0.2-0.1l-0.2,0c-1-0.1-2-0.1-2.9-0.1c-0.6,0-1.3,0-2,0c0,0,0,0,0,0c-0.1,0-0.2-0.3-0.2-0.4
				c-0.1-0.3-0.3-0.7-0.7-1l0,0l0,0c-1.7-1-3.5-1.9-5.3-2.7c-0.6-0.2-1-1-1.4-1.6c-0.2-0.3-0.3-0.6-0.5-0.8c-0.3-0.3-0.6-0.5-1-0.5
				c-0.4,0-0.6,0.2-0.8,0.3c-0.1,0.1-0.3,0.2-0.5,0.2c-0.2-0.1-0.6-0.5-1.4-1.7c-0.2-0.3-0.3-0.4-0.4-0.6c-0.2-0.2-0.5-0.3-0.8-0.3
				c-0.5,0-1,0.3-1.9,1c-0.1,0.1-0.2,0.2-0.3,0.2l-0.1,0c-0.4,0.2-0.9,0.5-1.4,0.7c-0.2-0.3-0.5-0.8-1.2-1.1
				c-0.1-0.1-0.1-0.1-0.3-0.5c-0.4-0.8-1.1-2.2-3.7-4.8c-4-4-4.8-6.3-5.1-7.2l0-0.1l0,0l0,0c-0.5-1-1.5-1.8-2.6-2l-0.1,0l-0.2,0
				c-0.7,0-1.2,0.6-1.9,1.3c-0.2,0.2-0.4,0.4-0.6,0.6c-0.5-0.3-1.5-0.8-3-0.8c-0.8,0-1.7,0.1-2.7,0.4c-2,0.5-3,0.6-3.6,0.6
				c-0.4,0-0.8,0-1.1-0.1c-0.4,0-0.8-0.1-1.2-0.1c-0.1,0-0.2,0-0.2,0c0,0,0,0,0,0c-1,0-2.6-1.3-3.4-1.9c-0.4-0.4-0.7-0.5-0.9-0.6
				C30.9-0.5,30.8-0.5,30.6-0.5L30.6-0.5L30.6-0.5z M76.2,134c0-0.2,0-0.6,0-1.1l0-0.1c0-0.1,0-0.1,0-0.2c0,0,0.1,0,0.1,0.1
				c0,0.1,0,0.1,0,0.2c0,0.3,0,0.7,0.1,1.2C76.3,134,76.3,134,76.2,134L76.2,134z"/>
		</g>
		<text transform="matrix(1 0 0 1 83.2 91.71)" class="st2 st3">青云寺</text>
	</g>
</g>
</svg>
