<svg xmlns="http://www.w3.org/2000/svg" viewBox="0 0 380.68 524.95"><defs><style>.cls-1{fill:#facce0;}.cls-1,.cls-3,.cls-5,.cls-7,.cls-9{stroke:#000;}.cls-1,.cls-12,.cls-3,.cls-5,.cls-7,.cls-9{stroke-miterlimit:10;}.cls-2{font-size:12px;}.cls-10,.cls-11,.cls-2,.cls-4,.cls-6,.cls-8{font-family:STXingkai;}.cls-3{fill:#fffac1;}.cls-4{font-size:30px;}.cls-5{fill:#d3c8e2;}.cls-6{font-size:24px;}.cls-7{fill:#dbeac1;}.cls-8{font-size:21px;}.cls-9{fill:#fedab2;}.cls-10{font-size:18px;}.cls-11{font-size:20px;}.cls-12{fill:none;stroke:#d80a17;stroke-width:2px;}</style></defs><g id="图层_2" data-name="图层 2"><g id="图层_1-2" data-name="图层 1"><path class="cls-1" d="M126.05,387.22c.39.33,1.84-.89,3.39-1.56a3.87,3.87,0,0,0,2.78-2.94c.55-1.84,3.05-3.62,3.17-3.84s2.55-3,2.83-3.55,3-2.52,3.07-2.71-.7-1-1.22-2.22.67-1.52.78-2-1.45-1.37-1.63-1.41.26-1.44.11-1.93.07-1.11-.07-1.44a15.3,15.3,0,0,0-1.15-1.78c-.15-.15-1.71.85-2.15.86a5.53,5.53,0,0,1-1.89-.34c-.3-.18-1.89.41-2.41.33s-.37-1-.07-1.48,1.89-.52,2.67-.52a26.64,26.64,0,0,0,4.37-1.63c.29-2.44.77-2.48,1.66-2.81a2,2,0,0,1,1.89.22c.26.22,2.11-.7,2.3-.81s.89-.56,1.22,1.18,1,1.52,1.59,1.67,0-1.26,0-2.22-1.74-1.34-1.74-1.34c-.11-1.11-1.39-2.39-2.05-3s-1.67-.33-2.11-.61-.06-1.39-.45-2.39-.76-1.07-.28-1.16a37.42,37.42,0,0,0,3.84-2.74s-.45-1-1.22-1-1.84-.33-1.51-.33,1.39-2.39,1.5-3-1.66-.78-2.22-.94-1.61,2.44-1.72,2.83-.89.78-1.61.72-11.5-7.11-11.89-7.39-1.28-.77-.72-1.59.16-1.52-.72-2.18-1.06,0-1.5,0-.73-.78-2-.73a3.1,3.1,0,0,1-2.5-1.27c-.28-.45.67-1.84.67-1.84s-2.22-1-3.31-1.72-1.75.5-3,.58,0-1.36,0-1.72-.67-.75-1.56-.89a4,4,0,0,1-1.86-.8c-.17-.2.89-1.17,1.25-1.89a5.73,5.73,0,0,0,.33-2.09s-7.83-2.58-8-2.44-1.67,4.11-3.28,4.64-1.72-.25-1.81-.86-1-.75-1.55-.64-1.39,1.67-1.5,2-.25,1.52-.83,1.86-1.7,1-2.12,1.19-.83,2-1.16,2a20.39,20.39,0,0,1-2-.86,15.7,15.7,0,0,0-2.06,0c-.58-.06-.69-.81-.83-1s.28-2.56,0-2.75-.72,1.61-1,1.64a16.41,16.41,0,0,1-1.93-.81c-.36-.11.81-1.86,1.06-1.86s1.33-1.22.64-1.22-3.86-1.75-4.39-2-1.56-1.36-1.71-1.4-.44,1.67-.92,1.93-.19-1.3.15-1.78a10.16,10.16,0,0,0,.44-3c0-.37-.67.19-1.26-.63a1.57,1.57,0,0,0-1.89-.55c-.33.18-.59,1.44.52,4.4s.45,3.78.26,4.15a4.1,4.1,0,0,1-2,1.41c-1,.33-1.18-.52-1.4-1s-1.86.25-2.26.06a1.39,1.39,0,0,0-1.71.89c-.26.89,1.67,2.45.41,2.19s-1.33,1.18-1.8,1.26-1.54.4-1.51,1.52a1.37,1.37,0,0,1-1,1.52c-.34.09-.45.7-.92.89s-.83-.25-1.31-.33-.5-1.47-.75-1.61-.08.94-.36,1.22-.55-.08-.61-.42-.14-.83-.5-.8-.33.89-.72.89-1.33,1-1.67,1.22-.44.05-.86.14a.56.56,0,0,0-.42.55,2.66,2.66,0,0,0,.56.95c.33.28.67-.11,1.22.28s.89.94,1.11.94,2.78-.61,2.78-.33.17.72.28,1.39-.95,1.55-1,2.27a12.52,12.52,0,0,1-1.95,3.34c-.22.22.62,1.55,1.28,1.94s-.16,1.28-.78,1.61-1,2.72-1.11,3.22.84,2.39.28,3-4.22-1.05-4.78-1.33-.27-1-.77-1.39-1,.17-1.73.11a6.21,6.21,0,0,1-1.83-.61c-.33-.11-1.06.34-1.22.17a13.77,13.77,0,0,0-1.17-.78c-1.72,1.11-3.61.45-4.22.45s-1.06.83-2,1.5-2.11-.23-2.72-.34a1.56,1.56,0,0,0-1.45.45c-.44.39.17,3.27-.11,3.77a45.18,45.18,0,0,0-2,4.34,5.27,5.27,0,0,1-2.67,2.72,17.8,17.8,0,0,0-5.16,3.56c-1.89,2-1.67,1.88-2.22,2s-.23,1.11-.5,1.72-1.89,1.5-2.12,1.84-.88.77-.83,1.22.89,3.94-.17,4.43-2.83,5.74-1.72,6.46.89,1.22.78,1.72a10.67,10.67,0,0,0-.06,2.28,9.28,9.28,0,0,0,.95,2.44,13.5,13.5,0,0,1,.55,3.5,25.21,25.21,0,0,0,1.45,4.67c.33.61.11,2.5.44,3.5s-.05,3.55.56,4.72-.78,2.45-1.06,3.33.45,2-1.05,4.17-.72,6.06.16,6.83a9.7,9.7,0,0,1,1.89,2.89c.06.23-2.66,1.84-2.66,3.23s-1.5,1.61-1.73,2.38-1.38.73-1.77.73-.67.61-1.84.55a2.4,2.4,0,0,0-1.61.34,1.93,1.93,0,0,0,0,.83,11.58,11.58,0,0,0,2.17,2.22c.44.28-.78,3.56-.95,4.06a14,14,0,0,0-.44,2.44,1.71,1.71,0,0,0,.82,1.22c.38.23.51,1.73.4,2.17s-.16,1.67-.34,2.44.12,2.28,0,3,.83,2.17,1.33,3.23.95,0,.95.5a5.11,5.11,0,0,0,1.44,2.83c.78.56.33.56.67,1.39s.78,2.17,1.33,2.37.61-.15,1.06-.15,1,.5,1.39-.33,1.83-.67,2-.67a3.87,3.87,0,0,0,1.31-1.72c.05-.5.05-1.5.55-1.33s0,0,1.5-2.78,4.73-3.28,4.67-3.5l.05.62s.54,1.87.71,3-1.06,3.06-1.28,4.78,1,3.39,1.17,3.89.94,5.33,1.38,5.5a3.73,3.73,0,0,1,1.28.5c.56.39.28.78.5,1.89s.5,1.22,1.34,1.5,2.5-2.72,3.16-3.17.45-1.78.34-2.05,1.22-1.39,1.11-1.61a21,21,0,0,0-4-2.95c-.61-.11-1.78-2.39-1.78-2.67S40,454.6,40,454.6c.61,1.44,2.28,1.72,2.78,2.28s1.72-.17,2.89-.56,2.72,2.17,2.94,2.22,1.89-.16,2.22.17a5.78,5.78,0,0,0,3.5,1.11c1.89.06,2.17,1,2.17,1,.17,2.83.56,3.89,1.22,4.22s3.17.11,3.17.78a2.58,2.58,0,0,0,1.67,2.06c1,.44,2.5,1.11,2.22,1.66s.66,2.39.5,3,.83,1.06,1.83,1.17a34,34,0,0,1,5.45,1.94c.77.39,3.38,6.67,3.38,7.06s-2.77,3.28-3.22,3.83-2.16.84-.94,2.5a3.67,3.67,0,0,0,2.78,1.61c.5.23,4.11-.88,4.5-.77s.83,1.33,2.11,1.44,3,0,2.83.28a14,14,0,0,0-2.22,3.55c-.61,1.73-.39,1.84-1.5,2.39s0,1,.83,1.34a9,9,0,0,1,2.5,2.27,3.42,3.42,0,0,0,2,1.39,4.22,4.22,0,0,1,2.55,1.28c.5.72.22,1.78.72,2.28a4.51,4.51,0,0,0,2,1.39c1.11.39,2.17-.95,2.17-.95A14,14,0,0,0,93.2,505c0-.5,2.44-4.34,2.44-4.67a2.53,2.53,0,0,1,1.72-1.61c.84-.06-.22-2.28.11-2.22s2.28-2.06,2.62-2.17a1.54,1.54,0,0,1,1.44.56,13,13,0,0,0,2.61,1.61c.67.39,3.06.28,4.34.61s1.88,3.72,1.27,4a1.18,1.18,0,0,0-.83,1.28,22.89,22.89,0,0,0,3.22,5.33c.61.44,1.5-1.22,2.33-1.06s2.17.39,2.39.39A10.87,10.87,0,0,1,120,507c1.17.28,3.28-.84,3.67-.84s.44-.77,2-.66.56,1.11.22,1.66,1.28.45,2.56.62.33-2.45.33-2.62a1.58,1.58,0,0,1,1.17-1c.67,0,.89.84.94,1.34s1,2.33-.88,3.28-.23,3.05-.23,4.05,3.56,2.11,4.5,1.95,1.56-2.78,2.17-3.95a3,3,0,0,1,2.33-1.61c.56,0,1.17,1.44,1.56,1.83s-.33,1.23.22,3,2.67,2.73,3.28,3.23.44,1,.89,1.66a14,14,0,0,0,2.83,2.72c.67.39.78-.94.78-.94a6.92,6.92,0,0,1,1.22.17c.83.16.67,2.11.67,1.5s2.83-4.78,3.05-4.84-.05-1.83-.27-2.44,0-.78.5-.89,3.55,1.28,4,1.44,1.5-3.22,1.83-3.11a21.18,21.18,0,0,1,3,2.56,12.47,12.47,0,0,0,3.5,1.44c.45,0,.12,1.06.34,1.28s.22,1.33.66,1.83-.44,1.45-.27,1.89.39,2.23.55,2.45,1.56.16,1.95.39a1.93,1.93,0,0,0,1.76-.5c.49-.45,1.24,0,1.79,0s.78-.56,1.5-.89.95-1.89,1.22-2.45.17-2.5,1.39-2.5.73.11,1.84-1.33.5-3.44.61-3.94,1.11-.39,1.5-.45-.28-1.39-.22-2,.38-3.28,0-3.94a4.7,4.7,0,0,1-.17-3.11c.39-.67,1.28-.23,1.23-.56s.44-.67.44-1,3.17-2.06,3.56-2.33-.45-.39-.67-.56a15.82,15.82,0,0,0-3.56-.78c-1-.05-.94-.72-.88-.89s.33-1,.11-1-.61-.77-.61-.77v-1.06l.61-.17.66,1s.39-1.33.61-1.33,1.17-1.56,1.17-1.56l.06-.67a1.36,1.36,0,0,1-1.11,0c-.5-.27.44-1.61.94-1.72a2.77,2.77,0,0,0,1.44-1.44,3.84,3.84,0,0,1,1.23-1.5c.39-.28,1.11.05,1.44,0s1.17-1.95,1.56-2.28.05-1.67.11-2-1.72-.72-2.22-1.16-.39-1.56-.34-1.84,1.28-.45,2-.22.34,2.05.34,2.05c2,.11,1.33-2.83,1.5-3s-1.78-1.83-1.16-2.05.16-2.17,0-2.34.13-1.39,0-1.83-1.26.33-1.54.33-1.11.89-1.61.84-.28-1.67.06-1.67,0-1-.5-1.67-1.89-.05-1.72-.77,1.44-1.17,1.88-1.5,1.56.27,1.56,0-.56-7.12-.56-7.66.95-.12,1.5,0,.39-1,.28-1.43-1.66-.13-3,0a19,19,0,0,1-4.16-.55l.38-2.11s.73-2.34.95-2.19a13.85,13.85,0,0,0,2.28-.37c.27,0,3.39,1.28,4.06-.94s-1.4-1.34-.51-2.28-.11-1.67.39-2.06-.67-1.55-.89-1.88a31.76,31.76,0,0,0-3.94-2c-.22-.12,2.05-4.5,2.05-4.5a17.2,17.2,0,0,0-1.77-.56,51.14,51.14,0,0,1-2.56-6.72c-.06-.5-.94-1.84-1.17-1.45a18.41,18.41,0,0,1-3.86,2.17c-.36.06-1.64-1.39-1.86-1.67s5-9.77,5-9.77a6.87,6.87,0,0,0-1.89-1.62c-1-.5-.72-1.88-1.25-2.16s-.64.5-1,1.22-1,.56-1.66.44-.67-1.55-.67-1.55a18.62,18.62,0,0,1-2.61-1.06c-1.17-.61-1.61.23-1.61.5s-1-.39-1.56-.44-.55-1.28-.66-1.78-.45-.11-.95.28-.61-.61-.89-.61-.11,1.5-.33,2.16-1.33.12-1.83.06-.5,1.56-.73,1.67-.5-.5-.88-.39-1,1.44-1.62,2.05a28.69,28.69,0,0,1-6.66,3.28,18,18,0,0,1-4-.72l-14.17,24-22.11-11.27L120.42,422s4-5.28,4.61-5.28,3.28-2.67,3.06-2.89a7,7,0,0,0-2-.22s-.06-2.5-.17-3-.22-1.11,0-1.11a18.88,18.88,0,0,1,2-.56c.5,0-.39-.61-.39-.61l4.89-7.83s-5.92-3.31-6.06-3.42a3.56,3.56,0,0,1,1.06-2c.55-.45.94-1.45.5-1.92a6,6,0,0,1-.92-2.33c0-.28-.75-2-1.11-3.7Z"/><text/><text class="cls-2" transform="translate(114.53 70.89)">双华社区</text><path class="cls-3" d="M89.52,85.84s1-2.59.52-3-4.15-2.22-4.41-2.52-4.29-4.7-4.44-5.44-2.74-2.82-3.26-3.11-.82-1.86-1.19-2.52a23.72,23.72,0,0,1-1.85-4,6.1,6.1,0,0,0-1.7-3,9.38,9.38,0,0,1-1.85-2.44,4.5,4.5,0,0,0-1.93-2c-1.41-.89-4.07-2.23-4.3-2.52S62.22,53,61.85,52.43s-2.88-2.66-3.7-2.74a9.24,9.24,0,0,1-4.44-3.26c-.67-1.33-3-4.59-2.89-5.63s.89-.29,1.4-1.55A6.78,6.78,0,0,0,53,35.91a1.14,1.14,0,0,1,.88-1.4c.37-.08,1-.3,1-.6s.66-1.26.22-1.7-2.22-1-2.22-1.48.66-.52.15-1.11a17.12,17.12,0,0,1-2.16-3.11,2.4,2.4,0,0,0-.44-1.41,17,17,0,0,1-2.22-3.26c0-.37-.89-1.78-.89-2.07a20.39,20.39,0,0,1,0-2.08,5.23,5.23,0,0,0,.3-2c-.15-.81-.33-3.92-.33-3.92a19.18,19.18,0,0,0,4.11,0c.66-.3,1.11-1.12,1.33-1.34s-1.26-1.26-1-1.85,1-.67.45-1.48-.89-1.48-.67-1.48,2.15-.6,2.15-.89.22-.82,0-.89S54.3,3,54.3,3s1.63,1,1.63,1.41.52.74,1,.22,2.59.52,2.81.6S62.52,7.1,63.41,7s1.7.08,1.7-.59.18-1.41.57-1.11S70.74,7.39,71,7.77s.37,1.25,1,1,4.59-2.22,4.89-2.37S81,.28,81.71.51s38.51,13.26,38.51,13.26,10.38,4,10.67,3.85,1-.23.74-1a8.72,8.72,0,0,1,.07-2.88s1.19-.23,1.71.22,1.11-.15,1.19.07-.08,1,.44,1.19,1.18.66,1.26.44.59-1,1-1,1.93.52,2.37.3,1.48-2.67,1.48-3.85a12.27,12.27,0,0,1,.3-2.45,19.93,19.93,0,0,0-3.26-.14c-.59.14-.59.44-1.11.44s-7.48-.15-7.78-.37.22-2.44.22-2.44l9.71,1.7,4.59-.22s.67-1.48,1.11-1.63,1,.37,1.26.29.82-.44,1.11-.14,5.27,3.77,8.53,2.81,4.73-1.7,5.92-1.7,1.77.59,2.29.37a12.77,12.77,0,0,1,3-.89c.67,0,2.89-4.15,4.15-4.08s.22,1.93.29,2.15,1.34,2.45,1.34,2.45a3.5,3.5,0,0,0-.6.89c-.29.59-.29,2.29.08,2.44s1.18.44,1.18.89a4.82,4.82,0,0,0,.6,2,1.59,1.59,0,0,1,0,1.41,1.44,1.44,0,0,0-.67,1.18c.07.52,1,.45,1.56.82s.74.29.51,1-.42,1.34.09,1.71,1.27.52.67,1.77-.76,1.19-.76,1.63-1.92.45-2,.89S177,31.77,177,32.43a4,4,0,0,0,.37,2.15c.37.44,1.26,1,1,1.41s-1,.52-1,.81,1.41,1,1.41,1.56-.82.66-1.11,1-2.15,1.78-2.23,2.15-1,2.52-.44,3,3.85,1.85,3.41,2.74-4.08,9.48-4,9.71,1.94,1.63,1.79,1.92-1.72,2.37-1.42,2.59a7.79,7.79,0,0,1,1.78,1.71c.44.74.44,1.63.88,1.7s.08,1.63.08,1.63a1.72,1.72,0,0,1,.89,1c.29.81,1.92-.15,2.44-.22a1.22,1.22,0,0,1,.89.22l.52,1s.59-1,1-.52a13.42,13.42,0,0,0,3.34,2.81c.66.15.66,2.74,1,2.89s1,1.33,2.22,1.85,1.41,1.34,1.93,1.78,1.48,2.3,2.82,2.89a16.49,16.49,0,0,1,3.62,1.93c.23.37-.22,1,0,1.11s2.82,1.33,2.89,1.7a5,5,0,0,1,0,2.59c-.37.82,2.74-.07,3.78.37s5.85,3,5.85,3-3.26,6.89-2.81,7.26,1.18.22.89,1.11-4.89,10.81-5.41,10.81a6.36,6.36,0,0,1-1.85-.81s0,1.55-.3,1.63-1.11.37-1.18.74-.6,2.22-1.26,2.37a3.73,3.73,0,0,0-1.85,1.7,29.79,29.79,0,0,1-1.93,3.7c-.52.6-.59,1.78-1,1.93s-1.55.82-1.63,1.33.37,4.08.15,4.67a27.35,27.35,0,0,0-1.41,3.56c0,.51-.07.74.74,1s10.37,4.89,10.75,5.48a11.38,11.38,0,0,1,.74,3.63,13,13,0,0,1,.07,2.37c-.15.6-.44,2.52,0,3.26s1.11,1.63.89,2.3-3.63,7.19-4.22,7.93-3.19,4.66-3.56,4.81a3.19,3.19,0,0,0-1.26,1.33,17.46,17.46,0,0,1-1.55,2.23,38.84,38.84,0,0,0-3.49,5.7c-.14.74.52,2.3,0,2.82a22.82,22.82,0,0,0-2.37,2.51,29.33,29.33,0,0,0,4.82,3.49c.37,0,4.07.29,4.89,1.85,0,0,4.07-.08,4.29.37s2.45.59,2.82.74a4.91,4.91,0,0,0,1.78.66c.66,0,2.44-.74,2.74-.37s.37,1.34.89,1.63.52,1.86,1.11,2.3-1.48.44-2.08,1.11-1.26,1.33-2,1.33a13.92,13.92,0,0,1-2.51,0c-.45-.14-1.49-1.25-1.86-1.25s-2.22.51-2.52,2l-1.11-.52s.74-.37.6-.67a35.53,35.53,0,0,0-3-3.35c-.66-.61-3.66-.33-3.94-.39a15.74,15.74,0,0,1-2.22.06c-.45-.17-1.67,1.44-1.67,1.44s-2,1.06-2.33.83-1.56.39-2.23-.33-3.83-3.06-3.83-3.06l-2.5,3-2.94-2.22-1.95,2.56s-3.33-1.28-1.89-3.39,2.78-3.61,2.78-3.83.89-2.23-.61-2.84-3.78-1.66-3.78-1.66L166.48,183a2,2,0,0,0-1.44.11,2,2,0,0,0-.72.78L160.54,182l-7.11,15.67-12.78-4.61-1.5.94-5.89,17.56-23.94-1.33a10.34,10.34,0,0,1,.11-2.84c.28-.72,4.33-12.66,4.33-13.16s-1.16-1.28-1.39-1.39,1.11-.84,1.17-1.61.5-1.89,0-2.23-2.78-1.44-2.83-1.72,1.44-2.39,2.33-2.44,1.94.33,2.06-.84.05-2.33.16-2.72-.43-.78-1.1-1.22-.23-1.67-.84-1.89-1.39-1.11-.84-1.44a12.66,12.66,0,0,1,2-1c.28-.06,2.12,1.44,2.12,1.44l1.61-.5s1.11,1,1.44.61S123,166.77,122.82,166s-.28-2-.84-1.61,0,1.55-2,1a7.85,7.85,0,0,0-.5-2.34c-.33-.44-1-1.66-.11-1.89s1.95-.77,1.61-1.44-2.66-2.33-2.33-2.67.56-.83.78-.77,1.22,1.44,1.67,1.27,1.72-.66,1.72-1.33-4.5-3.83-4.95-4.89-.89-.89-.89-.89a14.27,14.27,0,0,0,.23-3.22c-.23-.33.44-.61,1.61-.33s1.89,1,2.5.66a2.34,2.34,0,0,0,1.28-1.72,3.3,3.3,0,0,1,.88-2.17,2.47,2.47,0,0,0,.84-2.05c-.17-.61-.84-1.89-.56-2.5a10.85,10.85,0,0,1,.89-1.95c.45-.61,1.28-1.33,1.06-1.66a20.07,20.07,0,0,0-1.17-2.17c-.28-.22-.94.39-1.22.17s-1.06-.72-.84-1.11.34-1.61.62-1.61,2.05-.23,2.61.16,1.44-.39,1.55-.72,1.56-4-2.61-8.06c0,0,1.33-.11,1.89.56l1.78-1.17s-.28-1.94.44-2,.72.89,1.89,0,.83-1.66,1.5-1.55,1.11-3.84.72-4.89.34-.11.67-.11.72-.72,1.83-.56,2.17.22,2.23-.05-4.73-1.45-4.73-1.45-.61-.78-.89-.78-.5.12-.11-1,.56-3.27,1-3.33a1.65,1.65,0,0,0,1.34-1c.27-.67.83.45,1.16.28s.89-4.78.89-4.78l2.06.33s-2.11-5.5-4.11-6.38c0,0-.89,1.38-1.06,1.16s-1.17-.5-1.5-.78-2.83.06-2.39-1.66,1.06-2.11,1.06-2.11-.61-1.23-1.45-1.5-1-2.28-.77-2.89-.56-.84-.73-.84-3.66-.27-4.66.17-1.45.72-1.78,1.56-.28,2.11-.5,2.27a23.83,23.83,0,0,0-1.61,1.84c-.56.66-.78,1.78-1,1.89s-.89,2.05-1.06,2.05-1.05-1.28-1.39-1.28-.83,1.5-2-.33a4.32,4.32,0,0,0-3.66-2.11c-.67.06-1.06.67-1.5.67s-1.78,1.05-2.11,1.05a22.4,22.4,0,0,1-2.5-.78s-2-3.5-4.17-3.22S97.82,89,97.54,89s-.83,1.22-2.22-.06S93,85.38,92,85.49,90,85.86,89.52,85.84Z"/><text class="cls-4" transform="translate(92.31 44)">双<tspan x="0" y="36" xml:space="preserve">     华</tspan><tspan x="0" y="72" xml:space="preserve">         社</tspan><tspan x="0" y="108" xml:space="preserve">      区</tspan></text><path class="cls-5" d="M89.69,85.65s2.5-.72,2.83-.38,3.94,4.22,4.39,3.94.55-.67.83-.56.67,1.12,1.17,1.06.94-1,1.39-.78a23.14,23.14,0,0,1,3.28,2.78c.55.67,2.55,1.78,2.94,1.5a6.65,6.65,0,0,1,1.89-.94c.33,0,1.33-1,1.72-.84a5.36,5.36,0,0,1,2,.67c.88.61,1.68,1.94,2.45,2s1.6-.22,1.66,0,.33,1.67.55,1.22,1.28-1.61,1.34-1.94a6.45,6.45,0,0,1,1.27-2.28c.39-.22,1.61-1.45,1.56-1.83a5.56,5.56,0,0,1,.33-2.39,4.68,4.68,0,0,1,2.06-1.23c.72-.05,3.55-.77,4.44-.05s1,.83.67,1.5a2.09,2.09,0,0,0,.72,2.05c.28,0,1.89.84,1.39,1.39s-1.56,1.95-1.22,2.17.74,1.39,1.32,1.39,1-.22,1.46.22,1.44.89,1.72.22,1.61.06,1.83.28,3.33,5.5,3.33,5.5-2.11-.89-2.44-.55-.33,4.88-.67,5-1.55-.78-2.33.88-1.89,3.23-1.22,4,4.89,2.23,5.55,2.23-4.55,0-4.55,1,.55,3.66-.11,4.22-.3.52-.67.55-1.07,1.23-1.41,1.45a2.5,2.5,0,0,1-1.92,0c-.26-.3-.85,1.22-.48,2s-1.52,1.44-1.89,1.29-1.71-1.18-1.71-.74,3.34,3.41,2.74,8.23a2.91,2.91,0,0,1-2,.37c-1.11-.23-2.29.07-2.29.44s-.82,1.41-.6,1.78.6,1,1.71.37l1.55,2.37s-.88-.07-1,.3.15,1-.07,1.26-.6,1.55-1,2.22.52,1.55.52,2.22a4.7,4.7,0,0,1-.81,2.1,7.47,7.47,0,0,0-1,2.12c-.07.52-.52,2-1,1.93s-3.18-1.19-3.55-1-1,.45-.82.74-.37,2.52-.14,2.82a18.11,18.11,0,0,0,2.51,2.66c1.11.89,3.56,3.19,3.56,3.19l-1.78,1.63s-1.55-1.71-2.07-1.41-1.19.67.15,1.85,1.85,1.48,1.55,1.93-1.11.74-1.55,1.11-.15,1,.07,1.93a10.32,10.32,0,0,1,.59,2.14c-.07.37,1.11.6,1.26.3s.52-1.33.82-.89.44.5.51,1S120.08,177,120.08,177a8.46,8.46,0,0,0-2-1c-.45,0-.89,1-.89,1l-2.66-1.71L112.59,177a3.7,3.7,0,0,1,.89,1c.15.37.61,1.85,1,1.85s1.47.74,1.32,1.26a8.83,8.83,0,0,0-.29,2.74c.15.52-1.41.89-1.85.89h-1l-1.29,2.3a13.34,13.34,0,0,1,2.4,1.7c.15.37.44,1.85.15,2.22s-1.71,1.26-1.34,1.34a9.36,9.36,0,0,1,1.74,1.33l-4.62,13.78-.6,4.74a15.29,15.29,0,0,1-6.59.37,34,34,0,0,1,1.7,4.37c0,.59.74,3.55.3,4.59s-.15,1.93-.74,2.37a2.12,2.12,0,0,1-2.15.45c-.67-.37-5.85-1.48-5.85-1.48s.44-3.12-.22-3.78-4.74-1.78-5.34-1.71-2.14,0-2.81.67-1.78,5.48-2.37,5.93.07,4.74-.74,5.92c0,0-1.93-.7-2.59-.44a9.9,9.9,0,0,1-3.19.22c-.3-.11-1.52-1.44-2.18-1.89s-3.89.11-4.52.11-2.45-.48-2.37-.7,2.11-.15,2.26-.59-.45-.67-.71-1a11.87,11.87,0,0,0-1-1.37c-.3-.3-1.19.48-1.52.29s-1.56.86-1.7,1.19-.5,1.85.27,1.93,1.87.33,2,.7,1.11,1.37.88,1.89.41.48.78.48-1.33,1.37-1.4,1.85-2,.59-2.08.34-.44-.52.19-.78,1.44-.56,1.37-1-.19-1.63-.48-1.85-.56,1.67-1,1.63-1.82.63-2.08.11-1.18-.74-.74-1.26,1.26-1,1-1.67-1.08-1.85-1.08-1.85-1.21,1.52-1.51,1.3-2.3.66-2.22.78.52,2,.33,2-1.92,1-2.26.77-.52,1.61-.48,2-2,.57-2.18.24-.45.34-1,.17-1.15-1-1.78-1a34.8,34.8,0,0,0-3.89-.33c-.59.15-3.29-.67-3.37-1.15s4.85-1.89,5.22-2.48.89-.63.15-1.41-2-1-1.81-1.56,1.29-.11,1.33-.55-.37-.7-.22-1a13.25,13.25,0,0,1,1.11-1.33c.18-.26.67-.63.81-.45s.86.78.93,1.19,0,.85.56.74,1.37-.26,1.51-.74.49-1,.37-1.22-.48-.41-.37-.6,1.12-.55,1.3-.88.67-1.15,1-1.19a.52.52,0,0,0,.34-.74c-.15-.3-1.3-.11-1.85-.59s-.65-2.17-1-2.34-1.27.95-1.44.95.63,1-.8,1.61-2.33.63-2.61.26.43-.46,1-.72,1.87-1.17,1.63-1.34-2.19-.64-2.46-.87-1.87-1.44-2.91-1.29-2.59.52-3,.59-.6.74-1.86.44-2.07.67-2.44.08-2.22.29-1.85-.67a11.34,11.34,0,0,1,1.48-2.3c.3-.44.89-.88.67-1.77s-.23-.6.29-.6-.07,2.15.6,2.23,1.33-1.48,1.18-1.78a.76.76,0,0,1,.59-1c.45,0,.41.92,1.78-.78a8,8,0,0,1,2.59.07c.6.3,1.49.3,1.63-.33s-.14-1.22.08-1.56.33-.55-.22-.55-1-.52-1.19-.45-.41,1.08-.7,1a9.9,9.9,0,0,1-2.26-.15c-.41-.22-1.78.74-2.11.48s-.82-1-.45-1.51,1.3-2.15,1.59-2.45a6.42,6.42,0,0,0,1.41-3.74c.08-1.93.22-1.81.82-1.89s2-.3,2.29,0,1.15,1.37,1.71,1.15,1-1,.92-1.26-.55-1.33,0-1.89,7.18-.26,7.18-.44a7.44,7.44,0,0,1-.07-3.6s-9.81-11-10.18-11.11a5.65,5.65,0,0,1-1.86-.26c-.52-.29-4.33-3-5.07-3.59s-4.15-1.11-4.82-1.63a25.05,25.05,0,0,0-4.88-2.22,35.3,35.3,0,0,1-5-.74c-.74-.3-1.78.15-2.45-.45s-2.29-1.55-2.51-2.07.29-2-.37-2.89a8.32,8.32,0,0,1-1.49-2.3c-.07-.51-.74-.81-.74-.81s-1.63.44-1.55,0-1-1.93-1.11-2.15a7.38,7.38,0,0,1-.82-1.26c-.07-.29-.59-2.22,0-2.66s.82-3.26.89-3.86a7.06,7.06,0,0,0-.07-4.14c-.74-1.78-.52-3.78.51-4.37s5.78-1.58,6.52-1.83,6.23-2.54,6.3-3.14-.67-2.59.15-3.18,1.78-1.78,1-2.22-.74-1.49-.89-2.08a5.61,5.61,0,0,1,.15-2.52c.22-.37-.37,0-1.41-1.11s-.31,1.15-.68,1,0-1.83-.15-2.24a11.18,11.18,0,0,0-.37-1.67c-.17-.18.05-.83.15-.89s1.68.56,2,.3a3.17,3.17,0,0,1,1.41-.56,16,16,0,0,0,4-1.29c.44-.41.77.44.89,0s-.56-2.08-.15-2.82a36.65,36.65,0,0,0,1.92-4.37,2.3,2.3,0,0,1,1.49-1.7,6.55,6.55,0,0,0,2.37-1.37c.4-.41,1.33-4.71,2.48-4.78s1.29,1.48,1.81,1.7,1,1.37.45,1.41-1.41.85-1.82,2-.48,2.11-.78,2.15S45,117.51,45,117.77s-.55,1-1,1-1.55,1.18-1.4,1.85,1.15.52,1.52.81a7.45,7.45,0,0,0,2.22,1.89c1.11.45,1.11,1.23,1.44,1.23a13.92,13.92,0,0,1,2.48-.63,10.35,10.35,0,0,0,2.78,0c.74-.23,2.15-.82,2.74-1s1.93-1.15,2.08-1a8.07,8.07,0,0,1-1.82,5s-.29.6,1.59,1,.71,1.63.41,1.85-1.66,1.34-1.55,1.59.37.41.92.41,2.59-.52,3.19-.52a16.91,16.91,0,0,0,3-.29c.56-.19,2.08-.22,2.15-1.82a4.11,4.11,0,0,1,1.35-2.7c.17-.22,3.06-4.41,3-4.63a1.6,1.6,0,0,0-.37-1.59,3.8,3.8,0,0,1-.7-2.74,9.52,9.52,0,0,1,1.26-1.41c.22-.15.33.63.59.59a.92.92,0,0,1,.78.33c.07.19.11.67.41.45s.92,0,.92.26.82.66,1.26.59.82.63,1.89-.07a6.81,6.81,0,0,1,3.3-1.3c.85,0,1.7-.52,2.51-.48s.45-.82.45-1.11.15-2.78.26-3.45a15.81,15.81,0,0,1,.89-3.11,14.46,14.46,0,0,0,1.11-4.15,29.27,29.27,0,0,0,0-3.44,12,12,0,0,1-.93-2.89c0-.7,1-4.18,1.67-4.81S89.37,87.25,89.69,85.65Z"/><text class="cls-6" transform="translate(23.39 163.21)">文庙社区</text><path class="cls-7" d="M43.8,203.23s-2.11,2.74-1.89,3.45.24.7.94.7,1.62-.44,2.17-.33,2.15.48,2.19-.08.29-.92.81-.89.93,0,1.07.26.38,1.45,0,1.89a1.79,1.79,0,0,1-2,.63c-.88-.33-1.33.18-1.49.11s-.39-.26-.58-.22a16.93,16.93,0,0,1-1.67,1H43c-.26,0-.63,1.07-.82,1.66s0,1-.24,1-.57.26-.8,0,.38-2.44,0-2.48-1,0-1,.22.29.67,0,1.45.16.92,0,1.14a3.58,3.58,0,0,1-1.07.56c-.44.22-1.74,1.11-.33,1.44s1.74.3,1.93.52,1.48,0,2.11,0,1.26.59,1.44.09,0-.75.45-.75,1-.26,1.63-.34,1.14-.59,1.37-.37a4.89,4.89,0,0,0,1.44.78c.33.07,1.48.82,1.7.89s2.23.59,2.12.74-1.15,1.52-1.75,1.41-1.14,0-1.14.22,0,.63.59.63,2.18.15,2.52-.45.78-1,.78-1.48a1.32,1.32,0,0,1,.77-1c.23,0,.37,1.92,1.19,2.18s1.52.7,1.85.59-.3,1.49-1.3,2.11-1,1.15-.81,1.23-.15,1.6-.7,1.69a2.32,2.32,0,0,0-1.12.34c-.33.23-.59-.26-.77-.85s-.71-1-.86-1a9,9,0,0,0-1,.78c-.45.37-1,1.07-.71,1.37s.49.63.3.63-1.52.15-1.59.48,1.55,1.07,1.81,1.52.93.37.52.89a3.78,3.78,0,0,1-1.63,1.07,12.43,12.43,0,0,1-1.59.74c-.33,0-1.74,1-2.11.78s-.3,1.07.81,1.29a7.53,7.53,0,0,0,2.52.49,9.21,9.21,0,0,1,4.41.7c1.15.67,1.33.52,1.78.44a5.59,5.59,0,0,1,1.77.07c.49.12.78.12.63-.47s-.22-1.67.3-1.82,2.41-.15,2.3-.85a9.8,9.8,0,0,1-.41-2c.11-.33,2.26-.26,2.26-.7s1.78-1.67,1.92-1.26.74,1.44.67,1.74.3.41-1,1.67c0,0-.85,2,.63,1.41a2.49,2.49,0,0,1,2.29,0s1.37-.11,1.26.26-1.83,1.15-1.54,1.29,1.84.45,2.21,0,.85-1.45,1.63-1.56-.45-.3-1-.63.22-1.41-.41-1.81a3.93,3.93,0,0,1-1.07-.86c-.33-.37-.63.19-1.15,0s-.48-1.48-.55-1.92,1.66-1.11,1.81-1.33.22,0,.93-.15.78-.26.92,0,1.06.89.81,1.41,2.19.85.42,1.19-2.45-.41-2.3.07,1.85,1.08,2.3.93a8.16,8.16,0,0,1,2.44-.41c.41.11,1.89-.11,2.22.11s.71,2.19,1.93,2.19a10.7,10.7,0,0,0,2.67-.08A7.61,7.61,0,0,1,84,230c.44.37,3.22,5.26,3.14,6.22a30.81,30.81,0,0,1-1.62,6.48,21.58,21.58,0,0,0-1.26,5.15,10.56,10.56,0,0,1-1.89,4.48c-1,1.15-1,3-1.3,4s-5.85,20.51-5.85,20.51l6.3,2-2.3,7a2,2,0,0,1,1,.89c.37.67.15,1.7.82,1.7s1.63-.07,1.92.37.6,1.49,1.11,1.19a2.59,2.59,0,0,1,1.78-.3c.45.15,8.59,3.78,10.82,3.93s1.77.89,2.44.89a5.61,5.61,0,0,1,1.93,0c1,.22,6.22,2.52,6.22,2.52l2.3-3.93a23.51,23.51,0,0,0,2.07,1.19c.3.07,1.11-.67,1.7-.45s.37,1.26.89,1.26,2.08,0,2.08-.52.74-4.37,1.11-4.15,6.44,3.26,6.66,3.56,1.93,3.11,3,3,1.55.51,2.22.44,2.18-2.74,2.18-2.74a7.56,7.56,0,0,1,2.56-.44c1.89-.12,2.89-2,3.78-1.89s1.78-.78,2.11-.11,1,1.22,1.22,1.88-1.67,2.5-.55,3.31a4.11,4.11,0,0,0,3.44.92,6.9,6.9,0,0,1,2.56.06s-1,.83-.67,1.71-.11,2.34.67,2.45,1.55-1,1.88,0a3.71,3.71,0,0,1-.66,4.22c-1.56,1.78-1.34,2.22-2.78,1.89s-4.67-.67-5.33.67,1.11,3.33,1.77,4.55,1.34,1.34,1.56,2.11.11,2.45,1.78,2.78a2.64,2.64,0,0,1,2.33,2.33c0,.78,2,2,1.71,2.78s-2,4-1.71,4.78-1.55,4.14-1.33,5.18-1.89,5.71-2.45,5.82a4.5,4.5,0,0,1-2.11,0c-.89-.22-2.52,3.3-2.52,3.3l-14-8.15s1.15-2.48.19-2.93-1.15-.66-1.86-.15-1.37-.92-1.81-1-.33.93-1.56-.11-1.52-1.07-1.29-1.56.77-1,0-1.48a19.1,19.1,0,0,0-3.89-1.74c-.48,0-1.52,1.19-1.89.93s.07-1.63-.11-1.89a33.64,33.64,0,0,0-3.26-1.59c-.19-.11,2.74-3.45,1.48-4s-7.67-2.81-7.67-2.81-2.44,4.59-3.51,5-1.63-.07-1.75-.78a1.15,1.15,0,0,0-1.77-.7,5,5,0,0,0-1.63,2.11c-.08.33.15,1.3-.74,1.63s-2.11.67-2,1-.63,2.26-1,2.26-2.45-1.19-4.11-.82-1.26-.92-.71-3.33-.89,1.3-1.22,1.26-1.63-.82-1.85-.78.81-2.07.81-2.07,1.74-.36.83-1-2.25-.66-2.92-1.22-2.75-1.5-2.81-2-.86-1.28-.63-2.33-.78-1.39-1.34-1.5-1.58-.78-1.89-.47a3.87,3.87,0,0,0-.16,2.33c.16.47,1.25,3.92,1.25,4.25s.52,1.53-.34,2.11-1.33,1.36-2,1.14a20.38,20.38,0,0,1-1.83-.92,7.43,7.43,0,0,0-2.09.06c-.44.05-1.25.22-1.38.8s.58,1.81.44,2.28-1.09-.41-2,1.28c0,0-1.51.11-1.68,1.31s.22,1.13-.69,1.66-.81,1.34-1.86.78-.78-1.64-1.12-1.61-1,.72-1.25.61-.36-.33-1,0a17.67,17.67,0,0,1-2,1.3c-.28,0-1,.28-.36-.75a.93.93,0,0,0-.58-1.55c-.34,0-.75-.36-.67-.67a4,4,0,0,0-1.05-1.89c-.37-.28-2.45-2.64-2.25-2.94s.86-.34,1.27-.39.78-.42.56-.64-2-1.81-1.89-2.17a1.66,1.66,0,0,1,1-1.11c.58-.19,1.22-.28,1.44-.61s-.44-1.22-.8-1.28a2.62,2.62,0,0,1-1.28-.94.35.35,0,0,0-.42-.33c-.25,0-1.22,1.11-1.75-.2s.31-1.86.64-1.94.72-.28.72-.36.23.58.56.52,1.5.14,2.17-.66,1.75-.64,1.55-1.64-1.25-1.81-.92-2.2a8.41,8.41,0,0,0,.87-2.16c.05-.28.61-.23.88-.23s.45-.63.5-1,.56-.22.7-.22,1.19-.31.83-.58-2.14-.42-2.16-.64a27.37,27.37,0,0,1-1.64-3.45,29.3,29.3,0,0,0-2-4.83c-.3-.31.14-1.81.2-1.94a11.73,11.73,0,0,0,.55-2.2,16.31,16.31,0,0,1,1-2.47,2.62,2.62,0,0,1,.81-2.42,5.87,5.87,0,0,1,.53-1.72c.25-.19-1.42-1.19-1.42-1.19s-1.33.77-2.22.36-.2-.78-.83-1.2-1.64-1-1.81-1.64a15.53,15.53,0,0,0-.61-2.72c-.28-.39-1-.33-1.72-.08s-.17-.39-.67-1.36-1.44-2.36-2.53-2.67a1.26,1.26,0,0,0-.94-.92c-.78-.16-.72-1.08-2.17-.91s-1-.36-1.39-.48-2-.3-2.14-.58-.86-.69-.83-1.05-.89-1.07-.81-1.44-1.5-.76-1.72-.84-2.19-1.28-2.36-1.28-2,.94-3.08.19-3.39-2.44-3.67-2.58A8.52,8.52,0,0,1,23.22,262c-.2-.61-2.48-3.64-2.84-3.64s-1,.47-1.05.42-.53-3-1-3.2.33-.67,1-.94a2.32,2.32,0,0,0,1-2.36c-.15-1-.09-1.59-1.18-2s-1.36.08-1.94-.09-.53,0-.69-.11-5.59-3.22-6-3.25-1.5-1.22-1.91-1.3a1.21,1.21,0,0,1-1.09-1.09,5.5,5.5,0,0,0-.75-1.91c-.11-.09-1.44-2.34-1.61-2.5s-.08-.87-.22-1.25a3.49,3.49,0,0,1,0-1.7,2,2,0,0,0-1.5-1.92s.42,1,0,1.28-1.14-.3-1.72-1.11a4.63,4.63,0,0,0-1.14-1.08,1.18,1.18,0,0,1,.42-1.2,3.88,3.88,0,0,0,1-1.69c0-.17,1.05-.83,1.38-.86a2.14,2.14,0,0,0,1-.64,2.18,2.18,0,0,1,1.86-.06,5.58,5.58,0,0,0,2.81.64A13,13,0,0,0,13,230c.86-.42,2.61-.14,3.2-.28a32,32,0,0,0,3.5-.83c.66-.31,2,0,2-.92s-.2-1.5-.2-2.14.28-.77.67-1.52a4.26,4.26,0,0,0,.16-2.92,5.79,5.79,0,0,1-.08-4.2c.7-1.66.72-1.66.72-2.13s.86-.59,1.17-.87a.62.62,0,0,0,0-1c-.36-.33-1.14-.94-.36-1.61s1.2-.64,1.28-1.89,1.08-1.63,1.25-1.94.69-1.42,1.5-1.5,2.78-.39,3.17-.5,1.94-.19,2.58-.31,2.64-.47,2.58-.72-.47-1.75.5-2.11a10.57,10.57,0,0,1,3.09-.69c.66,0,1.88-.23,2.05,0s.22.89.7,1S43.8,203.23,43.8,203.23Z"/><text class="cls-8" transform="translate(38.02 254.64)">王<tspan x="0" y="25.2" xml:space="preserve">   家</tspan><tspan x="0" y="50.4" xml:space="preserve">     场</tspan></text><path class="cls-9" d="M81.64,279.34,79.42,286s1.78,1.94,1.44,2.83,2.11-.78,3.11,1.78c0,0,1.23-.78,2-.39a84.45,84.45,0,0,0,8.73,3.39c1.16.16,4.16,1.72,4.72,1.5s.89-.61,1.39-.39l6.5,2.83s1.89-3.89,2.27-3.78A20.85,20.85,0,0,0,112.2,295c.44,0,.94-.61,1.11-.67s.66,1.28,1.27,1.39,1.89-.22,1.84-.72a29.82,29.82,0,0,1,1.11-4s5.83,2.94,6.17,3.27,2.38,3.06,3.38,3.28,2,.67,2.23.5,2.5-2.11,2.5-2.89,3.27.28,4.5-.94a5,5,0,0,1,3.83-1.33c.39.22.56,1.61,1.11,1.72s.11,1.44-.44,1.44-.61,1.5-.17,1.67,1.83,1.61,2.39,1.5,3.55-.28,3.83-.28,1.5-.89,1.39-1.28.72-1.77.83-2.16-1.38-3.56-1.77-4.11-.78-1.45-1.28-1.73a2.16,2.16,0,0,1-.83-1.83,4.61,4.61,0,0,0-.06-4.44c-1.28-1.95-2.17-4.23-3.39-4.73a2.44,2.44,0,0,1-1.55-2.11c-.12-.66,0-1.83.44-1.78a29.22,29.22,0,0,1,4.83,2.56c.23.33,1.73.06,1.73-.44s-.34-2-.95-2.12-1.61-1.27-1.61-1.27-1.39.77-1.83.55-2.23.17-2.06-1.39,3.95-7.94,3.67-8.5-1.17-1.05-1.11-1.66,11.77-31.56,13.5-32.73a14.7,14.7,0,0,0-1.11-2.61c-.28-.16-6.12,11.11-6.34,11.11s-.78.95-1.94.17-2.78-2.17-4.11-2.22-16-4.78-16-4.78a1.54,1.54,0,0,1-1-2c.45-1.55,4.56-11.78,4.39-12.39s-.89-3.39-.17-5.05c0,0-20.38-1.39-20.72-1.39s-.83,1.66-1.33,2-1.17.55-4.11.44-2.28-.11-2.17.22a36.74,36.74,0,0,1,1.67,4.17,34.82,34.82,0,0,1,.39,4.56c-.11.61-.61,3.16-2.56,2.89a56.37,56.37,0,0,1-6.33-1.62c-.34-.11.55-3.5,0-3.88s-4.65-1.84-7.35-1.17a34.28,34.28,0,0,0-2.65,3.94c-.44,1.06-.66,2.23-.83,2.34a5.36,5.36,0,0,0,0,2.5c.22.44-.39,2.89-.39,3.33s1.06,1.67,1.28,2.28,2,3.72,1.94,4.16a34.33,34.33,0,0,1-1.22,4.78A34,34,0,0,0,84.36,248a6.42,6.42,0,0,1-1.44,4.33,11.8,11.8,0,0,0-1.84,4.45c-.22.55-6.11,20-5.72,20.44S81.64,279.34,81.64,279.34Z"/><text class="cls-10" transform="translate(96.36 254.64)">八角<tspan x="0" y="21.6">社区</tspan></text><path class="cls-1" d="M149.38,295.33a3.81,3.81,0,0,0-1.14,2,1.35,1.35,0,0,1-1.12,1.37c-.59,0-1.11-.22-1.25.11s.4,1.19.4,1.56-.26,1.92.56,2.29a13,13,0,0,0,2,1c.62.15.85,1.37.37,1.81s-.89,1.74-1.08,1.89-1.11.59-1.26,1.37-1.85.59-2.15.3-3.92-.22-4.59.63,3.08,6.15,3.15,6.37.07,1.81.56,2.33a2.52,2.52,0,0,0,1.81,1.08c.81,0,1.7.44,1.67,1s1,3.37,1.74,3.78-3.22,7.59-3.15,9.19.11,1.88-.07,2.29a31.76,31.76,0,0,0-2.08,4c-.07.67,0,.63-.22,1.07a12.5,12.5,0,0,1-1.11,1.85c-.15,0-1.15,1.12.18,1.12s2.11.82,2,1.09-2.37,1.24-2.07,1.57a15.46,15.46,0,0,0,2.74,1.74c.41.15,2.33,1.23,3.85,1s7-1.66,9.41-.59a3.24,3.24,0,0,0,3.07-1.52,1.89,1.89,0,0,1,2.08,1.37c.59,1.52,3.18,5.52,3.85,5.93a14.83,14.83,0,0,1,3.07,3.26c.34.7,3.67,5.22,4.08,5.22s1.5-1.3,1.9-1.11,1.8-1,2.17-.85,1,1.33,1.82,1.52.29,1.22,1.7.44c0,0,.48.07,1.59,1.59s4,2.11,4.22,2.45,2.86,1.81,3.67,2.89c.41-.08,4.67,0,4.67,0s6,2.55,7.48,5.44,3.15,6.48,6.15,6.3c0,0,.63-1.23,1.7-.63a.81.81,0,0,1,.89-.3.75.75,0,0,1,.56.93c0,.4,0,.52.4.52s2.76-5,2.76-5,.09-.43-.76-.31-2.66-1.58-2.07-3a3.82,3.82,0,0,1,2.3-2c.4-.18,1.4-3,1.59-3s2.52.81,2.52.81,7.55-16.5,7.77-16.61.34-1,1.12-.5l.77.5h0l15.23,7s.66,3.69.33,4.21-1.93.33-2.26,1.18-.33,1.71-.63,2.26a7.25,7.25,0,0,0-.56,2.45c0,.55.23,1.77,2.56,3.62a9.65,9.65,0,0,1,1.74,4.41s.48,1.78,1.41.82,1.44.15,1.52.44.89,1.26,1.51,1.26,1.12,1.93,1.52,2,.37.26.93,0,1.55-.59,1.85-.41a11,11,0,0,1,1.63,1.41c0,.15.26,2.3.45,2.07s.85-2.33.14-3.22a15.29,15.29,0,0,1-1.85-4.18c0-.34,1.63-.45,1.74-.71a14.7,14.7,0,0,1,.43-2.4,2.36,2.36,0,0,0,.61-2.19c-.15-1.41,0-4.33.78-4.11s1.81.26,1.81-.41.34-6.18,0-6.26-5-.48-5.15-.55-.59-1.37-1.66-1.34-.74-1.81-.74-1.92a4.57,4.57,0,0,0-.26-1.82c-.3-.4,1.22-.77,1.48-.55s0-4.08.22-4.26,1.56-1.59,1.74-1.52-1.22-1-.92-1.93,1-1.51,1.51-1.4,1.78.33,1.78-.52a16.41,16.41,0,0,0,.08-2.45c-.15-.11-.86-1.37-1.08-1.51s-1.07.14-1.33-.08.18-.41.44-.89.93-1.4.6-1.66-.6-1.3-2.12-.78c0,0-.22,1.66-1,1.89s-1,.44-1.29,1.52-1.71,1-1.93.48-.15-1.89-.92-1.6-3.41,2.19-3.67,2.12-1.15-.56-1-1,1.07-1.07.81-1.44,1.41-1.59,1.56-1.89,1-1,.48-1.67-1.11-2.07-1.37-2.07-1.19,1.52-1.45,1.52a1.3,1.3,0,0,0-1.48,1.4s.56.63.22.82a.84.84,0,0,1-1.14-.26c-.23-.44-1.52-1.41-1.63-1.11s-1.11,1.48-1.74,1.22-3.6-4.55-3.82-4.55-15.85-1.12-20-2.3-21.92-5.48-28.74-10.67l13.85-21.63,9.11,2.08,12.45-.71s-.59-2.77-.26-3.22,1.33-.81,1.29-1.18-.36-4.49,0-5.12.88-1.14,1.44-1.14,1.55-.74,1.3-1.11a3.28,3.28,0,0,1-.56-2.12,1.89,1.89,0,0,0-.19-1.81c-.4-.56.26-1.67.26-2.15s-1.14-.63-1.14-1.52-.45-.74-1-1.7a5.79,5.79,0,0,0-3.26-3.33c-2.14-.82-1.48-1.26-2.14-.82s-.6.82-1.12.82-2.88-.08-3,.29l-.62.23c.22-.61-1.83-2.83-2.44-3.28s-.45-2.05-.84-2.33a12.65,12.65,0,0,0-2-1.22c-.27-.06-5.88-6.23-6.72-6.67s-.61-2.33-1.11-2.61-.89.94-3.61-.78-.94-3.17-.56-3.83,1.39-1,1.89-1.5.11-1.17-.29-1.89.4-1.22.57-2-.83-1.28-.5-1.45.67-1.61.67-2.05,1.11-1.61,1.33-1.78a5.24,5.24,0,0,0,.17-4.78,10.73,10.73,0,0,1-.28-6.55c.33-1.78,2.56-3.39,2.94-3.56s1.73-.83,1.73-1.28,1.5-.39,1.83-.22,1.89-1.28,1.94-1.11,1.62.89,1.5,1.39.89,1.61,1.28,1.61a9.44,9.44,0,0,1,2.17,1.28,2.58,2.58,0,0,0,2.22,0c.39-.22.45-1.17-.05-2.11s.66-1.06,1-1.06,1.91.5,2.53.5,0-.55,2.44-.28,4.72-1.05,3.83-.94-1.39-.83-1.83-1.06.5-1.44.5-1.83.83-.78,1.5-1.11.88-1.5.83-2.11-1.89-1.39-3.33-2.84-.39-1.61-.17-2.27a1.62,1.62,0,0,0,.05-1.34,10,10,0,0,1,.67-3.72c.5-1.67-.78-3.61-1-4.2s-1-1.3-1.71-.82-.81-.15-1.18-.59-1.56-.74-2-1.33-1.66-3.34-2.07-3.86-.56.12-1-.18-.47-3.91-.41-4.52-.72-2.64-.89-4.33.42-1.31.69-2.45-2.25-3.64-2.25-3.64-1.39.59-2.22.87-.11.66-1.05,1.11-1.67.16-2.73.27a3.55,3.55,0,0,1-2.44-1.11c-.39-.33-1.45.06-2.33.89s-1.28.45-1.23.11-.5-1-.5-1.33-2.11-1.61-1.77-2.11-1.34-.56-1.62-.83-1.94.22-2.44.11-1.61.39-2.28.33,0,0-1.94,1.22a5.74,5.74,0,0,1-4.45.34l-3.72-2.84-2.78,2.84-2.5-2-2.39,2.33a16.5,16.5,0,0,1-2.17-1.56c-.79-.72.45-1.11.45-1.39s2.89-3.94,2.95-4.22.33-2.22.33-2.22l-4.67-1.89s-2.83,6.83-3.59,6.89-1.41.72-2,.83-3.55-1.5-3.55-1.5-7.06,15.39-7.34,15.39-11.77-4.33-12.22-4.5-.55,0-1.94,1.06S134,210.45,133.75,211s-2.11.05-3.17,1,.17,3.22.34,4.16-2.39,7.5-4,11.06.55,3.5.55,3.5,14,4,16.06,4.72,2.78,1.72,4.05,2.39,1.5-.11,1.89-.28,6.34-11.17,6.5-11.05a19.26,19.26,0,0,1,.95,2.44c-1.78,1-13,32.17-13.39,32.78s.83,1.11.94,1.66-2.83,7.67-3.33,8.84,1.78.83,1.89,1.16,1.33-.55,2.16-.38,2.45,2.44,2.12,3.05a1.25,1.25,0,0,1-1.78.5,31.08,31.08,0,0,0-4.89-2.55c-.78-.17-.11,1.05-.28,1.77s.56,1.39,1,2,1.78,0,1.89,1.17a6,6,0,0,0,2.05,3.33c.66.39.73,3.45.34,4.11s-.61,1.73.28,2.12,3.77,5.77,3.77,5.77S149.59,295.23,149.38,295.33Z"/><path class="cls-7" d="M182,456.09c-.22-.28.05-2.28.89-2.34s1.72-.66,2.22-.5a2.91,2.91,0,0,0,2.17.45c1.11-.28,1.88-.83,1.83-1.39s0-1.67-.56-2.17,1.23-.33.23-1.89c0,0,.66-1.66-.56-2.11s-4-1.61-4.06-1.94a44.93,44.93,0,0,1,2-4.5s-1.27-.06-1.72-.78-1.28-3.33-1.72-3.94a6.7,6.7,0,0,1-.89-2.61c0-.5-.78-1.89-1.05-1.89s-3.17,3.27-3.62,2.83-2.16-1.44-2-1.94,4.94-9.28,4.83-9.45-1.16-1.78-1.89-2.05-1.05-.17-.61-1.45l-1.16-.72s-.23,1.89-.62,1.94a4.06,4.06,0,0,1-1.61-.22c-.44-.17-.94-.89-.55-1.39l-4.17-1.44-.28.83s-1.77-.22-1.77-.72.16-1.45-.28-1.67-1.11,1.06-1.72-.22l-1,.94s1.16,1.17.77,1.17-1.5.11-1.66.11a1.45,1.45,0,0,0-1,1.72c.27,1.17-.45-.27-.89-.38s-1.61,2.44-1.84,2.38-5.83,2.67-6.27,2.73-1.67-.28-2.34-.28a3.43,3.43,0,0,1-1.83-.39c-.33-.28-14.44,24.28-14.44,24.28L113,435.92s8.83-15.83,9-15.89,3.39-4.39,5-4.83,1.28-1.5,1.28-1.5-1.67.5-1.67-.28-.11-3.5-.5-3.78,1.78-.39,2.11-.94,3.56-7.11,4.33-8.17L126.42,397l2.08-3.08s-1.56-2.3-1.41-3-.52-1.63-.67-2.22.23-2,1-2.15,2.67-1.26,3.19-1,1.4-2.29,2.07-2.81,5.7-8,7.56-8.67,1.11-.37,1.11-1.18-.82-2-1-2.74,1-1.34.6-1.78-1.71-1-1.71-1.41.74-1.11.45-1.78a2.08,2.08,0,0,1-.08-1.33A5.65,5.65,0,0,0,138.5,362c-.22,0-2.11,1.28-2.42,1.09a7.44,7.44,0,0,0-1.83-.53c-.31,0-1.75.67-2,.44s-.92-1.52-.12-1.66a11.94,11.94,0,0,1,2.75-.36,5.09,5.09,0,0,0,2.37-.78,5.47,5.47,0,0,1,1.47-.83c.5-.14.19-1.09.69-1.73s.89-1.33,1.39-1.25,1.58.23,1.81.59,1.61-.89,2.36-1,1.08.7,1.08,1.09.92,1.53,1.22,1.5.84-1,.5-1.84-1.41-1.25-1.66-1.52a8.27,8.27,0,0,1-1.11-1.92c-.14-.47-2.17-1-3.06-1.61s-.06-1.58-.64-2.17-1-.94-.3-1.39,1.58-1.47,2-1.3,2.91,2.61,4.66,2.55,2.42.59,6.39-.47,5,.58,5.56.5,1.91-2.08,2.39-2a2.57,2.57,0,0,1,1.91,1.42c.39,1,1.22,3.38,5.45,7.66s3.22,5,4.39,5.5.61,1.5,1.44,1.28a15.5,15.5,0,0,0,1.94-.94c.17,0,1.62-1.39,1.84-1.17s1.44,2.61,2.5,2.5,1.11-.78,1.5-.33,1.05,2.16,2.22,2.61a47.56,47.56,0,0,1,5.22,2.61c.45.33.39,1.61,1.56,1.61a45.89,45.89,0,0,1,4.78.05,51.05,51.05,0,0,1,6.38,3.89,20.31,20.31,0,0,1,1.89,3.45c.28.61,2.28,4.61,5.23,4.39,0,0,.27-1.11,1.72-.5s.94-.39,1.33.33l.39.72s3-4.61,2.87-5-1.48.61-2.37-1.17-.28-3.17.67-3.67a5.78,5.78,0,0,0,2.39-2.61c.44-1,.77-.72.77-.72l1.95.5s3.11-5.28,3.16-6,2-6.22,2.78-6.67,1.56-4.5,2.34-4.39,16.83,7.62,16.83,7.62.83,3.27.22,4.27-1.39,0-1.89,1.17-1.89,4.33-1.55,5a3.57,3.57,0,0,0,1.55,2.22c1.5,1.22,2.45,2.45,2.45,3.34s.5,3.16,1.05,3.33.72-.77,1.28-.55,1.11,1.49,1.56,1.66,1,.49,1.38.67A11.69,11.69,0,0,1,252,384c0-.55.7-1.74,1.48-1.55s2.4.18,2.48,1.48.18,2.48.48,2.11.63-.7.59-1.15-.29-2.52-.74-2.85-.41-1.26-.81-1.59-1.34-1.82-.85-2.11,1.7-.19,1.88-.63-.07-2.41.3-2.41.63-.52.56-1.82,0-4.55.89-4.18,1.81-.19,1.81-.52.41-6.22-.3-6.37-4.77-.44-5-.56-.66-1.59-1.44-1.4-.74-1.41-.78-1.74a15.61,15.61,0,0,1-.55-2c.11-.11,1.7-.48,1.81-.26s-.55-4.44.26-4.89,1.74-.7,1.48-1-1-1.51-.7-1.92.48-1.48,1.55-1.41,1.86.48,1.71-.41.7-2.11,0-2.66A3.71,3.71,0,0,1,257,342.7c-.12-.34-.52-.3-.93-.23s-.56-.14-.11-.66,1.26-1.22.81-1.78a2.65,2.65,0,0,0-1.92-.93c-.41.12-.22,1.67-1,1.93s-1.3.22-1.59,1.67c0,0-1.11,1.34-1.52.45s-.52-1.79-1.19-1.68-3,2.08-3.44,2-1.26.23-.89-.74.56-1.14.45-1.51,1.44-2,2-2.41a.84.84,0,0,0,.11-1.37c-.41-.22-.93-1.67-1.34-1.71s-1.33,1.41-1.63,1.49-1-.23-1.22,1,.19,1.74-.85.74-1.48-1.08-1.74-1-1.26,1.88-2,1.29a29.52,29.52,0,0,1-3.49-4.26v-.52s34.41,1.23,38.71,1,24.81,0,27.92.6,29.41,5.11,31,5.11,18.89,2,18.89,2-19,45.44-20.44,47.21-45.56,67.45-45.56,67.45L286,458s-17.48,25.63-18.59,26.6a44.64,44.64,0,0,0-5.55,8.44c-.6,1.56-4.52,8.37-3.63,12.67,0,0-4.3-.6-5.63-.6a4.86,4.86,0,0,0-3.26,1.26c-.67.67-.45,2.15-1,1.93a2.75,2.75,0,0,1-1.63-2.08c-.37-1.33-1-1.55.3-1.85s2.15-.66,1.92-1-1.18-1.78-1.63-1.85a16.54,16.54,0,0,0-2.29.29c-.22,0-3.34,1.63-4.15,1.19a1,1,0,0,1-.45-1.33s-2.74,1.48-3,1.55-.74,1.11.37,2.3,2,.74,2.15,1,0,2.89-.37,2.89a3.18,3.18,0,0,1-1.59-.31c-.41-.3-1.8,2.31-1.58,2.77s2.41,1.47,2.34,1.58.16,1.37-1.61.22-2-1.3-2-1.3-1.7,0-2.07.52-.41,2.22-1.67,2a7.59,7.59,0,0,1-2.7-1.11,6.12,6.12,0,0,0-2-.74c-.22,0,.52,2-.63,2.22s-2.15,0-2.63.3-1.29-.52-.81-1,1.13-1.45,1.05-1.71-4.16-1.63-4.83-2-.56-1.11-.19-1.74a3,3,0,0,0-.07-2.15c-.15-.26,1.93-.19,2-.48a6.71,6.71,0,0,0-.85-2.34c-.12,0-.45.49-.82.26s-.89-2.07-2.67-1.89a16,16,0,0,0-3.48.93c-.26,0-.78,1.22-.89,1.22s-.52.3-1.59-.29-2.18-1.63-2.18-2,.18-1.48-.41-1.89a21.36,21.36,0,0,0-2.19-1.37c-.44-.18,0-1.63-.33-1.77s-.33.77-1.52.29-1.18-1.85-1.3-2.66.08-3.15-.37-3.3-5.4,2.74-6,2.74a16.26,16.26,0,0,1-2.07.44,33.7,33.7,0,0,0-6.67,1.63c-.67.41-1.07,2.08-1.26,2.15a10.66,10.66,0,0,0-1.06,1,3.79,3.79,0,0,0-1.11-1c-.49-.18-2.28-.11-2.48-.32s-1.66-1.1-1.26-1.26a1,1,0,0,0,.15-1.61c-.66-.56-1.83-.28-.22-.95s1.55-.39,2-1.17,1-.94.67-1.22-.55.11-.94,0-.61-1.89.66-2.33,1.23-.67,1.45-1.45.83-1.61,1.55-1.55.95.39,1.5-.33,1.5-1.89,1.39-2.28a3.68,3.68,0,0,1,0-1.72c.16-.28-2,.16-2.51-.67s-.5-2.33-.27-2.33,1.94-.62,1.94-.34-.11,2.17.44,2.28,1.95-.17,1.73-1.11.11-2-.39-2.06-1.06-1.55-1-2.11.61-1.39.16-2-.05-1.55-.16-1.89-.84.67-1.34.34-1.44-.45-1.55.66-.72-1.11-.45-1.66,1.23-.89.45-1.39-2.67-.34-2.45-.78,1.17-1.5,1.78-1.56,1.61.23,1.61-.27-.11-7.34.06-7.39a6,6,0,0,1,1.05,0l-.05-1.72H183a6.15,6.15,0,0,1-2.33-.5c-.22-.28-.22-2.12.28-2.17s.28.33,1.11.39Z"/><text class="cls-4" transform="translate(197.72 430.65)">青云寺</text><text class="cls-4" transform="translate(160.96 266.72)">长<tspan x="0" y="36">埂</tspan></text><text class="cls-4" transform="translate(27.93 415.51)">一里坡</text><text class="cls-11" transform="translate(260.68 307.22)">双兴国际社区</text><polyline class="cls-12" points="229.17 372.72 256.95 313.21 380.35 313.21"/><text/></g></g></svg>