<svg xmlns="http://www.w3.org/2000/svg" viewBox="0 0 176.59 212.25"><defs><style>.cls-1{fill:#facce0;stroke:#000;stroke-miterlimit:10;}.cls-2{font-size:30px;font-family:STXingkai;}</style></defs><g id="图层_2" data-name="图层 2"><g id="图层_1-2" data-name="图层 1"><path class="cls-1" d="M112.05,74.51c.39.34,1.83-.89,3.39-1.56A3.87,3.87,0,0,0,118.22,70c.55-1.83,3-3.61,3.16-3.83s2.56-3,2.84-3.56,3-2.52,3.07-2.7-.7-1-1.22-2.23.66-1.51.78-2-1.45-1.37-1.63-1.41.26-1.44.11-1.92.07-1.11-.08-1.45a14.32,14.32,0,0,0-1.15-1.77C124,49,122.4,50,122,50a5.49,5.49,0,0,1-1.89-.34c-.3-.18-1.89.41-2.41.34s-.37-1-.07-1.48,1.89-.52,2.66-.52a26.29,26.29,0,0,0,4.37-1.63c.3-2.45.78-2.48,1.67-2.82a2,2,0,0,1,1.89.23c.26.22,2.11-.71,2.3-.82s.88-.55,1.22,1.19,1,1.51,1.59,1.66,0-1.26,0-2.22-1.74-1.33-1.74-1.33c-.11-1.11-1.39-2.39-2.06-3s-1.66-.34-2.11-.61,0-1.39-.44-2.39-.76-1.08-.28-1.17a35.73,35.73,0,0,0,3.83-2.74s-.44-1-1.21-1-1.84-.34-1.51-.34,1.39-2.38,1.5-3-1.67-.77-2.22-.94-1.61,2.44-1.72,2.83-.89.78-1.61.73-11.5-7.12-11.89-7.39-1.28-.78-.73-1.6.17-1.51-.72-2.18-1,0-1.5,0-.72-.78-1.94-.72a3.13,3.13,0,0,1-2.5-1.28c-.28-.45.66-1.83.66-1.83A36.47,36.47,0,0,1,101.8,14c-1.08-.69-1.75.5-3.06.59s0-1.36,0-1.73-.66-.75-1.56-.88a3.85,3.85,0,0,1-1.85-.81c-.17-.19.89-1.17,1.25-1.89a5.69,5.69,0,0,0,.33-2.08S89.08,4.56,88.85,4.7s-1.66,4.11-3.27,4.64-1.73-.25-1.81-.86-1-.75-1.55-.64-1.39,1.67-1.5,2-.25,1.53-.84,1.86l-2.11,1.2c-.42.22-.83,2-1.17,2s-1.52-.72-2-.86a17.5,17.5,0,0,0-2,0c-.58-.05-.7-.8-.83-1s.27-2.56,0-2.75S71,12,70.72,12a15.38,15.38,0,0,1-1.92-.81c-.36-.11.8-1.86,1-1.86s1.34-1.22.64-1.22-3.86-1.75-4.39-2-1.55-1.36-1.7-1.4S64,6.36,63.48,6.62s-.19-1.3.14-1.78a9.82,9.82,0,0,0,.45-3c0-.37-.67.18-1.26-.63A1.58,1.58,0,0,0,60.92.62c-.33.19-.59,1.44.52,4.41s.44,3.78.26,4.15a4.09,4.09,0,0,1-2,1.4c-1,.34-1.18-.52-1.41-1s-1.85.25-2.26.07a1.37,1.37,0,0,0-1.7.89C54,11.44,56,13,54.7,12.73S53.36,13.92,52.89,14s-1.54.41-1.51,1.52a1.38,1.38,0,0,1-1,1.53c-.33.08-.44.69-.91.89s-.84-.25-1.31-.34-.5-1.47-.75-1.61-.08.95-.36,1.22-.56-.08-.61-.41-.14-.84-.5-.81-.34.89-.72.89-1.34,1-1.67,1.22-.45.06-.86.14-.42.56-.42.56a2.5,2.5,0,0,0,.56.94c.33.28.66-.11,1.22.28s.89.94,1.11.94,2.78-.61,2.78-.33.16.72.28,1.39-.95,1.55-1,2.28a12.72,12.72,0,0,1-1.95,3.33c-.22.22.61,1.56,1.28,1.94s-.17,1.28-.78,1.62-1,2.72-1.11,3.22.83,2.39.28,3-4.22-1.06-4.78-1.34-.28-1.05-.78-1.38-.94.16-1.72.11a6.41,6.41,0,0,1-1.83-.61c-.34-.12-1.06.33-1.23.16s-1.16-.78-1.16-.78c-1.72,1.12-3.61.45-4.22.45s-1.06.83-2,1.5-2.12-.22-2.73-.33a1.51,1.51,0,0,0-1.44.44c-.45.39.17,3.28-.11,3.78a42.44,42.44,0,0,0-2,4.33,5.31,5.31,0,0,1-2.67,2.72A17.68,17.68,0,0,0,13.1,50c-1.88,2.05-1.66,1.89-2.22,2.05s-.22,1.12-.5,1.73-1.89,1.5-2.11,1.83-.89.78-.83,1.22.89,3.95-.17,4.44S4.44,67,5.55,67.73s.89,1.22.78,1.72a10.67,10.67,0,0,0-.06,2.28,9.34,9.34,0,0,0,1,2.45,13.87,13.87,0,0,1,.55,3.5,23.68,23.68,0,0,0,1.45,4.66c.33.61.11,2.5.44,3.5s-.06,3.56.56,4.72S9.44,93,9.16,93.9s.44,2-1.06,4.16-.72,6.06.17,6.84a9.78,9.78,0,0,1,1.89,2.89c.06.22-2.67,1.83-2.67,3.22S6,112.62,5.77,113.4s-1.39.72-1.78.72-.66.61-1.83.56A2.34,2.34,0,0,0,.55,115a1.93,1.93,0,0,0,0,.83,11,11,0,0,0,2.17,2.22c.44.28-.78,3.56-1,4.06a13.1,13.1,0,0,0-.44,2.44,1.74,1.74,0,0,0,.82,1.23c.38.22.51,1.72.4,2.16s-.17,1.67-.34,2.45.12,2.28,0,3,.83,2.16,1.33,3.22.94,0,.94.5A5.1,5.1,0,0,0,5.94,140c.78.56.33.56.66,1.39s.78,2.17,1.34,2.37.61-.15,1-.15,1,.5,1.39-.33,1.84-.67,2-.67a3.87,3.87,0,0,0,1.31-1.72c0-.5,0-1.5.55-1.33s0,0,1.5-2.78,4.72-3.28,4.67-3.5l0,.63a29.48,29.48,0,0,1,.7,3c.17,1.11-1.05,3-1.27,4.77s1,3.39,1.16,3.89,1,5.34,1.39,5.5a3.81,3.81,0,0,1,1.28.5c.56.39.28.78.5,1.89s.5,1.22,1.33,1.5,2.5-2.72,3.17-3.16.44-1.78.33-2.06,1.23-1.39,1.11-1.61a21.5,21.5,0,0,0-4-2.95c-.61-.11-1.77-2.38-1.77-2.67s1.61-.55,1.61-.55c.61,1.45,2.28,1.72,2.78,2.28s1.72-.17,2.88-.56,2.73,2.17,2.95,2.23,1.89-.17,2.22.16a5.68,5.68,0,0,0,3.5,1.11c1.89.06,2.17,1,2.17,1,.16,2.84.55,3.89,1.22,4.23s3.17.11,3.17.77a2.57,2.57,0,0,0,1.66,2.06c1.06.44,2.5,1.11,2.23,1.67s.66,2.39.5,3,.83,1,1.83,1.16A32.68,32.68,0,0,1,58.58,163c.78.39,3.39,6.66,3.39,7.05s-2.78,3.28-3.22,3.84-2.17.83-.94,2.5A3.69,3.69,0,0,0,60.58,178c.5.22,4.11-.89,4.5-.78s.84,1.33,2.11,1.44,3,0,2.84.28a14.16,14.16,0,0,0-2.22,3.56c-.62,1.72-.39,1.83-1.5,2.39s0,1,.83,1.33a8.89,8.89,0,0,1,2.5,2.28,3.52,3.52,0,0,0,1.94,1.39,4.15,4.15,0,0,1,2.56,1.27c.5.73.22,1.78.72,2.28a4.51,4.51,0,0,0,2,1.39c1.11.39,2.17-.94,2.17-.94a15.17,15.17,0,0,0,.16-1.56c0-.5,2.45-4.33,2.45-4.67A2.53,2.53,0,0,1,83.36,186c.83-.05-.22-2.27.11-2.22s2.28-2.05,2.61-2.17a1.54,1.54,0,0,1,1.45.56,13,13,0,0,0,2.61,1.61c.67.39,3,.28,4.33.61s1.89,3.72,1.28,4a1.18,1.18,0,0,0-.83,1.28A22.89,22.89,0,0,0,98.14,195c.61.45,1.5-1.22,2.33-1.05s2.17.39,2.39.39a10.75,10.75,0,0,1,3.17-.06c1.16.28,3.28-.83,3.66-.83s.45-.78,2.06-.67.56,1.11.22,1.67,1.28.44,2.56.61.33-2.45.33-2.61a1.54,1.54,0,0,1,1.17-1c.66-.06.89.83.94,1.33s1,2.33-.89,3.28-.22,3.05-.22,4.05,3.56,2.12,4.5,1.95,1.56-2.78,2.17-3.95a3,3,0,0,1,2.33-1.61c.56,0,1.17,1.45,1.56,1.84s-.34,1.22.22,3,2.67,2.72,3.28,3.22.44,1,.89,1.67a14.57,14.57,0,0,0,2.83,2.72c.67.39.78-.95.78-.95a6.92,6.92,0,0,1,1.22.17c.83.17.67,2.11.67,1.5s2.83-4.78,3.05-4.83-.05-1.84-.28-2.45.06-.78.5-.89,3.56,1.28,4.06,1.45,1.5-3.22,1.83-3.11a21.11,21.11,0,0,1,3,2.55,12.08,12.08,0,0,0,3.5,1.45c.45,0,.11,1,.34,1.27s.22,1.34.66,1.84-.44,1.44-.28,1.89.39,2.22.56,2.44,1.56.17,1.94.39a2,2,0,0,0,1.77-.5c.49-.44,1.23,0,1.79,0s.78-.56,1.5-.89.94-1.89,1.22-2.44.17-2.5,1.39-2.5.72.11,1.83-1.34.5-3.44.62-3.94,1.11-.39,1.5-.45-.28-1.38-.23-2,.39-3.27.06-3.94a4.63,4.63,0,0,1-.17-3.11c.39-.67,1.28-.22,1.22-.56s.45-.66.45-1,3.17-2.05,3.55-2.33-.44-.39-.66-.56a15.91,15.91,0,0,0-3.56-.77c-1-.06-.94-.73-.89-.89s.34-1,.11-1-.61-.78-.61-.78v-1.06l.61-.16.67.94s.39-1.33.61-1.33,1.17-1.56,1.17-1.56l.05-.66a1.41,1.41,0,0,1-1.11,0c-.5-.28.45-1.61.95-1.73a2.77,2.77,0,0,0,1.44-1.44,4,4,0,0,1,1.22-1.5c.39-.28,1.12.06,1.45,0s1.17-1.94,1.55-2.28.06-1.66.12-2-1.73-.72-2.23-1.16-.39-1.56-.33-1.84,1.28-.44,2-.22.33,2.06.33,2.06c2.06.11,1.34-2.84,1.5-3s-1.77-1.84-1.15-2.06.15-2.17,0-2.33.13-1.39,0-1.84-1.26.34-1.54.34-1.11.89-1.61.83-.28-1.67.06-1.67,0-1-.5-1.66-1.89-.06-1.73-.78,1.45-1.17,1.89-1.5,1.56.28,1.56,0-.56-7.11-.56-7.66.95-.12,1.5,0,.39-1,.28-1.43-1.67-.12-3,0a19.58,19.58,0,0,1-4.17-.56l.39-2.11s.72-2.33.95-2.19a13.52,13.52,0,0,0,2.27-.36c.28,0,3.39,1.27,4.07-.95s-1.4-1.33-.51-2.28-.11-1.66.39-2.05-.67-1.56-.89-1.89a33.2,33.2,0,0,0-3.94-2c-.23-.11,2.05-4.5,2.05-4.5a16.7,16.7,0,0,0-1.78-.56,51.17,51.17,0,0,1-2.55-6.72c-.06-.5-.95-1.83-1.17-1.44a17.93,17.93,0,0,1-3.86,2.16c-.36.06-1.64-1.39-1.86-1.66s5-9.78,5-9.78a6.91,6.91,0,0,0-1.89-1.61c-1-.5-.72-1.89-1.25-2.17s-.64.5-1,1.22-1,.56-1.66.45-.67-1.56-.67-1.56a17.47,17.47,0,0,1-2.61-1c-1.17-.61-1.61.22-1.61.5s-1-.39-1.56-.45-.55-1.28-.67-1.78-.44-.11-.94.28-.61-.61-.89-.61-.11,1.5-.33,2.17-1.34.11-1.84,0-.5,1.56-.72,1.67-.5-.5-.89-.39-1,1.45-1.61,2.06a28.66,28.66,0,0,1-6.66,3.27,17.42,17.42,0,0,1-4-.72l-14.17,24.06L98.53,123.17l7.89-13.89s4-5.28,4.61-5.28,3.28-2.66,3-2.89a6.91,6.91,0,0,0-2-.22s0-2.5-.16-3-.23-1.11,0-1.11a19.15,19.15,0,0,1,2-.55c.5,0-.39-.62-.39-.62l4.89-7.83s-5.92-3.3-6.06-3.42a3.59,3.59,0,0,1,1.06-2c.55-.44.94-1.44.5-1.91a6.1,6.1,0,0,1-.92-2.34c0-.28-.75-2-1.11-3.69Z"/><text class="cls-2" transform="translate(13.93 102.8)">一里坡</text></g></g></svg>