<svg xmlns="http://www.w3.org/2000/svg" viewBox="0 0 82.56 89.62"><defs><style>.cls-1{fill:#fedab2;stroke:#000;stroke-miterlimit:10;}.cls-2{font-size:18px;font-family:STXingkai;}</style></defs><g id="图层_2" data-name="图层 2"><g id="图层_1-2" data-name="图层 1"><path class="cls-1" d="M6.8,69.22,4.57,75.89S6.35,77.83,6,78.72s2.11-.78,3.11,1.78c0,0,1.22-.78,2-.39a85.15,85.15,0,0,0,8.72,3.39C21,83.67,24,85.22,24.57,85s.89-.61,1.39-.39l6.5,2.83s1.89-3.88,2.28-3.77a22.92,22.92,0,0,0,2.61,1.22c.45,0,.95-.61,1.11-.67s.67,1.28,1.28,1.39,1.89-.22,1.83-.72a31.25,31.25,0,0,1,1.12-4s5.83,2.94,6.16,3.28,2.39,3,3.39,3.27,1.95.67,2.22.5S57,85.83,57,85.06s3.28.27,4.5-1a5,5,0,0,1,3.84-1.33c.39.22.55,1.61,1.11,1.72s.11,1.44-.45,1.44-.61,1.5-.16,1.67,1.83,1.61,2.39,1.5,3.55-.28,3.83-.28,1.5-.89,1.39-1.27.72-1.78.83-2.17a16.94,16.94,0,0,0-1.78-4.11c-.39-.56-.77-1.45-1.27-1.72a2.22,2.22,0,0,1-.84-1.84,4.6,4.6,0,0,0,0-4.44c-1.28-2-2.17-4.22-3.39-4.72a2.46,2.46,0,0,1-1.56-2.12c-.11-.66,0-1.83.45-1.77a28.45,28.45,0,0,1,4.83,2.55c.22.34,1.72.06,1.72-.44s-.33-2-.94-2.12-1.61-1.27-1.61-1.27-1.39.78-1.84.55-2.22.17-2-1.38,3.94-8,3.66-8.5S68.41,53,68.46,52.39,80.24,20.83,82,19.67a13.72,13.72,0,0,0-1.11-2.61c-.28-.17-6.11,11.11-6.33,11.11s-.78.94-2,.16-2.77-2.16-4.11-2.22-16-4.78-16-4.78a1.53,1.53,0,0,1-.94-2C52,17.78,56.07,7.56,55.91,6.94S55,3.56,55.74,1.89C55.74,1.89,35.35.5,35,.5s-.83,1.67-1.33,2-1.17.56-4.12.44-2.27-.11-2.16.23a35.9,35.9,0,0,1,1.66,4.16,33.3,33.3,0,0,1,.39,4.56c-.11.61-.61,3.17-2.55,2.89a59.58,59.58,0,0,1-6.34-1.61c-.33-.11.56-3.5.06-3.89S16,7.44,13.28,8.11a32.48,32.48,0,0,0-2.65,4c-.44,1-.67,2.22-.83,2.33a5.23,5.23,0,0,0,0,2.5c.22.44-.39,2.89-.39,3.33s1.05,1.67,1.28,2.28,2.05,3.72,1.94,4.17a36.09,36.09,0,0,1-1.22,4.77,32.59,32.59,0,0,0-1.89,6.39,6.52,6.52,0,0,1-1.45,4.34,11.7,11.7,0,0,0-1.83,4.44C6,47.17.13,66.61.52,67.06S6.8,69.22,6.8,69.22Z"/><text class="cls-2" transform="translate(21.52 44.52)">八角<tspan x="0" y="21.6">社区</tspan></text></g></g></svg>