<svg xmlns="http://www.w3.org/2000/svg" viewBox="0 0 139.09 84.75"><defs><style>.cls-1{fill:#86cef6;stroke:#000;stroke-miterlimit:10;}.cls-2{font-size:22px;font-family:STXingkai;}</style></defs><g id="图层_2" data-name="图层 2"><g id="图层_1-2" data-name="图层 1"><path class="cls-1" d="M3.56,36.08c.28-1.11.78-.73.78-.73l1.94.5s3.11-5.27,3.17-6,2-6.22,2.78-6.66,1.55-4.5,2.33-4.39,16.83,7.61,16.83,7.61.84,3.28.23,4.28-1.39,0-1.89,1.16-1.89,4.34-1.56,5a3.69,3.69,0,0,0,1.56,2.23c1.5,1.22,2.44,2.44,2.44,3.33s.5,3.17,1.06,3.33.72-.77,1.28-.55,1.11,1.5,1.55,1.66,1,.5,1.39.67A11.69,11.69,0,0,1,38.3,50c0-.56.71-1.74,1.48-1.56s2.41.19,2.49,1.48.18,2.48.48,2.11.63-.7.59-1.14-.3-2.52-.74-2.86-.41-1.26-.82-1.59-1.33-1.81-.85-2.11,1.71-.19,1.89-.63-.07-2.41.3-2.41.63-.52.55-1.81,0-4.56.89-4.19,1.82-.18,1.82-.52.4-6.22-.3-6.37-4.78-.44-5-.55-.67-1.59-1.44-1.41-.75-1.41-.78-1.74a17.14,17.14,0,0,1-.56-2c.11-.11,1.71-.48,1.82-.26s-.56-4.44.26-4.88,1.74-.71,1.48-1-1-1.52-.71-1.93.49-1.48,1.56-1.41,1.85.49,1.7-.4.71-2.11,0-2.67A3.59,3.59,0,0,1,43.3,8.74c-.11-.33-.52-.3-.92-.22s-.56-.15-.11-.67,1.25-1.22.81-1.78a2.69,2.69,0,0,0-1.93-.92c-.4.11-.22,1.66-1,1.92s-1.3.23-1.6,1.67c0,0-1.11,1.35-1.51.45s-.52-1.78-1.19-1.67-3,2.07-3.44,2-1.26.22-.89-.74.55-1.15.44-1.52,1.45-2,2-2.41A.83.83,0,0,0,34,3.48c-.4-.22-.92-1.67-1.33-1.7s-1.33,1.4-1.63,1.48-1-.22-1.22,1S30,6,29,5s-1.49-1.07-1.74-1S26,5.89,25.3,5.3A30.62,30.62,0,0,1,21.82,1V.52s34.41,1.22,38.7,1,24.82,0,27.93.59,29.41,5.11,31,5.11,18.89,2,18.89,2-19,45.44-20.45,47.22c-.62.76-9.08,13.26-18.54,27.3l-.28.41L.55,38.92c-.25-.12.49-.17.74-.3A6.31,6.31,0,0,0,3.56,36.08Z"/><text class="cls-2" transform="translate(50.84 25.92)">双兴国<tspan x="0" y="26.4">际社区</tspan></text></g></g></svg>