<svg xmlns="http://www.w3.org/2000/svg" viewBox="0 0 165.1 212.12"><defs><style>.cls-1{font-size:12px;}.cls-1,.cls-3{font-family:STXingkai;}.cls-2{fill:#fffac1;stroke:#000;stroke-miterlimit:10;}.cls-3{font-size:30px;}</style></defs><g id="图层_2" data-name="图层 2"><g id="图层_1-2" data-name="图层 1"><text/><text class="cls-1" transform="translate(67.83 70.89)">双华社区</text><path class="cls-2" d="M42.82,85.84s1-2.59.52-3-4.14-2.22-4.4-2.52-4.3-4.7-4.45-5.44-2.74-2.82-3.26-3.11-.81-1.86-1.18-2.52a23.72,23.72,0,0,1-1.85-4,6.14,6.14,0,0,0-1.71-3,9.63,9.63,0,0,1-1.85-2.44,4.43,4.43,0,0,0-1.93-2c-1.4-.89-4.07-2.23-4.29-2.52S15.53,53,15.16,52.43s-2.89-2.66-3.71-2.74A9.28,9.28,0,0,1,7,46.43c-.67-1.33-3-4.59-2.89-5.63s.89-.29,1.41-1.55a6.65,6.65,0,0,0,.74-3.34,1.14,1.14,0,0,1,.89-1.4c.37-.08,1-.3,1-.6s.67-1.26.22-1.7-2.22-1-2.22-1.48.67-.52.15-1.11a17.12,17.12,0,0,1-2.16-3.11,2.32,2.32,0,0,0-.43-1.41,17.06,17.06,0,0,1-2.23-3.26c0-.37-.88-1.78-.88-2.07a17.84,17.84,0,0,1,0-2.08,5.45,5.45,0,0,0,.29-2c-.15-.81-.33-3.92-.33-3.92a19.18,19.18,0,0,0,4.11,0c.67-.3,1.11-1.12,1.33-1.34s-1.26-1.26-1-1.85,1-.67.44-1.48-.89-1.48-.67-1.48S6.86,5,6.86,4.73s.22-.82,0-.89S7.6,3,7.6,3s1.63,1,1.63,1.41.52.74,1,.22,2.59.52,2.81.6S15.82,7.1,16.71,7s1.71.08,1.71-.59S18.6,5,19,5.32s5.06,2.07,5.28,2.45.37,1.25,1,1,4.59-2.22,4.89-2.37S34.27.28,35,.51,73.53,13.77,73.53,13.77s10.37,4,10.67,3.85,1-.23.74-1A8.51,8.51,0,0,1,85,13.77s1.2-.23,1.71.22,1.11-.15,1.19.07-.08,1,.44,1.19,1.19.66,1.26.44.6-1,1-1,1.92.52,2.37.3,1.48-2.67,1.48-3.85a12.67,12.67,0,0,1,.29-2.45,19.87,19.87,0,0,0-3.26-.14c-.59.14-.59.44-1.11.44s-7.48-.15-7.77-.37.22-2.44.22-2.44l9.7,1.7,4.59-.22S97.75,6.14,98.2,6s1,.37,1.25.29.82-.44,1.12-.14,5.27,3.77,8.52,2.81,4.73-1.7,5.92-1.7,1.78.59,2.3.37a12.69,12.69,0,0,1,3-.89c.67,0,2.89-4.15,4.15-4.08s.22,1.93.3,2.15,1.33,2.45,1.33,2.45a3.35,3.35,0,0,0-.59.89c-.3.59-.3,2.29.07,2.44s1.19.44,1.19.89a5,5,0,0,0,.59,2,1.59,1.59,0,0,1,0,1.41,1.46,1.46,0,0,0-.67,1.18c.08.52,1,.45,1.56.82s.74.29.52,1-.42,1.34.08,1.71,1.27.52.67,1.77-.75,1.19-.75,1.63-1.93.45-2,.89,3.55,7.86,3.55,8.52a4,4,0,0,0,.37,2.15c.37.44,1.26,1,1,1.41s-1,.52-1,.81,1.41,1,1.41,1.56-.81.66-1.11,1-2.15,1.78-2.22,2.15-1,2.52-.45,3,3.86,1.85,3.41,2.74-4.07,9.48-4,9.71,1.95,1.63,1.79,1.92-1.72,2.37-1.42,2.59a7.6,7.6,0,0,1,1.78,1.71c.44.74.44,1.63.89,1.7s.07,1.63.07,1.63a1.72,1.72,0,0,1,.89,1c.3.81,1.93-.15,2.45-.22a1.2,1.2,0,0,1,.88.22l.52,1s.6-1,1-.52a13.38,13.38,0,0,0,3.33,2.81c.67.15.67,2.74,1,2.89s1,1.33,2.22,1.85,1.41,1.34,1.92,1.78,1.49,2.3,2.82,2.89a16.63,16.63,0,0,1,3.63,1.93c.22.37-.22,1,0,1.11s2.81,1.33,2.89,1.7a5.08,5.08,0,0,1,0,2.59c-.37.82,2.74-.07,3.78.37s5.85,3,5.85,3-3.26,6.89-2.82,7.26,1.19.22.89,1.11-4.89,10.81-5.41,10.81a6.49,6.49,0,0,1-1.85-.81s0,1.55-.29,1.63-1.12.37-1.19.74-.59,2.22-1.26,2.37a3.77,3.77,0,0,0-1.85,1.7,29.79,29.79,0,0,1-1.93,3.7c-.52.6-.59,1.78-1,1.93s-1.56.82-1.63,1.33.37,4.08.14,4.67a27.24,27.24,0,0,0-1.4,3.56c0,.51-.08.74.74,1s10.37,4.89,10.74,5.48a11.38,11.38,0,0,1,.74,3.63,13,13,0,0,1,.07,2.37c-.14.6-.44,2.52,0,3.26s1.11,1.63.89,2.3-3.63,7.19-4.22,7.93-3.18,4.66-3.56,4.81a3.17,3.17,0,0,0-1.25,1.33,17.6,17.6,0,0,1-1.56,2.23,39.63,39.63,0,0,0-3.48,5.7c-.15.74.52,2.3,0,2.82a21.89,21.89,0,0,0-2.37,2.51,29.24,29.24,0,0,0,4.81,3.49c.37,0,4.08.29,4.89,1.85,0,0,4.08-.08,4.3.37s2.44.59,2.81.74a4.91,4.91,0,0,0,1.78.66c.67,0,2.45-.74,2.74-.37s.37,1.34.89,1.63.52,1.86,1.11,2.3-1.48.44-2.07,1.11-1.26,1.33-2,1.33a14,14,0,0,1-2.52,0c-.45-.14-1.48-1.25-1.85-1.25s-2.23.51-2.52,2l-1.11-.52s.74-.37.59-.67a36.72,36.72,0,0,0-2.94-3.35c-.67-.61-3.67-.33-3.95-.39a15.74,15.74,0,0,1-2.22.06c-.45-.17-1.67,1.44-1.67,1.44s-1.94,1.06-2.33.83-1.56.39-2.22-.33-3.84-3.06-3.84-3.06l-2.5,3-2.94-2.22-2,2.56s-3.33-1.28-1.88-3.39,2.77-3.61,2.77-3.83.89-2.23-.61-2.84-3.78-1.66-3.78-1.66L119.79,183a2,2,0,0,0-1.45.11,2.15,2.15,0,0,0-.72.78L113.84,182l-7.11,15.67L94,193.1l-1.5.94L86.57,211.6l-23.95-1.33a10.34,10.34,0,0,1,.11-2.84c.28-.72,4.34-12.66,4.34-13.16s-1.17-1.28-1.39-1.39,1.11-.84,1.16-1.61.5-1.89,0-2.23-2.77-1.44-2.83-1.72,1.44-2.39,2.33-2.44,2,.33,2.06-.84,0-2.33.17-2.72-.44-.78-1.11-1.22-.23-1.67-.84-1.89-1.39-1.11-.83-1.44a11.86,11.86,0,0,1,2-1c.28-.06,2.11,1.44,2.11,1.44l1.61-.5s1.11,1,1.44.61,3.39-10.55,3.17-11.33-.28-2-.83-1.61-.06,1.55-2,1a8.18,8.18,0,0,0-.5-2.34c-.34-.44-1-1.66-.11-1.89s1.94-.77,1.61-1.44S71.62,157.38,72,157s.56-.83.78-.77,1.22,1.44,1.67,1.27,1.72-.66,1.72-1.33-4.5-3.83-4.94-4.89-.89-.89-.89-.89a14.32,14.32,0,0,0,.22-3.22c-.22-.33.44-.61,1.61-.33s1.89,1,2.5.66a2.34,2.34,0,0,0,1.28-1.72,3.31,3.31,0,0,1,.89-2.17,2.44,2.44,0,0,0,.83-2.05c-.17-.61-.83-1.89-.55-2.5a10.13,10.13,0,0,1,.88-1.95c.45-.61,1.28-1.33,1.06-1.66a18.47,18.47,0,0,0-1.17-2.17c-.27-.22-.94.39-1.22.17s-1.05-.72-.83-1.11.33-1.61.61-1.61,2-.23,2.61.16,1.44-.39,1.56-.72,1.55-4-2.62-8.06c0,0,1.34-.11,1.89.56l1.78-1.17s-.28-1.94.45-2,.72.89,1.88,0,.84-1.66,1.5-1.55,1.12-3.84.73-4.89.33-.11.66-.11.73-.72,1.84-.56,2.16.22,2.22-.05-4.72-1.45-4.72-1.45-.61-.78-.89-.78-.5.12-.11-1,.55-3.27,1-3.33a1.65,1.65,0,0,0,1.33-1c.28-.67.83.45,1.17.28s.89-4.78.89-4.78l2.05.33s-2.11-5.5-4.11-6.38c0,0-.89,1.38-1.06,1.16s-1.16-.5-1.5-.78-2.83.06-2.39-1.66,1.06-2.11,1.06-2.11-.61-1.23-1.44-1.5-1-2.28-.78-2.89-.56-.84-.72-.84S77,85.38,76,85.82s-1.44.72-1.78,1.56-.28,2.11-.5,2.27-1,1.17-1.61,1.84-.78,1.78-1,1.89-.89,2.05-1.05,2.05S69,94.15,68.68,94.15s-.84,1.5-2-.33A4.34,4.34,0,0,0,63,91.71c-.67.06-1.06.67-1.5.67s-1.78,1.05-2.11,1.05a23.09,23.09,0,0,1-2.5-.78s-2-3.5-4.17-3.22S51.12,89,50.84,89s-.83,1.22-2.22-.06-2.28-3.55-3.33-3.44S43.31,85.86,42.82,85.84Z"/><text class="cls-3" transform="translate(45.62 44)">双<tspan x="0" y="36" xml:space="preserve">     华</tspan><tspan x="0" y="72" xml:space="preserve">         社</tspan><tspan x="0" y="108" xml:space="preserve">      区</tspan></text></g></g></svg>