<svg xmlns="http://www.w3.org/2000/svg" viewBox="0 0 125.31 149.16"><defs><style>.cls-1{fill:#d3c8e2;stroke:#000;stroke-miterlimit:10;}.cls-2{font-size:24px;font-family:STXingkai;}</style></defs><g id="图层_2" data-name="图层 2"><g id="图层_1-2" data-name="图层 1"><path class="cls-1" d="M74.84,1s2.5-.73,2.83-.39,3.94,4.22,4.39,3.94.55-.66.83-.55S83.56,5.09,84.06,5s.94-1,1.39-.78A24.55,24.55,0,0,1,88.73,7c.55.67,2.55,1.78,2.94,1.5a6.65,6.65,0,0,1,1.89-.94c.33,0,1.33-1,1.72-.84a5.36,5.36,0,0,1,2,.67c.88.61,1.68,1.95,2.45,2s1.6-.22,1.66,0,.33,1.67.55,1.22S103.17,9,103.23,8.7a6.54,6.54,0,0,1,1.27-2.28c.39-.22,1.61-1.44,1.56-1.83a5.58,5.58,0,0,1,.33-2.39A4.58,4.58,0,0,1,108.45,1c.72-.06,3.55-.78,4.44-.06s1,.83.67,1.5a2.1,2.1,0,0,0,.72,2.06c.28,0,1.89.83,1.39,1.39S114.11,7.81,114.45,8s.74,1.39,1.32,1.39,1-.22,1.46.22,1.44.89,1.72.23,1.61.05,1.83.27,3.33,5.5,3.33,5.5-2.11-.89-2.44-.55-.33,4.89-.67,5-1.55-.78-2.33.89-1.89,3.22-1.22,4,4.89,2.22,5.55,2.22-4.55,0-4.55,1,.55,3.67-.11,4.22-.3.52-.67.56-1.07,1.22-1.41,1.44-1.66.3-1.92,0-.86,1.22-.49,2-1.51,1.45-1.88,1.3-1.71-1.19-1.71-.74,3.34,3.4,2.74,8.22a2.91,2.91,0,0,1-2,.37c-1.11-.22-2.29.07-2.29.44s-.82,1.41-.6,1.78.6,1,1.71.37l1.55,2.37s-.89-.07-1,.3.15,1-.07,1.26-.6,1.55-1,2.22.52,1.56.52,2.22a4.7,4.7,0,0,1-.81,2.1,7.6,7.6,0,0,0-1,2.12c-.07.52-.52,2-1,1.93s-3.18-1.18-3.55-1-1,.45-.82.74-.37,2.52-.15,2.82A18.39,18.39,0,0,0,105,67.86c1.11.89,3.56,3.19,3.56,3.19l-1.78,1.63s-1.55-1.7-2.07-1.41-1.19.67.14,1.85,1.86,1.49,1.56,1.93-1.11.74-1.56,1.11-.14,1,.08,1.93a10.54,10.54,0,0,1,.59,2.15c-.07.37,1.11.59,1.26.29s.52-1.33.82-.89.44.5.51,1-2.88,11.64-2.88,11.64a8.5,8.5,0,0,0-2-1c-.45,0-.89,1-.89,1l-2.66-1.7-1.94,1.7a3.88,3.88,0,0,1,.89,1c.15.37.61,1.85,1.05,1.85s1.47.75,1.32,1.26a8.57,8.57,0,0,0-.29,2.74c.14.52-1.41.89-1.86.89h-1l-1.29,2.3a13.34,13.34,0,0,1,2.4,1.7c.15.37.44,1.86.15,2.23s-1.71,1.26-1.34,1.33a9.36,9.36,0,0,1,1.74,1.33l-4.63,13.78-.59,4.74a15.29,15.29,0,0,1-6.59.37,34,34,0,0,1,1.7,4.37c0,.59.74,3.56.3,4.59s-.15,1.93-.74,2.37a2.12,2.12,0,0,1-2.15.45c-.67-.37-5.85-1.48-5.85-1.48s.44-3.11-.22-3.78-4.74-1.78-5.34-1.7-2.14,0-2.81.66-1.78,5.48-2.37,5.93.07,4.74-.74,5.92c0,0-1.93-.7-2.6-.44a9.82,9.82,0,0,1-3.18.22c-.3-.11-1.52-1.44-2.19-1.89s-3.88.11-4.51.11-2.45-.48-2.37-.7,2.11-.15,2.25-.59-.44-.67-.7-1a14.42,14.42,0,0,0-1-1.37c-.3-.3-1.19.48-1.52.3s-1.56.85-1.7,1.18-.5,1.85.27,1.93,1.87.33,2,.7,1.11,1.37.88,1.89.41.48.78.48-1.33,1.37-1.41,1.85-2,.6-2.07.34-.44-.52.19-.78,1.44-.56,1.37-1-.19-1.63-.49-1.85-.55,1.67-1,1.63-1.81.63-2.07.11-1.18-.74-.74-1.26,1.26-1,1-1.66-1.08-1.86-1.08-1.86-1.21,1.52-1.51,1.3-2.3.67-2.22.78.52,2,.33,2-1.92,1-2.26.78-.52,1.6-.48,2-2,.57-2.18.24-.45.35-1,.17-1.15-1-1.78-1a34.8,34.8,0,0,0-3.89-.33c-.59.15-3.29-.67-3.37-1.15s4.85-1.89,5.22-2.48.89-.63.15-1.41-2-1-1.81-1.55,1.29-.11,1.33-.56-.37-.7-.22-1a13.25,13.25,0,0,1,1.11-1.33c.18-.26.67-.63.81-.44s.86.77.93,1.18,0,.85.56.74,1.37-.26,1.51-.74.49-1,.37-1.22-.48-.41-.37-.59,1.11-.56,1.3-.89.67-1.15,1-1.19a.53.53,0,0,0,.34-.74c-.15-.29-1.3-.11-1.86-.59s-.64-2.17-1-2.33-1.27.94-1.44.94.63,1-.8,1.61-2.33.63-2.61.26.43-.46,1-.72,1.87-1.17,1.63-1.33-2.19-.65-2.46-.87-1.87-1.45-2.91-1.3-2.59.52-3,.59-.6.74-1.86.45-2.07.66-2.44.07-2.22.3-1.85-.67a10.94,10.94,0,0,1,1.48-2.29c.3-.45.89-.89.67-1.78s-.23-.59.29-.59-.07,2.15.59,2.22,1.34-1.48,1.19-1.78.15-1,.59-1,.41.92,1.78-.78a8,8,0,0,1,2.59.07c.6.3,1.48.3,1.63-.33s-.15-1.22.08-1.55.33-.56-.23-.56-1-.52-1.18-.44-.41,1.07-.7,1a8.89,8.89,0,0,1-2.26-.15c-.41-.22-1.78.75-2.11.49s-.82-1-.45-1.52,1.3-2.15,1.59-2.45a6.38,6.38,0,0,0,1.41-3.74c.07-1.92.22-1.81.82-1.89s2-.29,2.29,0,1.15,1.37,1.71,1.15,1-1,.92-1.26-.55-1.33,0-1.89,7.18-.26,7.18-.44a7.41,7.41,0,0,1-.07-3.59s-9.82-11-10.19-11.11a6.22,6.22,0,0,1-1.85-.26c-.52-.3-4.33-3-5.07-3.6s-4.15-1.11-4.82-1.63a25.45,25.45,0,0,0-4.89-2.22,34,34,0,0,1-5-.74c-.74-.3-1.78.15-2.45-.44S7.08,85.42,6.85,84.9s.3-2-.37-2.89A8.46,8.46,0,0,1,5,79.72c-.07-.52-.74-.82-.74-.82s-1.63.45-1.55,0S1.74,77,1.6,76.75A7.09,7.09,0,0,1,.78,75.5c-.07-.3-.59-2.23,0-2.67s.82-3.26.89-3.85a7.09,7.09,0,0,0-.07-4.15c-.75-1.78-.52-3.78.51-4.37s5.78-1.58,6.52-1.83,6.22-2.54,6.3-3.13-.67-2.6.15-3.19,1.77-1.78,1-2.22-.74-1.48-.89-2.08a5.56,5.56,0,0,1,.15-2.51c.22-.38-.37,0-1.41-1.12s-.31,1.15-.68,1,0-1.83-.15-2.24a12.06,12.06,0,0,0-.37-1.66c-.17-.19.05-.84.15-.89s1.68.55,2.05.29a3.16,3.16,0,0,1,1.41-.55,16.5,16.5,0,0,0,4-1.3c.44-.41.77.45.89,0s-.56-2.08-.15-2.82A38.35,38.35,0,0,0,23,31.9a2.31,2.31,0,0,1,1.48-1.7,6.13,6.13,0,0,0,2.37-1.37c.41-.41,1.34-4.71,2.49-4.78s1.29,1.48,1.81,1.7,1,1.37.45,1.41-1.41.85-1.82,2-.48,2.12-.78,2.15,1.15,1.56,1.15,1.82-.55,1-1,1-1.55,1.19-1.4,1.85,1.14.52,1.52.82a7.76,7.76,0,0,0,2.22,1.89c1.11.44,1.11,1.22,1.44,1.22a13.92,13.92,0,0,1,2.48-.63,10,10,0,0,0,2.78,0c.74-.22,2.15-.82,2.74-1s1.93-1.15,2.08-1a8.09,8.09,0,0,1-1.82,5s-.3.59,1.59,1,.71,1.63.41,1.85-1.67,1.34-1.55,1.6.37.4.92.4,2.59-.51,3.19-.51a16,16,0,0,0,3-.3c.56-.19,2.08-.22,2.15-1.81a4.11,4.11,0,0,1,1.35-2.71c.17-.22,3.06-4.41,3-4.63a1.6,1.6,0,0,0-.37-1.59,3.8,3.8,0,0,1-.7-2.74,9.52,9.52,0,0,1,1.26-1.41c.22-.15.33.63.59.59a.93.93,0,0,1,.78.34c.07.18.11.66.41.44s.92,0,.92.26.82.67,1.26.59.82.63,1.89-.07a7,7,0,0,1,3.3-1.3c.85,0,1.7-.52,2.51-.48s.45-.81.45-1.11.15-2.78.26-3.44a15.71,15.71,0,0,1,.89-3.12A14.39,14.39,0,0,0,69.82,20a27,27,0,0,0,0-3.45,12.3,12.3,0,0,1-.92-2.89c0-.7,1-4.18,1.67-4.81S74.52,2.57,74.84,1Z"/><text class="cls-2" transform="translate(8.54 78.53)">文庙社区</text></g></g></svg>