<svg xmlns="http://www.w3.org/2000/svg" viewBox="0 0 149.25 142.43"><defs><style>.cls-1{fill:#dbeac1;stroke:#000;stroke-miterlimit:10;}.cls-2{font-size:21px;font-family:STXingkai;}</style></defs><g id="图层_2" data-name="图层 2"><g id="图层_1-2" data-name="图层 1"><path class="cls-1" d="M43.8,1.91s-2.11,2.74-1.89,3.44.24.71.94.71,1.62-.45,2.17-.34,2.15.49,2.19-.07.29-.93.81-.89.93,0,1.07.26.38,1.45,0,1.89a1.8,1.8,0,0,1-2,.63c-.88-.33-1.33.17-1.49.11s-.39-.26-.58-.22a16.93,16.93,0,0,1-1.67,1H43c-.26,0-.63,1.07-.82,1.66s0,1-.24,1-.57.26-.8,0,.38-2.45,0-2.48-1,0-1,.22.29.67,0,1.44.16.93,0,1.15a3.82,3.82,0,0,1-1.07.56c-.44.22-1.74,1.11-.33,1.44s1.74.3,1.93.52,1.48,0,2.11,0,1.26.59,1.44.09,0-.76.45-.76,1-.26,1.63-.33,1.14-.59,1.37-.37a5.13,5.13,0,0,0,1.44.78c.33.07,1.48.82,1.7.89s2.23.59,2.12.74-1.15,1.52-1.75,1.41-1.14,0-1.14.22,0,.63.59.63,2.18.15,2.52-.45.78-1,.78-1.48a1.34,1.34,0,0,1,.77-1c.23,0,.37,1.93,1.19,2.19s1.52.7,1.85.59-.3,1.48-1.3,2.11-1,1.15-.81,1.23-.15,1.6-.7,1.69a2.32,2.32,0,0,0-1.12.34c-.33.22-.59-.26-.77-.85s-.71-1-.86-1a7.93,7.93,0,0,0-1,.78c-.45.37-1,1.07-.71,1.37s.49.63.3.63-1.52.14-1.59.48,1.55,1.07,1.81,1.52.93.37.52.88a3.71,3.71,0,0,1-1.63,1.08,14,14,0,0,1-1.59.74c-.33,0-1.74,1-2.11.78s-.3,1.07.81,1.29a7.26,7.26,0,0,0,2.52.48,9.23,9.23,0,0,1,4.41.71c1.15.66,1.33.52,1.78.44a5.59,5.59,0,0,1,1.77.07c.49.12.78.12.63-.47s-.22-1.67.3-1.82,2.41-.15,2.3-.85a10,10,0,0,1-.41-2c.11-.33,2.26-.26,2.26-.7s1.78-1.67,1.92-1.26.74,1.44.67,1.74.3.41-1,1.67c0,0-.85,2,.63,1.4a2.51,2.51,0,0,1,2.29,0s1.37-.11,1.26.26S66.41,31,66.7,31.13s1.84.45,2.21,0,.85-1.44,1.63-1.55-.45-.3-1-.63.22-1.41-.41-1.82A3.93,3.93,0,0,1,68,26.24c-.33-.37-.63.19-1.15,0s-.48-1.48-.55-1.92S68,23.21,68.13,23s.22,0,.93-.14.78-.26.92,0,1.06.89.81,1.41,2.19.85.42,1.19-2.45-.41-2.3.07,1.85,1.07,2.3.93a8.16,8.16,0,0,1,2.44-.41c.41.11,1.89-.11,2.22.11s.71,2.18,1.93,2.18a10.84,10.84,0,0,0,2.67-.07,7.48,7.48,0,0,1,3.48.41c.44.37,3.22,5.26,3.14,6.22a30.81,30.81,0,0,1-1.62,6.48,21.47,21.47,0,0,0-1.26,5.15A10.56,10.56,0,0,1,82.32,51c-1,1.15-1,3-1.3,4S75.17,75.5,75.17,75.5l6.3,2-2.3,7a2,2,0,0,1,1,.89c.37.66.15,1.7.82,1.7s1.63-.07,1.92.37S83.47,89,84,88.69a2.59,2.59,0,0,1,1.78-.3c.45.15,8.59,3.78,10.82,3.93s1.77.89,2.44.89a5.37,5.37,0,0,1,1.93,0c1,.22,6.22,2.51,6.22,2.51l2.3-3.92A21.39,21.39,0,0,0,111.54,93c.3.08,1.11-.66,1.7-.44s.37,1.26.89,1.26,2.08,0,2.08-.52.74-4.37,1.11-4.15,6.44,3.26,6.66,3.56,1.93,3.11,3,3,1.55.52,2.22.45,2.18-2.74,2.18-2.74a7.33,7.33,0,0,1,2.56-.45c1.89-.11,2.89-2,3.78-1.89s1.78-.77,2.11-.11,1,1.23,1.22,1.89-1.67,2.5-.55,3.31a4.11,4.11,0,0,0,3.44.91,7,7,0,0,1,2.56.07s-1,.82-.67,1.71-.11,2.34.67,2.45,1.55-1,1.88,0a3.71,3.71,0,0,1-.66,4.22c-1.56,1.78-1.34,2.22-2.78,1.89s-4.67-.67-5.33.66,1.11,3.34,1.77,4.56,1.34,1.33,1.56,2.11.11,2.45,1.78,2.78a2.63,2.63,0,0,1,2.33,2.33c0,.78,2,2,1.71,2.78s-2,4-1.71,4.78-1.55,4.14-1.33,5.18-1.89,5.71-2.45,5.82a4.5,4.5,0,0,1-2.11,0c-.89-.22-2.52,3.29-2.52,3.29l-14-8.14s1.15-2.49.19-2.93-1.15-.67-1.86-.15-1.37-.92-1.81-1-.33.93-1.56-.11-1.52-1.08-1.29-1.56.77-1,0-1.48a19.1,19.1,0,0,0-3.89-1.74c-.48,0-1.52,1.19-1.89.93s.07-1.63-.11-1.89a36.26,36.26,0,0,0-3.26-1.6c-.19-.11,2.74-3.44,1.48-4s-7.67-2.81-7.67-2.81-2.44,4.59-3.51,5-1.63-.07-1.75-.78a1.15,1.15,0,0,0-1.77-.7,5,5,0,0,0-1.63,2.11c-.08.33.15,1.3-.74,1.63s-2.11.67-2,1-.63,2.26-1,2.26-2.45-1.19-4.11-.82-1.26-.93-.71-3.33S84.87,123,84.54,123s-1.63-.82-1.85-.78.81-2.08.81-2.08,1.74-.36.83-1-2.25-.66-2.92-1.22-2.75-1.5-2.81-2-.86-1.28-.63-2.33-.78-1.39-1.34-1.5-1.58-.78-1.89-.48a3.91,3.91,0,0,0-.16,2.34c.16.47,1.25,3.91,1.25,4.25s.52,1.53-.34,2.11-1.33,1.36-2,1.14a20.38,20.38,0,0,1-1.83-.92,7.43,7.43,0,0,0-2.09.06c-.44.05-1.25.22-1.38.8s.58,1.81.44,2.28-1.09-.42-2,1.28c0,0-1.51.11-1.68,1.3s.22,1.14-.69,1.67-.81,1.33-1.86.78-.78-1.64-1.12-1.61-1,.72-1.25.61-.36-.34-1,0a19.2,19.2,0,0,1-2,1.3c-.28,0-1,.28-.36-.75a.93.93,0,0,0-.58-1.55c-.34,0-.75-.37-.67-.67a4,4,0,0,0-1.05-1.89c-.37-.28-2.45-2.64-2.25-2.94s.86-.34,1.27-.39.78-.42.56-.64-2-1.81-1.89-2.17a1.64,1.64,0,0,1,1-1.11c.58-.19,1.22-.28,1.44-.61s-.44-1.22-.8-1.28a2.62,2.62,0,0,1-1.28-.94.36.36,0,0,0-.42-.34c-.25,0-1.22,1.11-1.75-.19s.31-1.86.64-2,.72-.27.72-.36.23.59.56.53,1.5.14,2.17-.67,1.75-.63,1.55-1.63-1.25-1.81-.92-2.2a8.33,8.33,0,0,0,.87-2.17c.05-.27.61-.22.88-.22s.45-.64.5-1,.56-.22.7-.22,1.19-.31.83-.59-2.14-.41-2.16-.63A28.13,28.13,0,0,1,55.08,99a28.56,28.56,0,0,0-2-4.83c-.3-.31.14-1.81.2-2A11.6,11.6,0,0,0,53.85,90a15.9,15.9,0,0,1,1-2.47,2.62,2.62,0,0,1,.81-2.42,5.87,5.87,0,0,1,.53-1.72c.25-.2-1.42-1.2-1.42-1.2s-1.33.78-2.22.36-.2-.77-.83-1.19-1.64-1-1.81-1.64A15.33,15.33,0,0,0,49.3,77c-.28-.39-1-.33-1.72-.08s-.17-.39-.67-1.37-1.44-2.36-2.53-2.66a1.26,1.26,0,0,0-.94-.92c-.78-.17-.72-1.08-2.17-.92s-1-.36-1.39-.47-2-.3-2.14-.58-.86-.7-.83-1.06-.89-1.06-.81-1.43-1.5-.76-1.72-.84S32.19,65.43,32,65.43s-2,.94-3.08.19S25.55,63.18,25.27,63a8.52,8.52,0,0,1-2.05-2.33c-.2-.62-2.48-3.64-2.84-3.64s-1,.47-1.05.41-.53-3-1-3.2.33-.66,1-.94a2.3,2.3,0,0,0,1-2.36c-.15-1-.09-1.58-1.18-2s-1.36.09-1.94-.08-.53,0-.69-.11-5.59-3.22-6-3.25S9,44.32,8.58,44.23a1.18,1.18,0,0,1-1.09-1.08,5.68,5.68,0,0,0-.75-1.92c-.11-.08-1.44-2.33-1.61-2.5s-.08-.86-.22-1.25a3.45,3.45,0,0,1,0-1.69,2,2,0,0,0-1.5-1.92s.42,1,0,1.28S2.27,34.84,1.69,34A4.41,4.41,0,0,0,.55,33,1.18,1.18,0,0,1,1,31.76a3.94,3.94,0,0,0,1-1.69c0-.17,1.05-.84,1.38-.86a2.21,2.21,0,0,0,1-.64,2.15,2.15,0,0,1,1.86-.06,5.58,5.58,0,0,0,2.81.64A13.7,13.7,0,0,0,13,28.68c.86-.42,2.61-.14,3.2-.28a32,32,0,0,0,3.5-.83c.66-.31,2,0,2-.92s-.2-1.5-.2-2.14.28-.78.67-1.53a4.24,4.24,0,0,0,.16-2.91,5.79,5.79,0,0,1-.08-4.2c.7-1.66.72-1.66.72-2.14s.86-.58,1.17-.86a.62.62,0,0,0,0-1c-.36-.33-1.14-.94-.36-1.61s1.2-.64,1.28-1.89,1.08-1.64,1.25-1.94S27,5,27.8,4.93s2.78-.39,3.17-.5,1.94-.2,2.58-.31,2.64-.47,2.58-.72-.47-1.75.5-2.11a11,11,0,0,1,3.09-.7c.66,0,1.88-.22,2.05,0s.22.89.7,1S43.8,1.91,43.8,1.91Z"/><text class="cls-2" transform="translate(38.02 53.32)">王<tspan x="0" y="25.2" xml:space="preserve">   家</tspan><tspan x="0" y="50.4" xml:space="preserve">     场</tspan></text></g></g></svg>