<svg xmlns="http://www.w3.org/2000/svg" viewBox="0 0 135.36 211.31"><defs><style>.cls-1{fill:#facce0;stroke:#000;stroke-miterlimit:10;}.cls-2{font-size:30px;font-family:STXingkai;}</style></defs><g id="图层_2" data-name="图层 2"><g id="图层_1-2" data-name="图层 1"><path class="cls-1" d="M23.56,120.42a3.88,3.88,0,0,0-1.15,2,1.33,1.33,0,0,1-1.11,1.37c-.59,0-1.11-.22-1.26.11s.41,1.19.41,1.56-.26,1.92.56,2.29a13.88,13.88,0,0,0,2,1c.63.14.86,1.37.37,1.81s-.88,1.74-1.07,1.89-1.11.59-1.26,1.37-1.85.59-2.15.3-3.92-.23-4.59.63,3.07,6.14,3.15,6.37.07,1.81.55,2.33a2.53,2.53,0,0,0,1.82,1.07c.81,0,1.7.45,1.67,1s1,3.37,1.74,3.78-3.23,7.59-3.15,9.18.11,1.89-.08,2.3a31.75,31.75,0,0,0-2.07,4c-.07.66,0,.63-.22,1.07a13.43,13.43,0,0,1-1.11,1.85c-.15,0-1.15,1.11.18,1.11s2.11.83,2,1.1-2.37,1.24-2.07,1.57a16.28,16.28,0,0,0,2.74,1.74c.41.15,2.33,1.22,3.85,1s7-1.66,9.41-.59a3.24,3.24,0,0,0,3.07-1.52,1.89,1.89,0,0,1,2.08,1.37c.59,1.52,3.18,5.52,3.85,5.93a14.85,14.85,0,0,1,3.07,3.26c.34.7,3.67,5.22,4.08,5.22s1.5-1.3,1.9-1.11,1.8-1,2.17-.85,1,1.33,1.81,1.51.3,1.23,1.71.45c0,0,.48.07,1.59,1.59s4,2.11,4.22,2.45,2.86,1.81,3.67,2.88c.41-.07,4.67,0,4.67,0s6,2.56,7.48,5.45,3.15,6.48,6.15,6.3c0,0,.63-1.23,1.7-.63a.79.79,0,0,1,.89-.3.74.74,0,0,1,.55.93c0,.4,0,.51.41.51s2.76-5,2.76-5,.09-.43-.76-.31-2.66-1.58-2.07-3a3.84,3.84,0,0,1,2.29-2c.41-.18,1.41-3,1.6-3s2.52.81,2.52.81,7.55-16.5,7.77-16.61.34-1,1.11-.5l.78.5h0l15.22,7s.67,3.69.34,4.2-1.93.34-2.26,1.19-.34,1.7-.63,2.26a7.2,7.2,0,0,0-.56,2.44c0,.56.23,1.78,2.56,3.63a9.58,9.58,0,0,1,1.74,4.41s.48,1.78,1.41.82,1.44.14,1.52.44.88,1.26,1.51,1.26,1.11,1.93,1.52,2,.37.26.93,0,1.55-.59,1.85-.41a11,11,0,0,1,1.63,1.41c0,.15.26,2.3.44,2.07s.86-2.33.15-3.22a15.29,15.29,0,0,1-1.85-4.18c0-.34,1.63-.45,1.74-.71a15,15,0,0,1,.43-2.41,2.33,2.33,0,0,0,.61-2.18c-.15-1.41,0-4.33.78-4.11s1.81.26,1.81-.41.33-6.18,0-6.26-5-.48-5.15-.55-.59-1.37-1.66-1.34-.74-1.81-.74-1.92a4.57,4.57,0,0,0-.26-1.82c-.3-.41,1.22-.78,1.48-.55s0-4.08.22-4.26,1.56-1.6,1.74-1.52-1.22-1-.93-1.93,1-1.52,1.52-1.4,1.78.33,1.78-.52a14.77,14.77,0,0,0,.07-2.45c-.14-.11-.85-1.37-1.07-1.52s-1.07.15-1.33-.07.18-.41.44-.89.93-1.41.59-1.67-.59-1.29-2.11-.77c0,0-.22,1.66-1,1.89s-1,.44-1.29,1.51-1.71,1-1.93.49-.15-1.89-.92-1.6-3.41,2.19-3.67,2.11-1.15-.55-1-1,1.07-1.07.81-1.44,1.41-1.6,1.56-1.89,1-1,.48-1.67-1.11-2.07-1.37-2.07-1.19,1.52-1.45,1.52a1.3,1.3,0,0,0-1.48,1.4s.56.63.22.82a.84.84,0,0,1-1.14-.26c-.23-.45-1.52-1.41-1.63-1.11s-1.12,1.48-1.75,1.22-3.59-4.56-3.81-4.56-15.85-1.11-20-2.29S68,151.76,61.23,146.57l13.85-21.63L84.19,127l12.45-.71s-.6-2.78-.26-3.22,1.33-.82,1.29-1.19-.36-4.48,0-5.11a2,2,0,0,1,1.45-1.14c.55,0,1.55-.75,1.29-1.12s-.77-1.59-.55-2.11a1.89,1.89,0,0,0-.19-1.81c-.4-.56.26-1.67.26-2.15s-1.15-.63-1.15-1.52-.44-.74-1-1.7a5.81,5.81,0,0,0-3.26-3.34c-2.15-.81-1.48-1.25-2.15-.81s-.59.81-1.11.81-2.89-.07-3,.3l-.62.23c.22-.61-1.83-2.84-2.44-3.28s-.45-2.06-.84-2.33a14.12,14.12,0,0,0-2-1.23c-.27,0-5.89-6.22-6.72-6.66s-.61-2.34-1.11-2.61-.89.94-3.61-.78-1-3.17-.56-3.83,1.39-.95,1.89-1.5S72.37,79,72,78.32s.4-1.23.57-2S71.71,75,72,74.87s.67-1.61.67-2.05S73.82,71.21,74,71a5.24,5.24,0,0,0,.17-4.78,10.73,10.73,0,0,1-.28-6.55c.33-1.78,2.55-3.39,2.94-3.56s1.73-.83,1.73-1.28,1.5-.39,1.83-.22,1.89-1.28,1.94-1.11,1.61.89,1.5,1.39.89,1.61,1.28,1.61a9.44,9.44,0,0,1,2.17,1.28,2.58,2.58,0,0,0,2.22,0c.39-.23.44-1.17-.06-2.11s.67-1.06,1-1.06,1.91.5,2.52.5,0-.56,2.44-.28,4.73-1,3.84-.94-1.39-.84-1.84-1.06S98,51.43,98,51s.84-.78,1.5-1.11.89-1.5.84-2.11S98.43,46.43,97,45s-.38-1.61-.16-2.27a1.62,1.62,0,0,0,.05-1.34,10,10,0,0,1,.67-3.72c.5-1.67-.78-3.61-1-4.2s-1-1.3-1.71-.82-.81-.15-1.18-.59-1.56-.74-2-1.33S90,27.37,89.58,26.85s-.56.11-1-.18-.46-3.91-.4-4.52-.73-2.64-.89-4.33.41-1.31.69-2.45-2.25-3.64-2.25-3.64-1.39.59-2.22.86-.11.67-1.06,1.12-1.66.16-2.72.27a3.59,3.59,0,0,1-2.44-1.11c-.39-.33-1.45.06-2.34.89s-1.27.45-1.22.11-.5-1-.5-1.33-2.11-1.61-1.78-2.11-1.33-.56-1.61-.84-1.94.23-2.44.12-1.61.38-2.28.33,0,0-1.94,1.22a5.72,5.72,0,0,1-4.45.33L55,8.76l-2.78,2.83-2.5-2-2.39,2.34a16.83,16.83,0,0,1-2.17-1.56c-.79-.72.45-1.11.45-1.39s2.89-3.94,3-4.22.33-2.22.33-2.22L44.26.65s-2.83,6.83-3.59,6.89-1.41.72-2,.83-3.55-1.5-3.55-1.5S28,22.26,27.76,22.26,16,17.93,15.54,17.76s-.56-.05-1.94,1.06S8.21,35.54,7.93,36.09s-2.11.06-3.17,1,.17,3.23.34,4.17-2.39,7.5-4,11.06.55,3.5.55,3.5,14,4,16.06,4.72,2.77,1.72,4.05,2.39,1.5-.11,1.89-.28S30,51.48,30.15,51.59a20,20,0,0,1,1,2.45c-1.78,1-13,32.17-13.39,32.78s.83,1.11.94,1.66-2.83,7.67-3.33,8.84,1.78.83,1.89,1.16,1.33-.55,2.16-.39,2.45,2.45,2.11,3.06a1.24,1.24,0,0,1-1.77.5,32,32,0,0,0-4.89-2.56c-.78-.16-.11,1.06-.28,1.78s.56,1.39,1,2,1.78,0,1.89,1.17a6,6,0,0,0,2.05,3.33c.66.39.73,3.45.34,4.11s-.61,1.73.28,2.11,3.77,5.78,3.77,5.78S23.77,120.32,23.56,120.42Z"/><text class="cls-2" transform="translate(35.14 91.81)">长<tspan x="0" y="36">埂</tspan></text></g></g></svg>