<svg xmlns="http://www.w3.org/2000/svg" viewBox="0 0 201.11 169.78"><defs><style>.cls-1{fill:#dbeac1;stroke:#000;stroke-miterlimit:10;}.cls-2{font-size:30px;font-family:STXingkai;}</style></defs><g id="图层_2" data-name="图层 2"><g id="图层_1-2" data-name="图层 1"><path class="cls-1" d="M200.43,71.84,101.9,26.53a.25.25,0,0,0-.36.22c0,.82-.05,2.74.37,3.24,1.27,1.53,2.28.72,2.37,1.17s-2.87,5.05-2.87,5.05l-.39-.72c-.39-.72.11.28-1.33-.33s-1.72.5-1.72.5c-3,.22-5-3.78-5.23-4.39a20.26,20.26,0,0,0-1.88-3.45,51.17,51.17,0,0,0-6.39-3.89,45.85,45.85,0,0,0-4.78-.05c-1.17,0-1.11-1.28-1.56-1.61a47.56,47.56,0,0,0-5.22-2.61c-1.17-.45-1.83-2.17-2.22-2.61s-.45.22-1.5.33-2.28-2.28-2.5-2.5S65,16.05,64.86,16.05a16.68,16.68,0,0,1-2,.94c-.83.22-.28-.78-1.44-1.28s-.17-1.22-4.39-5.5S52,3.55,51.63,2.55a2.57,2.57,0,0,0-1.91-1.42C49.24,1,47.91,3,47.33,3.1s-1.59-1.55-5.56-.5-4.64.42-6.39.47S31.13.68,30.72.52s-1.34.86-2,1.3-.28.81.3,1.39-.25,1.53.64,2.17S32.58,6.52,32.72,7a8.64,8.64,0,0,0,1.11,1.92c.25.27,1.33.72,1.66,1.52s-.19,1.81-.5,1.84-1.22-1.11-1.22-1.5-.33-1.17-1.08-1.09-2.14,1.34-2.36,1-1.31-.5-1.81-.59-.89.61-1.39,1.25-.19,1.59-.69,1.73a5.47,5.47,0,0,0-1.47.83,5.09,5.09,0,0,1-2.36.78,11.81,11.81,0,0,0-2.75.36c-.81.14-.12,1.44.11,1.66s1.66-.47,2-.44a7.44,7.44,0,0,1,1.83.53c.31.19,2.2-1.09,2.42-1.09a5.65,5.65,0,0,1,1.18,1.92,2.08,2.08,0,0,0,.08,1.33c.29.67-.45,1.34-.45,1.78s1.26,1,1.71,1.41-.74,1-.6,1.78,1,1.92,1,2.74.74.52-1.11,1.18S21.08,36,20.41,36.49s-1.55,3.11-2.07,2.82-2.37.81-3.19,1-1.18,1.55-1,2.15.82,1.55.67,2.22,1.41,3,1.41,3l-2.08,3.08,6.13,3.53c-.77,1.06-4,7.61-4.33,8.17s-2.5.67-2.11.94.5,3,.5,3.78,1.67.28,1.67.28.27,1.05-1.28,1.5S10,73.66,9.74,73.71.69,89.6.69,89.6l21.78,11.17S36.58,76.21,36.91,76.49a3.43,3.43,0,0,0,1.83.39c.67,0,1.89.33,2.34.28s6.05-2.78,6.28-2.73,1.38-2.5,1.83-2.38,1.17,1.55.89.38a1.45,1.45,0,0,1,1-1.72c.16,0,1.28-.11,1.66-.11S52,69.43,52,69.43l1-.94c.61,1.28,1.27,0,1.72.22s.28,1.17.28,1.67,1.77.72,1.77.72l.28-.83,4.17,1.44c-.39.5.11,1.22.55,1.39a4.09,4.09,0,0,0,1.62.22c.38,0,.61-1.94.61-1.94l1.16.72c-.44,1.28-.11,1.17.61,1.45s1.78,1.88,1.89,2-4.72,9-4.83,9.45,1.61,1.5,2.06,1.94,3.33-2.83,3.61-2.83,1,1.39,1,1.89a6.7,6.7,0,0,0,.89,2.61c.45.61,1.28,3.22,1.72,3.94s1.73.78,1.73.78a42.76,42.76,0,0,0-2,4.5c0,.33,2.83,1.5,4,1.94s.56,2.11.56,2.11c1,1.56-.84,1.39-.23,1.89s.5,1.61.56,2.17-.72,1.11-1.83,1.39a2.93,2.93,0,0,1-2.17-.45c-.5-.16-1.39.45-2.22.5s-1.11,2.06-.89,2.34l0,.09c-.84-.06-.62-.45-1.12-.39s-.5,1.89-.28,2.17a6.16,6.16,0,0,0,2.34.5H75.1l.06,1.72a6.16,6.16,0,0,0-1.06,0c-.17,0-.06,6.89-.06,7.39s-1,.22-1.61.27-1.55,1.12-1.77,1.56,1.66.28,2.44.78-.17.83-.44,1.39.33,2.77.44,1.66,1.06-1,1.56-.66,1.22-.67,1.33-.34-.28,1.28.17,1.89-.12,1.45-.17,2,.5,2.06,1,2.11.17,1.11.39,2.06-1.17,1.22-1.72,1.11-.45-2-.45-2.28-1.72.34-1.94.34-.28,1.5.27,2.33,2.67.39,2.51.67a3.82,3.82,0,0,0,0,1.72c.12.39-.83,1.55-1.38,2.28s-.78.38-1.5.33-1.34.78-1.56,1.55-.17,1-1.44,1.45-1.06,2.22-.67,2.33.61-.28.94,0-.16.45-.67,1.22-.44.5-2.05,1.17-.44.39.22.95a1,1,0,0,1-.15,1.61c-.4.16,1.07,1.05,1.26,1.26s2,.14,2.48.32a3.79,3.79,0,0,1,1.11,1,10.66,10.66,0,0,1,1.06-1c.19-.07.6-1.74,1.26-2.15a33.88,33.88,0,0,1,6.67-1.63,16.26,16.26,0,0,0,2.07-.44c.56,0,5.52-2.89,6-2.74s.26,2.48.37,3.3.11,2.18,1.29,2.66,1.19-.44,1.52-.29-.11,1.59.33,1.77a21.36,21.36,0,0,1,2.19,1.37c.59.41.41,1.56.41,1.89s1.11,1.37,2.18,2,1.48.29,1.59.29.63-1.18.89-1.22a16,16,0,0,1,3.49-.93c1.77-.18,2.29,1.67,2.66,1.89s.71-.26.82-.26a6.71,6.71,0,0,1,.85,2.34c-.11.29-2.19.22-2,.48a3,3,0,0,1,.08,2.15c-.37.63-.49,1.33.18,1.74s4.74,1.78,4.83,2-.57,1.23-1,1.71.33,1.26.81,1,1.48,0,2.63-.3.41-2.18.63-2.22a6.12,6.12,0,0,1,2,.74,7.59,7.59,0,0,0,2.7,1.11c1.26.22,1.3-1.44,1.67-2s2.07-.52,2.07-.52.19.15,2,1.3,1.53-.11,1.61-.22-2.11-1.11-2.34-1.58,1.17-3.07,1.58-2.77a3.2,3.2,0,0,0,1.59.31c.37,0,.52-2.67.37-2.89s-1,.22-2.15-1-.59-2.22-.37-2.3,3-1.55,3-1.55a1.05,1.05,0,0,0,.44,1.33c.82.44,3.93-1.19,4.15-1.19a16.5,16.5,0,0,1,2.3-.29c.44.07,1.4,1.55,1.62,1.85s-.66.67-1.92,1-.67.52-.3,1.86A2.75,2.75,0,0,0,136,162c.59.22.37-1.26,1-1.93a4.9,4.9,0,0,1,3.26-1.26c1.33,0,5.63.6,5.63.6-.89-4.3,3-11.11,3.63-12.67a44.64,44.64,0,0,1,5.55-8.44c1.11-1,18.6-26.6,18.6-26.6l.12-.18s14-20.88,26.52-39.41Z"/><text class="cls-2" transform="translate(83.2 91.71)">青云寺</text></g></g></svg>